/* XPM */
static char *result[] = {
/* columns rows colors chars-per-pixel */
"128 128 57 1 ",
"  c #000001",
". c #232323",
"X c #2F2F2F",
"o c gray20",
"O c #373737",
"+ c gray23",
"@ c #4B0000",
"# c #570000",
"$ c #630000",
"% c #6F0000",
"& c #770000",
"* c #777700",
"= c #004343",
"- c #005B5B",
"; c #007373",
": c #434343",
"> c #4B4B4B",
", c gray34",
"< c #5B5B5B",
"1 c #676767",
"2 c gray45",
"3 c gray50",
"4 c #830000",
"5 c #8F0000",
"6 c #9B0000",
"7 c #9F0000",
"8 c #A70000",
"9 c #B30000",
"0 c #BF0000",
"q c #CB0000",
"w c #D70000",
"e c #DF0000",
"r c #E30000",
"t c #EF0000",
"y c #F35353",
"u c #878700",
"i c #9F9F00",
"p c #AFAF00",
"a c #C7C700",
"s c yellow",
"d c #EB8F5B",
"f c #EBA377",
"g c #008787",
"h c #009F9F",
"j c #00B7B7",
"k c #00CFCF",
"l c #00E7E7",
"z c gray56",
"x c #9B9B9B",
"c c gray67",
"v c #B7B7B7",
"b c #BBBBBB",
"n c #FFCFB3",
"m c #FFD7BF",
"M c #C3C3C3",
"N c LightGray",
"B c #DFDFDF",
/* pixels */
">+++++++++++++++++++++++++++++++++++++++++++++++++++++++++++++++++++++++++++++++++++++++++++++++++++++++++++++++++++++++++++++XX",
"++++++++++++++++++++++++++++++++++++++++++++++++++++++++++++++++++++++++++++++++++++++++++++++++++++++++++++++++++++++++++++++XX",
">>zzzzzzzzzzzzzxzzxxzzxxzzxxzzxxxzxxxxxxxxxxxxxxxxxxxxxxzzxxzzzxzzzzzzzzzzzzz3zzz3zz333333333333333322222222222222222222222222XX",
">>zzzzzzzzzzzzxzzxxzzxxzzxxzzxxxzxxxxxxxxxxxxxxxxxxxxxxzzzxzzzxzzzzzzzzzzzzz3zzz3zz3333333333333333222222222222222222222222222XX",
">>zzzzzzzxzzzxzzxxzzxxzzxxzzxxxxxxxxxxxxxxxxxxxxxxxzxxzzzxzzzxzzzzzzzzzzzzz3zzz3zz33333333333333332223223xx3223xx3222222222222XX",
">>zzzzzzxzzzxzzxxzzxxxzxxxzxxxxxxxxxxxxxxxxxxxxxxxzzxzzzxzzzxzzzzzzzzzzzzz3zzz3zz33333333333333332223222xccz22xccz222222222222XX",
",,zxzghzzzzxzzxxzzxxxzxxxxxxxxxxxxxxxxxxxxxxxxxxxzzxzzzxzzzzzzzzzzzzz3zzz3zzz3zz333333333333333322232221zxcx11zxcx1222221;;111XX",
",,xz;jkhzzxzzxxzzxxxxxxxxxxxxxxxxxxxxxxxxxxxxxxxzzxzzzxzzzzzzzzzzzzz3zzz3zzz33z33333333333333332223222113zcx113zcx122221-;g;11XX",
",,z3-gjgzxzzxxzzxxxxxxxxxxxxxxxxxxxxxxxxxxxzxxxzzxzzzxzzzzzzzzzzzzz3zzz3zzz33z333333333333333322232223113zcx113zcx12222,=-;;12XX",
",,z32-;zxzzxxzzxxxxxxxxxxxxxxxxxxxxxxxxxxxzzxxzzxzzzxzzzzzzzzzzzzz3zzz3zzz33z3333333333333333222322232113zcx113zcx12222,>=-,21XX",
",,zx323xzz,111111111111112222222222222222222222222zzzzzzzzzzzzzzz3zzz3zz33333333333333333333222322232o+:>>>>>>>>>>>:+221,,,111XX",
",,xzzzxxzz,,,,,,,,,,,,,,,,,,1111111111111111111112zzzzzzzzzzzzzz3zzz3zz333333333333333333332223222321o+:>>>>>>>>>>>:+221112111XX",
",,zzxxxxz3,>zxxxxxxxxxxxxxxccccccccccccccccccccc12zzzzzzzzz3zzz3zzz3zz3333333333333333323322232223221o+:>>>>>>>>>>>:+211121112XX",
",,zxxxxxz3,>3zcccccvvvvvvvvvvvvvvvvvMMMMMMMMMMMc12zzzzzzzz3zzz3zz333z33333333333333333223222322232221o+:::::::::::::+111211121XX",
",,xxxxxx33>>12zzzzzzzxxxxxxxxxxxxxxxxxxxxxccccMc12zzzzzzz3zzz3zz333z333333333333333332232223222322221>>+,11,++,11,,,1112111211XX",
",,xxxxxx33>+12zzzzzzzzxxxxxxxxxxxxxxxxxxxxxcccMc12zzzzzz3zzz3zz333z3333333333333333322322232223222221,>>1121>>1121,11121112111XX",
",,xxxxxx33>+12zz++zz++zz++zz++xx++xx++xx++xxccMc11zzzzz3zz33zz333z33333333333333333223222322232222221,>>13x31,13x3111211121111XX",
",,xxxxxx32>+12zz++zz++zz++zz++zx++xx++xx++xxxcMc,1zzzz3zz333z333z33333333333333333223222322232222222221>13cz1,13cz112111211111XX",
",,xxxxxx32++,2zz>+zz>+zz>+zz>+zz>+xx>+xx>+xxxxMc,1zzz3zzccccccvvvvvvvMMMNNBBBB3332232223222222222222221>13cz1,13cz111112111111XX",
",,xxxxxx32++,2zz>+zz>+zz>+zz>+zz>+zx>+xx>+xxxxMc,1zz3zz3cccccccvvvvvvvMMMNBBBB3322322232222222222222221>13cz1,13cz111121111111XX",
",,xxxhhx32++,2zz>+zz>+zz>+zz>+zz>+zz>+xx>+xx12vc,133zz21cc>1ccccv3yy3vvMMM2zBB3223222322222222222222221>13cz1,13cz1112111;;111XX",
",,xx;jlh32++,2zz>>zz>>zz>>zz>>zz>>zz>>zx>>xx,1vx,133z321cc1>cccc3ynny3vvMMz2BB2232223222222222222222221>13cz1,13cz,12111-;g;11XX",
",,xz-gjh32+X,2zz,>zz,>zz,>zz,>zz,>zz,>zz,>zxxxvx,13z332,xcccccc3yfyymy3vMMvvNN2322232222222222222222221>13cz1,13cz,1111,=-;;11XX",
",,xz2-;x32+X,2zz1,zz1,zz1,zz1,zz1,zz1,zz1,zzxxvx,1z3332,xxcccc3yfyyyymy3vMMMMN3222322222222222222222221>13cz1,13cz,1111,>=-,11XX",
",,xxzzzx32+X,2zzzzzzzzzzzzzzzzzzzzzzzzzzzzzzzxvx,133332,xxccc3yfyyyyyymy3vMMMM2223222222222222222222221>13cz1,13xz,11111,,,111XX",
",,xxxxxx32+X,2zzzzzzzzzzzzzzzzzzzzzzzzzzzzzzzzcx,,33331,xxxc3yfyyyyyyyymy3vMMM2232222222222222222222221>13cz1>13x3,11111111111XX",
",,xxxxxx22XX,222222222222222222222222222222222zx,,33331,xxxx0yyyyyyyyyyydevvMM2222222222222222222222221>13cz1>13x3,11111111111XX",
",,xxxxxx22XX,,,,,,,,,,,,,,,,,,,,111111111111113z,,33331,xxx3qyyyyyyyyyyyyevvvM2222222222222222222222221>13cz1>13x3,11111111111XX",
",,xxxxxz22XXXXXXXXXXXXXXXX+++++++++++++>>>>>>>,,,,33331>zx31%678qtyytq8765vvvv2222222222222222222222221>13cz1>13x3,11111111111XX",
",,xxxxzx22XXXXXXXX++++++++++++++>>>>>>>>>>,,,,,,,,33331>zz31@@@#5ryyr4#@$$vvvv2222222222222222222222221>13xz,>13x3,11111111111XX",
",,xxzzxx22222222222222222222222222222222222222233333331>zz311111&ryyy5222xccvv2222222222222222222222221>13x3,>13z3,11111111111XX",
",,xzzzxz22222222222222222222222222222222222222333333331>zz333331&ryyy833zccccv2222222222222222222222221>13x3,>13z3,11111111111XX",
",,zzzxzzzzzzzzzzzzzzzzzzzzz3zzz33z333z33333333333333331>zzzzzx31%qyyy8xccccccc222222222222222222222222,>13x3,>13z3,11111111111XX",
",,zzxzzzzzzzzzzzzzzzzzzzzz3zzz33z333z333333333333333331>zzzzzz31#68806xccccccc222222222222222222222221,>13x3,>13z3,11111111111XX",
",,xxzghzzzzzzzzzzzzzz3zzz3zzz33z333z3333333333333333331>zz +zz31@@@@$5xxcc>1cc222222222222222222222211,>13x3,>13z3,111111;;111XX",
",,xz;jkhzzzzzzzzzzzz3zzz3zzz33z333z33333333333333333331>zz+ zz31111111xxxx1>cc222222222222222222222111,>13x3,>13z3,11111-;g;11XX",
",,z3-gjgzzzzzzzzzzz3zzz33zz33z333z333333333333333333331>zzzzzz3333333xxxxxxxcc222222222222222222221112,>13z3,>13z3,1111,=-;;11XX",
",,z32-;3zzzzzz3zzz3zzz33z333z333z3333333333333333333331>zzzzzzzzzzzzzzzxxxxccc222222222222222222211121,>13z3,>13z3>1111,>=-,11XX",
",,zz333zzzzzz3zzz3zzz33z333z333333333333332123333333331>>>>>>>>>>>>>>>>>,,,,,122222222221,,2222211121Xo+:>>>>>>>>>>:+111,,,111XX",
",,zzzzzzzzzzzzzz3zzz33z333z333333333333332,2z2333333331,,,,,,,,,,,,,,,,,,,,,122222222221,23,222111211Xo+:>>>>>>>>>>:+111111111XX",
",,zzzzzzzzz3zzz3zz333z333z3333333333333331>221333333332223222322232222222222222222222221+,2,22111211,Xo+::::::::::::+111111111XX",
",,zzzzz3zz3zzz3zz333z333z333333333333333311>,2333333322232223222322222222222222222222221,+,121112111,Xo++++++++++++++111111111XX",
",,zzzz3zz3zzz33z333z,,,,,,11111111111111331113,:XXXXXXXXXXXXXXXXXXXXXXXXXXXXXXXXXXXXXXXX111211121112,>++>,,>++>,,,>>1111111111XX",
",,zzzzzz3zzz33z333z3,,,,,,,,,,,,,,,,11113333331,XXXXXXXXXXXXXXXXXXXXXXXXXXXXXXXXXXXXXXXX222111211121,>>+,,21++,,21>,1111111111XX",
",,zzzzz3zz333z333z33>>zzzzzzzzxxxxzzzx1133333331::::::::::::::::::::::::::::::::::::::XX221112111211,>>>,132>>,131>11111111111XX",
",,z3zz33z333z333z333>>zzzzzzxxxxxzzzxz1133333333,>>>>>>>>>>>>>>>>>>>,,>>>>>>>>>>>>>>>:XX21112111211111,>,132>>,131>11111111111XX",
",,3zz33z333z333z3333>>zzzzxxxxxxzzzxzz11333333x3,,,,,,,,,,,,,,,,,:,3c3,,,,,,,,,,,,,,>:XX11121112111211,>,132>>,131>11111111111XX",
",,zz33z333z333z33333>>zz3222222222222z11333323x31,,,,,,,,,,,,,,,:O,3c3,,,,,,,,,,,,,,>:XX11211121112111,>,132>>,131>11111111111XX",
",,z33gh33z333z333333>>zxiii1111iiiu,2z11333233x31,,,,,,,,,,,,,,:OX,3c3,,,,,,,,,,,,,,>:XX12111211121111,>,132>>,131>111111;;112XX",
",,33;jkhz333z3333333>>xcii1111iiiu,,2z11332333x31,,,,,,,,,,,,,,:XX,3c3,,,,,,,,,,,,,,>:XX21112111211111,>,132>>,131>11111-;g;21XX",
",,33-gjg333z33333333XXxci1111iiiu,,,2z11223322x31,,,,,,,,,,,,,>+XX,3c3,,,,,,,,,,,,,,>:XX11121112111111,>,132>>,131>1111,=-;;11XX",
",,332-;333z333333333XXxc1111iiiu,,,,2z11223222x31,,,,,,,,,,,,,>+XX+,1,,,,,,,,,,,,,,,>:XX11211121111111+,2zxz1>,131>1111,>=-,11XX",
",,3333333z3333333333++xv211iiiu,,,,u2z11232223x31,,,,,11111111>+XX++>+1111111111111,>:XX1211121111111,+>1333,>,131>11111,,,112XX",
",,333333z33333333333++xv21iiiu,,,,uu2z,1322232x31,,,,:aa>>aaaa,,aaaa,,aass11ssssss1,>:XX21112111>>>>1,+>,,,,,>,131>11111211122XX",
",,33333z333333333333XXxv2iiiu,,,,uuu2z,1222322x31,,,:O3ccccccccccccccccccccccccccN1,>:XX1112,,,>,,,,1,,,122,>>,131>11112111221XX",
",,3333z3333333333333XXxviiiu,,,,uuu*2z,1223222x31,,:OX3ccccccccccccccccccccccccccN1,>:XX112,>>>+>>>>>>,12321>>,131>11121112212XX",
",,333z33333333333333>>zvpiu1,,,uuu*>2z,1232223x31,,:XX3ccM222222222222222222223ccN1,>:XX12,>>11,++++2223z321+,1zxz1>1111122122XX",
",,33z333333333333333>>zvpp1111uuu*>>3z,1322232x31,>+XX3ccBXXXXXXXXXXXXXXXXXXXX3ccN1,>:XX21>>,13,++++3333321,+>1333,>1111221222XX",
",,3z3333333333333333>>zvvvvvvvcccccczz,,222322x31,>+XX3ccBXXXXXXXXXXXXXXXXXXXX3ccN1,>:XX,,>>,,,>++++11111,,>++>,,,,>1112212221++",
",,333333333333333333>>xzzzzzzzzzzzzzzz,,223222x31,>+XX3ccB++++++++++++++++++++3ccN1,>:XX,,>>>,>+++++,,,,,,>++>111,>11121122212++",
",,333333333333333333>>zzzzzzzzzzzzzzzz,,232222x31,>+XX3ccB>>>>>>>>>>>>>>>>>>>>3ccN1,>:XX,,>>>>+X+++++++++++++>2321>11111222122++",
",,333333333333333333>>zzzzzzzzzzzzzzzz,,322222x31,>+X13ccB>>>>>>>>>>>>>>>>>>>>3ccN3,>:XX,,,>>>>+++++++>>>>>>,13321>11111221222++",
",,333gg3333333333333>>zzzzzzzzzz2+>2zz,,222222x31,>+323ccB333333333333333333213ccNz3>:XX,,,>>11,++++2222222223z321>111121;;121++",
",,33;hjg333333333333>>zzzzzzzzzz+,1>z3,,222222x31,>+,13ccB,,,,,,,,,,,,,,,,,,>>3ccB2,>:XX,,>>,13,++++3333333333321,>11121-;g;12++",
",,31-ghg333333333333>>zzzzzzzzz3.>,+33,,222222x31,++X>zccBXXXXXXXXXXXXXXXXXXXXzccB,X>:XX,,>>,,,>++++111111111111,>,1111,=-;;22++",
",,31,-;3333333333333>>zzzzzzzz32,.+,33,,222222x31,++XX3<<b+++++++++++++++++++X3<<bXX>:XX,,>>>,>+++++>>>>>>>>>>>>+>11111,>=-122++",
",,321113333333333233>>zzzzzzzz3222333z,,222222x31,>+XXXX,,,,,,,,,,,,,,,,,,,>+XXX::::>:XX,,>>>>+X++++++++++++++++>,121112,,,221++",
",,333333333333332333>>zzzzzzzz322333z3,,222222x31,>+XXX+,,,,,,,,,,,,,,,,,,,>+XX+::::>:XX,,,>>>>+oooo>>>>>>>>>>>>,,221121112212++",
",,333333333333333332>>zzzzzzzzz3333z33,,222222xz2,>++++>,,,,,,,,,,,,,,,,,,,>+++>,,,,>:XX1,,,>>>>XXXX>>>>>>>>>>>,,1111211122122++",
",,333333333333333322>>zzzzzzzzzz33z333>,222222xz2,>>>>>,,,,,,,,,,,,,,,,,,,,>>>>,,,,,>:XX11,,,,>>>>>,,,,,,,,,,,,,11112111221222++",
",,333333323332333223>>zzzzzzzzz33z3333>,222222xz2,>>>>,,,,,,,,,,,,,,,,,,,,,>>>,,,,,,>:XX111111>>>>,111111111111211121112212221++",
",,333333233323332232>>zzzzzzzz33z33333>,222222xz2,,,,,,,,,,,,,,,,,,,,,,,,,,,,,,,,,,,>:XX111111,,,,1111111111112211211122122212++",
",,333333333333322322XXzzzzzzz33z333333>,222222xz2,,,,,,,,,,,,,,,,,,,,,,,,,,,,,,,,,,,>:XX11111111111111111111111111111211222122++",
",,333333333333223222XXzzzzzz33z3333333>,222222xz2,,,,,,,,,,,,,,,,,,,,,,,,,,,,,,,,,,,>:XX11111111111111111111111111112111221222++",
",,333333323332232223++zzzzz33z33333333>,222222xz2,,,,,,,,,,,,,,,,,,,,,,,,,,,,,,,,,,,>:XX11111111111111111112111211121112212222++",
",,333333233322322232++zzzz33z333333333>,222222xz2,,,,,,,,,,,,,,,,,,,,,,,,,,,,,,,,,,,>:XX11111111111111111121112211211122122222++",
",,333gg3333223222322XXzzzzzzz333333333>>222222xz2,,,,,,,,,,,,,,,,,,,,,,,,,,,,,,,,,,,>:XX111111111111111111111111121112111;;222++",
",,32;hjg332232223222XXzzzzzz3333333333>>222222xz2,,,,,,,,,,,,,,,,,,,,,,,,,,,,,,,,,,,>:XX11111111111111111111111121112111-;g;22++",
",,31-ghg322322232223>>zzzzz33z33333333>>222222xz2,,,,,,,,,,,,,,,,,,,,,,,,,,,,,,,,,,,>:XX11111111111111111112111211121111--;;22++",
",,31,-;2223322322232>>zzzz33z333333333>>222222xz2,,,,,,,,,,,,,,,,,,,,,,,,,,,,,,,,,,,>:XX11111111111111111121112111211121,--122++",
",,331113333223222322>>zzz33z3333333333>>222222xz2,,,,,,,,,,,,,,,,,,,,,,,,,,,,,,,,,,,>:XX11111111111111111111111112111212111222++",
",,333333332232223222>>zz33z33333333333>>222222xz2222221111111111111111111111111111,,,:XX11111111111111111111111121112112222222++",
",,333333322322232223>>>>>>>>>>>>>>>>>>>>222222xzzzzzzzzzzzz33333333333333322222222221,>:11111111111111111112111211121122222222++",
",,333333223222322232>>>>>>>>>>>>>>>>>>>>222222xxxxxxxxxxxxxxzzzzzzzzzzzzzzzz3333332221,>11111111111111111122112111211122122222++",
",,33333223322322232222222222222222222222222112222222221112111211121111111111111111111111,,,11111111111111111111112111221222222++",
",,3333223322322232222222222222222222222222,2z122222221112111211121111111111111111111111,>12,1111111111111111111121112212222222++",
",,3332233223222322232222222222222222222221+,2122212211121112111211111111111111111111111,+,1,1111111111121112111211121122222222++",
",,3322332232223222322222222222222222222221,+,222112111211122112222222222222222211111111,>+>,1111111111211122112111211222122222++",
",,322332232223222222222222222222222222222211122222111211333333zzzzzzzzzzxxxxxx2111111111,,,11111111111111111121112112221222222++",
",,22332232223222222222222222222222222222222222222111211133333333zzzzzzzzzxxxxx211111111111111111111111111111211121112212222222++",
",,233gg222232223222222222222222222222222212221221112111,33:,33333zzzzzzzzz<1xx2111111111111111111111111211121112111211221;;222++",
",,33;hjg2232223222222222222222222222222212221121112111,,33,:3333899990zzzz1<xx211111111111111111111111221121112111211221;gg;22++",
",,31-ghg2222222222222222222222222222222222222211121112,>2333333149wwr9zzzzzzxx211111111111111111111111111111121112112221-;g;23++",
",,21,-;22222222222222222222222222222222222222111211121,>2233332<4589w9zzzzzzzx211111111111111111111111111111211121122221,-;132++",
",,2211122223222222222222222222222222212221221112111211,>2233332<4588w93zzzzzzz211111111111111111111211121112111211222122111222++",
",,2222222232222222222222222222222222122211211121112111,>2223332<4588w933zzzzzz211111111111111111112111221121112111221222222222++",
",,2222222222222222222222222222222222222222111211121112,>222200084588w09999zzzz211111111111111111111111111211121112212222222223++",
",,2222222222222222222222222222222222222221112111211121,>22219rrrw989rwwww9zzzz211111111111111111111111112111211122122222222232++",
",,2222222222222222222222222222222122212221121112111211,>221,56888889998865zzzz211111111111111111111211121112111211222122222222++",
",,2222222222222222222222222222221222112211211121112111,>22<,%&8888888888&%33zz211111111111111111112111211121112112221222222222++",
",,2222222222222222222222222222222222222112111211121112,+22<,>%&88888888&%1333z211111111111111111111111111211121122212222222223++",
",,2222222222222222222222222222222222221121112111211121,+221<,>%&888888&%,3333z211111111111111111111111112111211122122222222232++",
">>2222222222222222222222222221222122211211121112111211,+2221<,>%&8888&%,233333211111111111111112111211121112111211222122222222++",
">>2222222222222222222222222212221122112111211121112111>+22221<,>%&88&%,1333333211111111111111121112211211121112112221222222222++",
">>222gg22222222222222222222222222221121112111211121111>+22 +21<,>%&&%,1233:,331111111111111111111111121112111211222122221;;223++",
">>22;hjg2222222222222222222222222211211121112111211111>+22+ 221<,>%%,<2222,:33111111111111111111111121112111211222122221;gg;32++",
">>21-ghg2222222222222222212221222112111211121112111211>+22222221<,>><122222233111111111111111112111211121112112211222221-;g;22++",
">>21,-;22222222222222222122211221121112111211121112111>+222222221<<<1222222333111111111111111121112111211121112112222221,-;122++",
">>2211122222222222222222222222211211121112111211121111>+++++++++++++>>>>>>>,,1111111111111111111111112111211121122222222111223++",
">>2222222222222222222222222222112211211121112111211111>>>>>>>>>>>>>,,,,,,,,,11111111111111111111111121112111211222222222222232++",
">>2222222222222222222122212221122112111211121112111211121111111111111111111111111111111111111112111211121112112221222222222322++",
">>2222222222222222221222112211221121112111211121112111211111111111111111111111111111111111111121112111211121122212222222223223++",
">>2222222222222222222222222112211211121112111211111111111111111111111111111111111111111111111111111112111211122122222222232233++",
">>2222222222222222222222221122112111211121112111111111111111111111111111111111111111111111111111111121112111221222222222322333++",
">>2222222222222221222122211221121112111211121112111211111111111111111111111111111111111111121112111211121112112221222223223233++",
">>2222222222222212221122112211211121112111211121112111111111111111111111111111111111111111211122112111211121122212222232232233++",
">>2222222222222222222221222112111211121112111111111111111111111111111111111111111111111111111111121112111211222122222222322333++",
">>2222222222222222222222221121112111211121111111111111111111111111111111111111111111111111111111211121112112221222222223223233++",
">>222gg222222122212221222112111211121112111211121111111111111111111111111111111111111111111211121112111211221122212222321;;233++",
">>22;ghg2222122212221122112111211121112111211121111111111111111111111111111111111111111111211121112111211121122212222231;gg;33++",
">>21-;gg2222222222222221121112111211121111111111111111111111111111111111111111111111111111111111121112111211222222222221-;g;33++",
">>21,-;22222222222222211211121112111211111111111111111111111111111111111111111111111111111111111211121112112222222222221,-;133++",
">>2211122122212221222112211211121112111211121112111111111111111111111111111111111111111211121112111211121122212222222232111233++",
">>2222221222122211221122112111211121112111211121111111111111111111111111111111111111112111211121112111211222122222222332222333++",
">>2222222222222222211221121112111211111111111111111111111111111111111111111111111111111111111211121112111222222222223332233333++",
">>2222222222222222112211211121112111111111111111111111111111111111111111111111111111111111112111211121112222222222223322333333++",
"++++++++++++++++++++++++++++++++++++++++++++++++++++++++++++++++++++++++++++++++++++++++++++++++++++++++++++++++++++++++++++++++",
"++++++++++++++++++++++++++++++++++++++++++++++++++++++++++++++++++++++++++++++++++++++++++++++++++++++++++++++++++++++++++++++++"
};
