/* XPM */
static char *result[] = {
/* columns rows colors chars-per-pixel */
"128 128 56 1 ",
"  c gray12",
". c #232323",
"X c #2F2F2F",
"o c gray20",
"O c #373737",
"+ c gray23",
"@ c #630000",
"# c #6F0000",
"$ c #004343",
"% c #005B5B",
"& c #006F6F",
"* c #007373",
"= c #007777",
"- c #007B7B",
"; c #007F7F",
": c #434343",
"> c #4B4B4B",
", c gray34",
"< c #5B5B5B",
"1 c #676767",
"2 c gray45",
"3 c #7B7B7B",
"4 c gray50",
"5 c #830000",
"6 c #8F0000",
"7 c #A70000",
"8 c #B30000",
"9 c #BF0000",
"0 c #CB0000",
"q c #D70000",
"w c #83532F",
"e c #8B5B33",
"r c #935F37",
"t c #9F633B",
"y c #A3673F",
"u c #AB6B43",
"i c #B77347",
"p c #BF7B4B",
"a c #F35353",
"s c #008787",
"d c #008F8F",
"f c #009B9B",
"g c #009F9F",
"h c #00A7A7",
"j c #00ABAB",
"k c #00B7B7",
"l c #23B3B3",
"z c #23B7B7",
"x c #00CFCF",
"c c #00E7E7",
"v c cyan",
"b c #23FFFF",
"n c #4BC3C3",
"m c gray56",
"M c #9B9B9B",
"N c gray67",
/* pixels */
"XX+++++++++++++++++++++++++++++++++++++++++++++++++++++++++++++++++++++++++++++++++++++++++++++++++++++++++++++++++++++++++++++>",
"XX++++++++++++++++++++++++++++++++++++++++++++++++++++++++++++++++++++++++++++++++++++++++++++++++++++++++++++++++++++++++++++++",
"XX222222222222222222222222224444444444444444mm4mmm4mmmmmmmmmmmmmMmmmMMmmMMMMMMMMMMMMMMMMMMMMMMmMMMmmMMmmMMmmMMmmMmmmmmmmmmmmmm>>",
"XX2222222222222222222222222224444444444444444mm4mmm4mmmmmmmmmmmmmMmmmMmmmMMMMMMMMMMMMMMMMMMMMMMmMMMmmMm4mMMmmMMm4mmmmmmmmmmmmm>>",
"XX22222222222222222222222242224444444444444444mm4mmm4mmmmmmmmmmmmmMmmmMmmmMMmMMMMMMMMMMMMMMMMMMMMMMm4lkl23mM4mzzl244mmMmmmmmmm>>",
"XX222222222222222222222222242224444444444444444mm4mmm4mmmmmmmmmmmmmMmmmMmmmMmmMMMMMMMMMMMMMMMMMMMMmlxxxxk;24lxxxkg*24mmMmmmmmm>>",
"XX111**12222222222222222222242224444444444444444mm4mmm4mmm4mmmmmmmmmmmmmMmmmMmmMMMMMMMMMMMMMMMMMMMmxcccxj;>1xbbbzd&>44mmmgsmMm,,",
"XX11*s*%12222222222222222222242224444444444444444m44mmm4mmm4mmmmmmmmmmmmmMmmmMmmMMMMMMMMMMMMMMMMMMlxcvcxh*$-xbbbz;%$14mmgxk*mM,,",
"XX21**%$,22222222222222222422242224444444444444444m44mmm4mmm4mmmmmmmmmmmmmMmmmMmmMMMmMMMMMMMMMMMMmkxccxzf&$;kbbcj=%:<2mmsks%4m,,",
"XX12,%$>,222222222222222222422242224444444444444444m44mmm4mmm4mmmmmmmmmmmmmMmmmMmmMMmmMMMMMMMMMMMmkxccnld&%=fbcch*%+<24Mm*%24m,,",
"XX111,,,122222222222222222224222422244444444444444444444mm4mmm4mmmmmmmmmmmmmmmmmMmmmMmmMMMMMMMMMMmkxccnld&%&;ccch*%+,3mMM424Mm,,",
"XX1112111222222222222222222224222422244444444444444444444mm4mmm4mmmmmmmmmmmmmmmmmMmmmMmmMMMMMMMMMmkxcczld*%&=xccj*%+>3mMMMmmmM,,",
"XX21112111222222222222222222224222422244244444444444444444mm4mmm4mmm4mmmmmmmmmmmmmMmmmMmmMMMmMMMMmkxxczld&%&-kcch*%+,2mMMMMMmm,,",
"XX121112111222222222222222222224222422242244444444444444444m444mm4mmm4mmmmmmmmmmmmmMmmmMmmMMMmMMMmkxxxzld&%&-jcch*%O,34MMMMMMm,,",
"XX1121112111222222222222222222224222422242244444444444444444m444mm4mmm4mmmmmmmmmmmmmmmmmMmmMMMmM2Mm32222221111111<,>+X4MMMMMMM,,",
"XX11121112111222222222222222222224222422242244444444444444444m444mm4mmm4mmmmmmmmmmmmmmmmmMmmmMmm242<,,,,,,>>>>>>>>>:XX2mMMMMMM,,",
"XX111121112111222222222222222222224222422242244444444444444444m444mm44mm4mmmmmmmmmmmmmmmmmMmmmMm121<>>>>>>>>>>>>>>>+XX2mMMMMMM,,",
"XX1111121112111222222222222222222224222422242244444444444444444m444m444mm4mmmmmmmmmmmmmmmmmMmmmM<21,>>::::::::::>>>+XX2mMMMMMM,,",
"XX11111121112112222222222222222222222222422242244444444444444444m444m444mm4mmmmmmmmmmmmmmmmmmmmm<21,>:::::::::::>>>+XX2mMMMMMM,,",
"XX1111111211121122222222222222222222222224222422444444444444444444444m444mm4mmmmmmmmmmmmmmmmmmmm1<:+OOoXoooooooooOOX.X2mMMMMMM,,",
"XX111**111211121122222222222222222222222224222422444444444444444444444m444mm44mmmmmmmmmmmmmmmmmm42$$%%%%%$ X$%%%%$X.:<2mMggMMM,,",
"XX11*s*%111211121122222222222222222222222224222422244444444444444444444m444m444mmmmmmmmmmmmmmmmmm4%&=;;-&$.O$&--&%$X>24Mgck*MM,,",
"XX11**%$,111211121222222222222222222222222224222422244444444444444444444m444m444mm4mmmmmmmmmmmmmm4;sfgggs%O:%skfd&$o,3mMgks%mM,,",
"XX11,%$>,11112111222222222222222222222222222242224222444444444444444444444444m444mm4mmmmmmmmmmmmm4;sgjggs%+$&sxgd&$o,3mMM*%2mM,,",
"XX111,,,1111112111221222222222222222222222222242224222442444444444444444444444m444mm4mmmmmmmmmmmm4;sjkggs%$$%;xfd&$o>3mMMmmmMM,,",
"XX11111111111112111211222222222222222222222222242224222442444444444444444444444m444mm4mmmmmmmmmmm4sdkxjgs&$$&sxgd&$o,2mMMMMMMM,,",
"XX111111111111112111222222222222222222222222222222224222442444444444444444444444m444m44mmmmmmmmmm4sdkxkhd&$$&sxgd&$o,34MMMMMMM,,",
"XX1111111111111112111222222222222222222222222222222224222442444444444444444444444m444m44mmmmmmmmm4sdjxkhs&:$&;xgd&$o>3mmMMMMMM,,",
"XX1111111111111111211122122222222222222222222222>>,,,,,<<<<<<111111111111144444444m444m44mmmmmmmm4sdjxkhs&:$&;xgd&$o>2mMmMMMMM,,",
"XX1111111111111111121112112222222222222222222222>>>>>>>,,,,<<<<111111111114444444444444m444mmmmmm4sdjzkhs&:$%;xgs&$o>24MMmMMMM,,",
"XX1111111111111121112111222222222222222222222222>>22222242224224444444441144444444444444m444mmmmm4sdhzkgs%:$%;zgs&$o,24mMMmmMM,,",
"XX1111111111111112111211122222222222222222222222:>222222242224224444444411444444444444444m444mmmm4;dhzjg;%:$%;zgs&$o>34mmMmmmM,,",
"XX1111111111111111111121112222222222222222222222:>22,,,,,,,<<<<<<1111144114444444444444444m444m444;sgzjg;%+$%;zgs&$o>24mmmMmmm,,",
"XX1111111111111111111112111222222222222222222222:>22>>,,,,,,<<<<<<1111441144444444444444444m444m42;sgzjg;%+$%;kgs&$o>24mmmmMmm,,",
"XX111**11111111111112111211122222222222222222222:>22>>22222242224224114411444444444444444444m444m2;sglhg;%$$%;kgs&$o>24mmgsmMM,,",
"XX11*s*%1111111111111211121112222222222222222222:>22>>2>>>>>>>>>><221144114444444444444444444m4444;sgjgf;%+$%;kgs&$o>24mgxk*mM,,",
"XX11**%$,111111111111121112111222222222222222222:>22>>2>@@e44a@@a44211441144444444444444444444m442-;fjgf;%+$%;jgs&$o>24msks%4m,,",
"XX11,%$>,111111111111112111211122222222222222222::22>>2>@qMMp55aMMm4112411444444444444444444444m42-;fhgf;%O$%;jgs&$o>24m4*%24m,,",
"XX111,,,1111111111111111211121112222222222222222::22>>2>@uMMa55pMMM2112211444444444444444444444442-;fgff;%O$%;hgs&$o>24mm444mm,,",
"XX1111111111111111111111121112111222222222222222::22:>2>7MMi55aMMpM2112211444444444444444444444442=;dgff;%o$%;ggs&$o>24mmmmmmm,,",
"XX1111111111111111111111112111211122222222222222::22:>2>wMMa55pMMaM2<14211444444444444444444444442=;dfff;%o$%;gfs&$o:24mmmmmmm,,",
"XX1111111111111111111111111211121112222222222222+:22:>2>4My55aMMp5M4<12411244444444444444444444442=;sffd;%o$%;ffs&$o>14m4mmmmm,,",
"XX1111111111111111111111211121112111222222222222+:22:>2>4M055iMMa5M2<<2211224424444444444444444442=;sdfd-%o$%;ffs&$o>22mm4mmmm,,",
"XX1111111111111111111111121112111211122222222222+:22::2>4t55qMMp55M2<<2211222442444444444444444442*;;dfd-%o$%-dfs&$o>244mmmmmm,,",
"XX1111111111111111111111111111211121112222222222+:22::2>m955uMMa55N2<<4211422244444444444444444442*-;ddd=%o$%-dfs&$o:14m4mmmmm,,",
"XX1111111111111111111111111111121112111222222222+:22::2>w550MMi55aN4<<24<1242224444444444444444442*-;ddd=%o$%-dfs&$o:12m44mm4m,,",
"XX1111111111111111111111111121112111211122222222+:22::2>755tMMa55pN2,<22<<224222444444444444444442*-;ddd=%o$%-dfs&$o>124m44mm4,,",
"XX1111111111111111111111111112111211121112222222++22+:2>#59MMu55aMN2,<22<<222422244244444444444442*-;ddd=%o$%-dfs&:o:2244m44mm,,",
"XX211**11111111111111111111111211121112111222222++22++2>#5rMM055iMN2,,42<<4222422244244444444444<444211111111111<>+OXX444gs44m,,",
"XX12*s*%1111111111111111111111121112111211122222O+22++2>#9MMt55qMMN2,,24<<2422242224424444444444<211,>>>>>>>>>,>>+oo.X14gxk*44,,",
"XX11**%$,111111111111111111111112111211121112222O+22++2>#tMM955uMMN2,,22<<2242224222442244444444121<,>>:>>>>>>>>:+oX.X<2sks%44,,",
"XX11,%$>,111111111111111111111111211121112111222O+22O+2>8MMr559MMuN2,,22<<2224222422242224444444121,>>::>::::>>>:+oX.X<24*%244,,",
"XX211,,,1111111111111111111111111121112111211122o+22O+2>wMM855tMMqN2,,22<<2222422242224222444444121,>>:::::::>>>:+oX.X12444444,,",
"XX2211121111111111111111111111111112111211121112o+22O+2,MNr559MMy5N2,,22<<2222242224222422244444<<>+OooooooooooOoX.. X<4444444,,",
"XX1221112111111111111111111111111111211121112111o+22O+2<MN955tMM05N2>,22,<222222422242224222444421$$%%%%$. X$$%%%$X.O>12m44444,,",
"XX2122111211111111111111111111111111121112111211o+22O+2<Mu660NNt55N2>,22,<222222242224222422244442%%&&&&%o.O$%&&&%+X:<244m4444,,",
"XX2212211111111111111111111111111111112111211121o+22O+22MMMMMNNNNNN2>,22,,222222224222422242224442%&=;s;%$X:%&;s-%+o:12444m444,,",
"XX2221221111111111111111111111111111111211121112o+22O+22222222222222>,22,,222222222422242224222442&&=sss&$o$%=sd;%+o:124444m44,,",
"++1222122111111111111111111111111111111121112111o+12o+22222222222222>,22,,222222222242224222422242&*=sss*%o$%-ss;%+o:1244444m4,,",
"++2122211211111111111111111111111111111112111211o+11o+22222222222222>,22,,222222222224222422242222&&=dss*%o$%-ss-%+o:124444444,,",
"++2212221111111111111111111111111111111111211121X+21o+22222222222222>,22,,222222222222422242224221&&-dss*%o$%-ss-%+X:124444444,,",
"++2221221111111111111111111111111111111111121112XO12o+2222222222l;22>,22,,222222222222242224222421&&=dss*$o$%-ss-%+X:124444444,,",
"++121**12111211111111111111111111111111111112111XO11o+1222222222kf12>,22,,22222222222222<<1<<<223<&&-fss&$o$%-ss-%+X:1244ss444,,",
"++21*s*%1211121111111111111111111111111111111211Xo11o+1122222222=%<2>,22>,22222222222221444441,1<%%&dgs;&$X$%-ss-%+X:124skg*44,,",
"++22**%$,111111111111111111111111111111111111121Xo21o+21122222221,12>,22>,22222222221=;;21111,$%%%&skf;-%+X$%;ss-%+X:124sgs%14,,",
"++221%$>,111111111111111111111111111111111111112XX12o+12112222222222>,22>,222222222=;;;s2<<,<>%&=skxks-*%+X$%;ds;%+X:1244*%,14,,",
"++122,,,2111211111111111111111111111111111111111XX11o+11211222122222>>22>,222222221s;dkx1,,>>+%shkkhd-*&$OX$&sds;%+X:124411124,,",
"++2122111211221111111111111111111111111111111111XX11o+11121122212222>>22>>22222222=;;sfg1>>>>+%&;s;;=*&%+Xo$&dds;%+X:124444444,,",
"++2212211121111111111111111111111111111111111111XX21X+21112112222222>>22>>22222222&=**=-<>>::+$%===*&%%:oX$$&dds;%+X:124444444,,",
"++2221221112111111111111111111111111111111111111XX12XO12111211222222>>22>>22222222%&%%%%<>:::O$%&&&%%%+oXX$%*ffs-%+X:124444444,,",
"++1222122111211121111111111111111111111111111111XX11XO11211121122212>>22>>22222222>%%%%%<>>>:+$$%%%$+OXXX$$%;gfs=%+X:114444444,,",
"++2122212211121122111111111111111111111111111111XX11Xo11121112112221>>22>>22222222<+++++<>>::+.XOOOoXXXX$$%=fjd;*%+X>122444444,,",
"++2212221121111111111111111111111111111111111111XX11Xo21112111211222>>22>>222222221,+XXX<>>::+  ....Xo$$$%*gjfs;&$oX>134444444,,",
"++2221221112111111111111111111111111111111111111XX11XX12111211121122>>22>>2222222221>$$$<>>::+X+$$$$$$$%%*fkhds=%+Xo,134444444,,",
"++2222122111211121112111111111111111111111111111XX11XX11211121112112>>12>>222222221*&%%%<>>::+$$%&&%%%&*;jxzds;&$OX+,224444444,,",
"++2222212211121122111211111111111111111111111111XX11XX11121112111211>>21>>222222221s;;;;<>>>>+$&dffdglzxcczds;&%+XX:<242444444,,",
"++222**11121112111111111111111111111111111111111XX11XX21112111211122>>22>>22222222*sdgkk1,>>>+%;kxkkkkjgfdds;&%+XXO><3444ss444,,",
"++22*s*%1112111211111111111111111111111111111111XX11XX12111211121112>>22>>22222222&=sfgg1,>>>+%*ffddddddds;-&%+oXX:<1244skg*24,,",
"++22**%%1111211121112111111111111111111111111111XX11XXXXooO+++::::::>>12>>12222222%%&*==,>:::+$%--;;;;;;-*&%$+XXX+,13224sgs%14,,",
"++221%%,1211121112111211111111111111111111111111XX11XXXXXXXooOO+++:::>11>>21222222>$%%$$:++++oX$%%%%%%%%%%$+oXXX+,<144222*%,14,,",
"++2221112121112111111111111111111111111111111111XX1111111121112111211122>>22222222<+++Oo+OOOOX.XoOOOOOOOOoXXXXO:,<222444411144,,",
"++2222222112111211111111111111111111111111111111XX1111111112111211121112>>222222221,+OXXOXXXoX .XXXXXXXXXXXoo:><11242244444444,,",
"++2222222211211121112111111111111111111111111111XXXXXXooOO++++++++::::::>>1222122221<,>:.     o+:::::::::::>,,<132224224444444,,",
"++2222212211121112112211111111111111111111111111XXXXXXXXXXXXXooOO++++::::>112221222211<<......:,<<<<<<<<<1<<122224222422444444,,",
"++222222122111211111111111111111111111111111111111111111111111211121112111222222222222211,,,,,,1111111111122224222422442244444,,",
"++2222222122111211111111111111111111111111111111111111111111111211121112111222222222222222111122222222222222222422242244224444,,",
"++2222222211211121112111211111111111111111111111111111111111111121112111211122122212222222222222222222222222422242224224422444,,",
"++2222212221121112112211121111111111111111111111111111111111111112111211121112112221222222222222222222222222242224222422442244,,",
"++2222221222112111211111111111111111111111111111111111111111111111211121112111222222222222222222222222222222222222422242244224,,",
"++2222222122111211121111111111111111111111111111111111111111111111121112111211122222222222222222222222222222222222242224224422,,",
"++222**122112111211121112111111111111111111111111111111111111111211121112111211122122212222222222222222222222222422242222ss442,,",
"++22*ss*1221121112111211221111111111111111111111111111111111111112111211121112111211222122222222222222222222222224222422skg*44,,",
"++42*s*%1222112111211111111111111111111111111111111111111111111111111121112111211122222222222222222222222222222222222222sgs%14,,",
"++241*%,12222112111211111111111111111111111111111111111111111111111111121112111211122222222222222222222222222222222222222*%,12,,",
"++2221112212221121112111211121111111111111111111111111111111111111112111211121112111221222122222222222222222222222224222211122,,",
"++2222222221221112111211221112111111111111111111111111111111111111111211121112111211121122212222222222222222222222222422222222,,",
"++4222222222122111211121111111111111111111111111111111111111111111111121112111211121112222222222222222222222222222222222222222,,",
"++2422222222212211121112111111111111111111111111111111111111111111111112111211121112111222222222222222222222222222222222222222,,",
"++2222222212221121112111211121111111111111111111111111111111111111112111211121112111211222122212222222222222222222222222222222,,",
"++2222222221222112111211121112111111111111111111111111111111111111111211121112111211121122112221222222222222222222222222222222,,",
"++4222222222122211211121111111111111111111111111111111111111111111111111112111211121112112222222222222222222222222222222222222,,",
"++2422222222212211121112111111111111111111111111111111111111111111111111111211121112111211222222222222222222222222222222222222,,",
"++2222222212221121112111211121112111111111111111111111111111111111111111211121112111211121122212221222222222222222222222222222>>",
"++2222222221222112111211121122111211111111111111111111111111111111111111121112111211121112112211222122222222222222222222222222>>",
"++422**122221222112111211121111111111111111111111111111111111111111111111111112111211121112112222222222222222222222222222ss222>>",
"++24*ss*1222212221121112111211111111111111111111111111111111111111111111111111121112111211121122222222222222222222222222skg*22>>",
"++22*s*%1222221122112111211121112111111111111111111111111111111111111111211121112111211121112112221222122222222222222222sgs%12>>",
"++221*%,12222221121112111211121112111111111111111111111111111111111111111211121112111211121112112211222122222222222222222*%,12>>",
"++4221112222222211211121112111111111111111111111111111111111111111111111111111211121112111211121122222222222222222222222211122>>",
"++2422222222222221121112111211111111111111111111111111111111111111111111111111121112111211121122112222222222222222222222222222>>",
"++2242222222221222112111211121112111111111111111111111111111111111111111211121112111211121112112211222122212222222222222222222>>",
"++4224222222222122211211121112111211111111111111111111111111111111111111121112111211121112111211221122112221222222222222222222>>",
"++4422422222222212211121112111111111111111111111111111111111111111111111111111111121112111211121122112222222222222222222222222>>",
"++4442242222222221221112111211111111111111111111111111111111111111111111111111111112111211121112112211222222222222222222222222>>",
"++4424224222221222112111211121112111211111111111111111111111111111111111111121112111211121112111211221122212221222222222222222>>",
"++4422422422222122211211121112112211121111111111111111111111111111111111111112111211121112111211121122112211222122222222222222>>",
"++4442242222222212221121112111211111111111111111111111111111111111111111111111111111112111211121112112221222222222222222222222>>",
"++4424224222222221222112111211121111111111111111111111111111111111111111111111111111111211121112111211222222222222222222222222>>",
"++442**124222212221122112111211121112111111111111111111111111111111111111111111121112111211121112111211222122212221222222ss222>>",
"++44*ss*1422222122211211121112111211121111111111111111111111111111111111111111111211121112111211121112112211222122212222sgs*22>>",
"++44*s*%1222222222221121112111211111111111111111111111111111111111111111111111111111111111211121112111211222222222222222ss*%12>>",
"++441*%,12222222222221121112111211111111111111111111111111111111111111111111111111111111111211121112111211222222222222222*%,12>>",
"++4421112422222222122211211121112111211121111111111111111111111111111111111111112111211121112111211121122112221222122212211122>>",
"++4442222442222222212221121112111211121112111111111111111111111111111111111111111211121112111211121112112211221122212221222222>>",
"++4444422444222222222221112111211121111111111111111111111111111111111111111111111111111111111121112111211221122222222222222222>>",
"++4444442244222222222222111211121112111111111111111111111111111111111111111111111111111111111112111211121122112222222222222222>>",
"++++++++++++++++++++++++++++++++++++++++++++++++++++++++++++++++++++++++++++++++++++++++++++++++++++++++++++++++++++++++++++++++",
"++++++++++++++++++++++++++++++++++++++++++++++++++++++++++++++++++++++++++++++++++++++++++++++++++++++++++++++++++++++++++++++++"
};
