/* XPM */
static char *result[] = {
/* columns rows colors chars-per-pixel */
"128 128 46 1 ",
"  c #232323",
". c gray23",
"X c #4B3B1B",
"o c #434300",
"O c #4F4F00",
"+ c #5F5F00",
"@ c #6B6B00",
"# c #777700",
"$ c #5F4323",
"% c #6F4B27",
"& c #774F2B",
"* c #004343",
"= c #005B5B",
"- c #007373",
"; c #434343",
": c #4B4B4B",
"> c gray34",
", c #5B5B5B",
"< c #676767",
"1 c gray45",
"2 c #7B7B7B",
"3 c gray50",
"4 c #9F4F00",
"5 c #AB5700",
"6 c #B75700",
"7 c #83532F",
"8 c #CF6300",
"9 c #E76F00",
"0 c #FF7B00",
"q c #878700",
"w c #939300",
"e c #9F9F00",
"r c #AFAF00",
"t c #BBBB00",
"y c #C7C700",
"u c #D7D700",
"i c #008787",
"p c #009F9F",
"a c #00B7B7",
"s c #00CFCF",
"d c #00E7E7",
"f c gray56",
"g c #9B9B9B",
"h c gray67",
"j c #B7B7B7",
"k c #C3C3C3",
/* pixels */
".....................................................                                                                           ",
" 3333333333333333333333333333333111111111<<<<<<<<>>>>>>>>>>>>>>>>>>>>>>>>>>>>>>>>:::::::::::::::::::::::::::::::::::::::::::::: ",
" 3kjjjkkjjjjhhjjjjhhhhhjjjhhhhggghhhhggggggggggffffggggffffffffff33333ff3333133133111111111111<<1<11<<<<<<<<<<<>>>>>>>>>>>>>>>: ",
" 3kkjjjjjjjjhjjhjjhhhhhhhhhhhhghhghggggggggggggffgffgffffff33ffff33f33f3333311113331111111111<<<<<111<<<<<><<<<>>>>><<<>>>>::>: ",
" 3kkjjjjjjjjjjjhhhhhjjhhhhhhhhhhgggggggggggggggfggfffffffffff33ff3ff33333333333111113311111111<11<<<<<<<<>><><<<>><>>>>>>>>:>>: ",
" 3kjjjjjjjhjjjjhjjhhjhhhhhghghhhhggggghgggggffgfgggffffffffff3333ffff3333333333111113131111<<<111<<<<<<<<<<<>>>><<<>>>>>>>>>>>: ",
" 3jjgppkjjjhhjjhjjhhhhhhhhhhhgghhghhgggggggggggfffffffffffffff3ff33333333113333131111111111<<1<1<<<<<<<<<<<<><<>><>>>>>::==>>>: ",
" 3jgiadpjjjhhhjjjjjhhhhhhhhhhggggghhhggggggggggfffffgffffff3fffff3333333333311111331111111111<<<<<<<1<<<<<<<><<>>>>>>>>:==-=>>: ",
" 3jg-iapjjjjhjjhhhhhhhhhghhhhghhhggggggggffgggffgggfffffff3f3fff33f333333333131113111111<<1111<<<<<1<<<<<>><<<<<>>>>>>>:*===::: ",
" 3jg3-igjjjjjjjhhhhhjjhhhhgghghhhggggggggggfffffgggffffffffff333333ff333113313311111111<11<<1<<11<<<<<<<<><<>>>>>>>>>>>::*=:>>: ",
" 3jkgggjjhhhjjjhjhhhhhhhhhghhhhhhgggggggggggfgffggfffff33fffff3333f33333311333331111111111<<<<111<<<<<<<<<<>>>>>><<>>>>>:::>>:: ",
" 3jjjjjjjjjjhhjhjjjhhhhhhhhhhggggggggfgggggffggffffffff3ff3ff3fff3333333313311113311111111<11<<<<<<<<>>><<<<>><>>>>>>>>:>>>>>>: ",
" 3jjjjjjjjjjhhhhjhhhhhhhghhhhhgggghggggggfffgggffffffffff33333fff33333333331111113311111<1<11<<<<<<<<<<<>>><><<>>>>>>>>>>>::::: ",
" 3jjjjjhjjjjhjjjhhhhhhhghhghhghhggggggggggggfgffffffffffff3ff33333333113333311111111111<<1<111<<<<<<<<<<>><>><><>>>>::>>>>::::: ",
" 3jkjjjjjhhjhjjjhhhhhhhhhgggggghhggggggggggffffffggffff3fffff33333333333111113311111111111<<<<<<<<<<<<<<>><<>>>>>>>>:>>:>>:>>>: ",
" 3jjjjjjjhjjjjjhhhhhhgghhhghhgghgggggffgggggffgffffffff33f3f3f33333333331111131111111<1111<<<<<1<<<<<<>>><<<>>>>>>>>>>:::::>>>: ",
" 3jjjjjjjhjjhhhhhhhjhhhgggghhgggggggggggffffgggfffffffffff33333ff333313313331111111<111<11<11<<<<<<<<><<<><>>>>>>>>>>>>:>>::>:: ",
" 3jjjjhhjjjjjhhhhhhhhhhhgghhggggggggggggffffggffffff33ffff33333f3333311113331111111111<<<<<111<<<<<<<<<<>>>>>>><>>>>:>>:>>::::: ",
" 3jjjjhjjhjjhjjhhhhhhhhhhhhggggggfggggggfggffffffff3fff3ff3ff33333333133113113111111111<11<<<<<<<<>><<<<<>><>>>>>>>>::>>>>::::: ",
" 3jjjjjjhhhhhhjjhhhhhhhhhhggggghgggggffgfgggffffffffff33333fff3333333333111113331111<1<111<<<<<<<<><<>><><<<>>>>>>>>>>>::::>>>: ",
" 3jhgppjjhjjhhhhhhhhgghghhhggggggggggfggfgfffffffffffff3f333333333313333111111111111<<1111<<<<<<<<<<>>>>><<<>>>>>:>>>>>::==:>>: ",
" 3jg-adphhjjhhhhhhhhhhhggggghhggggggggggfffffggfffff3fffff3333333333311313311111111111<<<<<<<<<<<<<<<><<>>>>>>>>:>>:>>>:=--=::: ",
" 3jg-iapjhjhhhhhhhghhhhggggghgggggggfgggfffffffffff333ffff3333333333113111331111111111<<<<<<11<<<<>>>><<<>>>>>>>>>>::::.*=-=::: ",
" 3jg3--gjhhhhhhjhhghghhghhggggggggfgggfffggfffffffffff33333ff3333133313311111111<11<111<<1<<<<<<<<><<><>>>>>>>>>>>>>:>:..*=:::: ",
" 3jhgggjjhhhhhjhhhhhgggghhhggggggggggffffgggffff33ffff33333fff333311133311111111111<<<<111<<<<<<<<<<<>>>>>><>>>>>>>:>>::..::::: ",
" 3hjjhhjjhjhhhhhhhhhghhggggggggfggggggfggfffffff33f3ff333f3333333313313113111111111<<1<<1<<<<<<<><<<<>><>><>>>>>:::>>>>:::::::: ",
" 3jjjhhhhhjjjhhhhhhhhhhggggghggfgggfgfgggffffffffff3333fff3333333333111111331111111<11<<<<<<<<<<<>><<><<>>>>>>>>>>>:::::>>::>:: ",
" 3jjjhhjhhhhhhhhhhghhhhgggggggggggfffggggffffffffff3f333f33333111333311111311111<<1<111<<<<<<<<<<>>>><<<<>>>>:>>>>>:::::>:>:>>: ",
" 3hhjhjjhhhhhhhhhhhggghghhgggggggggggffffffffffffff3ff33333333133113313111111111<11<<<<<<<<<<<<<<<><<>>>>>>>>::>>>>:>:>:::::::: ",
" 3hhhjjjjhhhhhhhhhhgghggghhgggggfggggfffffgggffff33ffff3333333333111113331111111111<<<<<11<<<<<><><<<>>>>>>>>>>>::>:>>>:::::::: ",
" 3hjjhhhhhhhhhhhghhhghhggggggggfggfgffffgffffffff3ff333ff3333333313331111111<<<1111<111<<<<<<<><><<<<>>>>>>>>>>>:>::>>::::::::: ",
" 3jjjhhhhhjhhhhhhggghhhgggggggggggffffgggffffffffff33333ff333311313311111111111<<<1<111<<<<<<<<<<>>>>>>><>>>>>>>:>>::::::::::<: ",
" 3hjjhjhhhhhhhhhgghhghggggggggggggfggffgfffff333ffff33f3333333133133311111111111<1<<111<<<<<><<<<<>>>><>>>>>>::>>>>>::::::::::: ",
" 3hhhhhjjhhhhhhhhhhggggggggfggggggfggfffffffffff33ff3ff333333333311111331111111<<11<<<<<<<<><<><<><<<>>>>>>>>:>>:>::>>::::::::: ",
" 3hjgipghhhhhgghhhhhgggggggggggffgggggffffffffff3333ffff333333333111113111111<<<111<<<<<<<<<<>>>>><<<>>>>>>>>>>::::::>>::==:::: ",
" 3hg-asphhhhhghhgghgghgggggggggfggffffffffffffff3fff3333333111333131111111111111<1<<<<<<<<<<<<><<>><>>>>>::>>>>>::>:::::=--=::: ",
" 3jf=iaihhhhhhhhggggghhgggggggggggfffffggfffff3fffff333333333311111331111111111<<<<<<<1<<<<><<><<>>>>>>>>>>>::>::>>::::.*=-=::: ",
" 3hf3=-ghhhghhhhghhhgggggggfgfggggfggffffffff3ff3fff3f3333333331311111111<<11111<<1<<<<<<<<>><<<><>>>>>>>>>>::::>>:::::..*=:::: ",
" 3hhfffjjhhhhgghghhgggggggggggfffffgggffffffffff33333fff33313311331111111111<<1<111<<<<<<<<<<<>>>>>><>>>>>>>:>>>::::::::..::::: ",
" 3hhhhhhhhhhhghhghhhgggggggggggfgffgffffff33fffff3333f3333331113331111111111<<<<111<<<<<<<<<<<>>>>><>>>>>::>>>>>::::::::::>>>:: ",
" 3hjjhhhhhhhhhhhggggggggfgggggfgggffffffff3ff3ff3ff3333333333331311331111111<11<<<<<<<<><<<<<<><<>>>>>>>>:>>:>>::>::::::::::>:: ",
" 1hjhhhhhhhghhhhggggghggggggfffgggffffffffff33333fff3333333333111111331111<1<111<<<<<<<<<<>>>><<<<>>>>>>>>>>:::::>>>:>>:::::::: ",
" 1hhhhhhhghhhghhghhgggggggggggffgffffffffffff3ff33333333113333311111111111<<1<<1<<<<<<<<<<<><>><>>>>>>::>>>>:::::>::>:::::::::: ",
" 1hhhhhhhhhhgggggghhggggggggggfffffffgffff3fffff33333333333113113311111111111<<<<11<<<<<<<><<<>>>>>>>>>>>:>>:>>:::::::::::::>:: ",
" 1hhhhhghhhhhghhggggggggffgggggffgffffffff33fff3333333333331111131111111<1111<<<<<<<<<<>>>><<<>>>>>>>>>>:::::>>>:::::::::::>>:: ",
" 1hjjjhhhgghghhhgggggggggggffffgggfffffffffff33333ff333333313311111111<111<11<11<<<<<<<<<<>><>>>>>>>>>>>>:>>:::::::::::::::>::: ",
" 1hhhhhhhhgghhhhgggggggggggfgffgggffff33fffff33333f3333311313331111111111<<<<1111<<<<<<<<<>>>>><><>>>>:>>>>>:::::::::::>>:::::: ",
" 1hhhhhhhhhhggggggggfggggggfggffffffff3ff3fff3ff33333333133131113111111111<1<<<<<<<<<<><<<>>><>>>>>>>>::>:>::>::::::::::>>::::: ",
" 1hhgipghhhhhgggghhgggggfffggggffffffffff3333ffff3333333333111113311111<1<111<<<<<<<<<<<>>><<<>>>>>>>>>>::::::>>:>>::::::==:>>: ",
" 1hg-asphghhhghgggggggggfggfgffffffffffff33f33f33333331333311111111111<<<1111<<<<<<<<<<>>>>><>>>>>:::>>>>:::::>::>::::::=--=>:: ",
" 1hf=iaihggggghhgggggggggggfffffggffffffffff33333333333113313311111111111<<<<<<<<<<<<<<<><<>>>>>>>:>>::>>:>>:::::::::::.*=-=::: ",
" 1hf3=-ghghhgghgggggfgfggggffgffgfffff33fffff33333333331111113311111<1111<<<<<1<1<<<<>>><<<>>>>>>>>>>::::>>>>::::::::::..*=:::: ",
" 1hhfffhhghhgggggggggggffgffggfffffffffff33333ff3333333313311111111<<1<11<<<1<<<<<<<<><<><>>>>>>>>>>>:>>::::::::::::::::..::>:: ",
" 1hhhhgghhhhhggggggggggffffggfgffff3fffff33333f33333111133311111111111<<<<111<<<<<<<<<<>>>>>>><>>>>>>>>>:::::::::::>>::::::>>>: ",
" 1hhhhhhhggggggggfgggggffggffffffff33ffff3fff3333333111313113111111111<1<<<1<<<<<>>><<<<>><>><>>>>>::>>>>:::::::::::>>::::>>>>: ",
" <hhhhhhhggggghggggggfgfgggffffffffff333f3fff3333333333111111331111<11<11<<<<<<<<><<>><<><<>>>>>>>>:>>::::>>::>:::::::>>>>>::>: ",
" <ggghhhhghgggggggggfgggggffffffffffff3f33ff33333313333311111111111<<11111<<<<<<<<<<>>>><<<<>>>>:>>>>>::::>::>>>:::::::>>:>>:>: ",
" <hhhggghgghhggggggggggfffffffgfffffff3ff33333333133113133111111111<11<<<<<<<<<<<<<<><<<>>>>>>>:::>>>>:>>>:::::::::>>>::>:>>>>: ",
" >hhhhghgghgggggggfgggggffffgffffff33fffff333333333311111331111111111<<<<<<11<<<<<><><<>>>>>>>>>>>:::>:>>>:::::::::>>>:>:::>>>: ",
" >ghhghhhggggggggfggfgffgggfffffffffff3333ff3333333313311111111<<<1111<<1<<<<<<<<><<><<<>>>>>>>>>>>:>::>>>:::::::::>:::>>:>::>: ",
" >hggghhhggggggggggfffffgggffffffffff333333ff333111313311111111111<<<<<11<<<<<<<<<<<>>>>>>>>>>>>>>::>>:::::::::>>>:::::>>>>::>: ",
" >hhhhghgggggfggggggfggffgfffff33f3fff33f3333333311313331111111111<<1<<1<<<<<<<><<<<>>>>><>>>>>>::>>>>::::::::::>>::>::>>>>>>>: ",
" >hhgiigggghgggggfgffggfffffffffff3333fff3333333333311111331111111<111<<<<<<<>><<><<><<>>>>>>>>>>>>:>::>>::::::::::>>>>::==>>>: ",
" >hg-paigggggggggffgggffffffffffff33333f333333313333111113111111<<<111<<<<<<<<<<>>>>><<<>>>>>>>>>>::::::>>:>:::::::>>>>:=-i=><: ",
" >g3=ipihgggggggggggffffffgfffffff3ff33333333133313313111111111<11<<1<<<<<<<<<<<<><<>>>>>>>>::>>>>>::>:::::::::>:>::>:>:*=-=>>: ",
" >gf3=-3ggggggggggggfffffgfffff333ffff3333333333111111331111111111<<<<<1<1<<<<><>><<>>>>>>>>>>>::>:>>>::::::::::>>:>::::.*=>>>: ",
" >ghf33ggggggfggfggffggffffffff3ff33333f33333333313311111111<<11111<<1<<<<<<<<>><<<<>>>>>>>>>>>::::>>>::::::::::>>:>>>>::::>>>: ",
" >ghhhggggggggggffffggggffff3fffff33333fff333113133311111111111<<1<11<<<<<<<<<<<<>>>>>><>>>>>>>:>>::::::::::>>:::::>>>>>:>>>>>: ",
" >ghgggggggggggggfgfffffffff33ffff3333333333331133331111111111<<1<<111<<<<<<<<<<<>>>>><<>>>>::>>>>>::::::::::>:::::>>>>>>>>>>>: ",
" >ggggghggggggfgfggffffffffffff33f3ff33333333333111113311111111<11<<<<<<<<><<><<<><<>>>>>>>>:>>:>:::>::::::::::>>>>>::>>>>>>>>: ",
" >ggggghgggggfffggggffffffffff33333fff3333313333111113331111<<<111<<<<<<<<<<<>>>><<<<>>>>>>>>>>:::::>>::::::::::>>:>>>>>>><<>>: ",
" >ghhgggggggggggfffffffffffffff3ff33333333133133111111111111<11<1<<<<<<<<<<<<>><>><>>>>>>::>>>>:::::>::::::::>::>::>>>>>>>>>>>: ",
" >ghhhgggggfggggfffffgffffff33ffff3333333333311111331111111111<<<<<<<1<<<<<<<><<>>>>>>>>>>>::>>:>>::::::::::>>>::::>>>>>>>>>><: ",
" >ggggggggffgfgffgfgfffffff333f3f33f33333333313311311111<1<1111<<1<<1<<<<<>><><<<>>>>>>>>>>::::>>>>:::::::::>::>>>:>>:>>>>>>>>: ",
" >ggggggggggfffffgggffffffffff333333ff333113313311111111<11<<11<11<<<<<<<<<<<>>>>>>>>>>>>>>>:>>:::::::::>>::::::>>>>:>>>>>><>>: ",
" >gggggggggggfgfffgfffff33fffff33f33f3333311333331111111111<<<<1111<<<<<<<<<<>>>>><<>>>>>:>>>>>::::::>:::>>::::>>>>>>>>>>><<<>: ",
" >ggfiiggg88888qeeeerreq88888888888888888888888888888888888qwwwweeeq88866666666444777&&&&&&&&&&&&&&&&&&&&@@@#####q44664>>-->><: ",
" >gf-paig889000etttyyuye00000000000000000099009990999999999errrrttte9888888688668666444444444444444444444###qqqwee668864=-i->>: ",
" >g3=ipig768888qeeeerreq99999999999999998888888888888888888qwwwweeeq6666666644444444444444444444444444444@@@####qq666667==--><: ",
" >g31=-fg746666+#######+66666666555555555555444444444444444+@@@@##@+4444444444444444777777&&&&&&&&&&&&&&&++++@##@+&&&&47:==<<<: ",
" >gg333fg<%%%%%O++@#@++O%%%%%%%%%%%%%%%%$$$$$$$$$$$$$$$$$$$OO+@#@+OO$$$$$$$$$$$$$$$$$$$$$$$$$$$$$$$$$$$$$OO+@#@+OO$$$$$>:::<><: ",
" >gggggggf<$$$$OO++@++OO$$$$$$$$$$$$$$$$$$$$XXXXXXXXXXXXXXXOO+++++OOXXXXXXXXXXXXXXXXXXXXXXXXXXXXXXXXXXXXXOO+++++OOXXXX><<>><><: ",
" >gggggggffgffgff+OOO+3ffff33333f3333331113331111111111<<<<<1OoooO<<<<<<<>>>>>><<>>>>:>>>>>::::::::::>>::::OoooO>>>>>><<<>>>>>: ",
" >ffgggggfgggfffff@O@fff3ff3ff33333333133113113311111111<11<<1@o@<<>><<<<<>><>>>>>>>>::>>>>>::::::::::::>>>>+o+>>>>>>><><><<><: ",
" >ggggf2<<111<<<qw#O#wq,,,,,<<<,,,,,,,,,,>>>>>>,,>>>>:>::>>:#q#o#q#:::;;:;:::;;;;;;;;;;;.....;;.........;;@#@o#q#><<<>>>>><<<<: ",
" >gggg211<<1<<<<@+OOO+@<,<<,,,,,,,,>>,,,,,>>>>>>>>>>>::>>>>:@+OoO+@:::;;;;::;;;;;;.;;;;;.....;......;.;..;++OoO+@>>>>>><>><<<<: ",
" >gggg111<<<<<1<O+OOO+O<<<<,,,,,,,,,,,>>,>,,,>>>>>>>>>>>::::OOoooOO:::;::;;;;;;;;.;;;;;;.;;.........;;;.;.OOoooOO>>>>><<<>>>><: ",
" >gffg111<<<1<<<<OOOOO,<<<<,,,,,,,,,,,>>>>>,,>>>>>>>>>>>:::::ooooo:;;:;:::;;;;;;;;;;.....;;;........;;;.;;:ooooo;;>>>><<<><><<: ",
" >gggg<<<<11<<<<<<<<<<<,,,,,<<<,,,,,,,>,,>>>>>>>>:>>:>>>:>>::::::::;::;:;;;;;;;;;;;;;.;..;.......;;.....;;;;..;;;;>><>><><<<<<: ",
" >gggff1<<111<<<<,,<<<<,,,,,,<<,,,,>>>>,,,>>>>>>>>>>::::>>>>::::::::::;;;;;:::;;;;;;;;;;......;..;;.....;;;;;;;;;><<<><>>><<<<: ",
" >gg3iig311111111111111<<<<<<<<<<<<,<<,<,,,<,,,,,,,>>:>::>:::::::;::::;;;;;:;;;;;...;;;;............;;;;...;;;;;>>><<><<<--<><: ",
" >g3-paigfffffffffff3333ffff333333333311111331111111<11<<<<<<<<<<<<><<><<>>>>>>>>>>>:::::>>::::::::::>>>>:>>>>><<>>>>><>-ii-<<: ",
" >g1=ipiffffffffffff3ff33f33333131333311111311111<<<<111<<<<<<<<<<>>>><<<<>>>>:>>>>>:::::>>>::::::>::>:>>>>>>>>>>>>>>><>=-i-<<: ",
" >g31=-3ffffgfffffff3ff33333333333113313311111111111<<<<<<<<<<<<<<<><<>>>>>>>>::>:>>:::>:::::::::>>>::::>>>>>>>>>><<<><>>=-<<<: ",
" >gg311fgffgfffff33fffff3333333333111113331111111111<<<<<1<<<<<<><><<<>>>>>>>>>>>::::>>>:::::::::>>:>>>>>>:>>>>>>>><<><<>>><<1: ",
" >fffffggfffffffffff3333fff3333333113311111111<<1111<1<1<<<<<<<>>><<<>>>>>>>>>>>>:>:::>::::::>>:::::>>>>>:>>>>>><>><>><<<<<<<<: ",
" >ffffgggfffff3fffff33333ff333311313331111111111<<<1<111<<<<<<<<<<>>>>>>><>>>>>>>:>>::::::::::>>::::>>>>>>>>>>><<<>>>><<<<<<<<: ",
" >fgggfffffff333ffff3ff33333333133333113111111111<1<<11<<<<<<><<<<<>>>>>>>>>>>::>>>>>:::::::::::>>>>>::>>>>>>>><>><<<><<><<<<<: ",
" >fgggffffffffff333f3fff3333333333111111331111111<11<<<<<<<<><<><<>><<>>>>>>>>:>>::::>>::::::::::>>:>>>>>>><<>>>>><<<<<<<<<<<<: ",
" >fgggfffffffffff3f33f3f3333313333311113111111<<<1111<<<<<<<<<<>>>><<<>>>>>:>>>>::::::>>::::::>::>>:>>>>>>>>>>>>>><<<<<<<<<<<1: ",
" >fffffffgffffff33ff33333333133133133111111111<11<1<<<<<<<<<<<<><<>>>>>>>>:::>>>>::>:::::::::>>>::::>>>>>>>>>><<<<<>><<<<<<<<1: ",
" >gffffgffffff33ffff3333333333111111331111111111<<<<<<11<<<<>><><<>>>>>>>>>>>:::>:>>:::::::::>::>>>:>>:>>>>>>>><<><<><<<<11<<<: ",
" >fggffffffffffff3f33ff3333333313311311111<<11111<<1<<<<<<<<>><><<<>>>>>>>>>>:::::>:>::::>>::::::>>>>::>>>>><>><<><<<<<<<<<<<<: ",
" >fgggffff3fffff333333ff333113313311111111111<<1<111<<<<<<<<<<<>>>>>>>>>>>>>>:>>>:::::::::>>::::>>>>>>>>>>><<<>>>><<<<<<<<<<<1: ",
" >ff3iifff33fffff33f3333333311333131111111111<<<<11<<<<<<<><<<<>>>>><>>>>>>::>>>>::::::::::::>>>>::>>>>>>>><>>><<><<><<<<--<<1: ",
" >f3-paifffff33f3fff3333333333311111331111111<111<<<<<<<><><><<><<>>>>>>>>:>>::>::>::::::::::>>:>>:>>>><<<>>>>><<<<><<<>-ii-<<: ",
" >f1=ipifffff3333ff33333333333311111311111<<1<111<<<<<<<<<<>>>>><<<>>>>:>>>>>::::::>>:::::>:::>:>>>>>>>>>>>>>>><<<<<<<<>=-i-<<: ",
" >f31=-3fffff3ff33333333133133313111111111<11<<1<<<<<<<<<<<<><>>>>>>>>>::>>>>>::>::::::::>>>:::::>>>>>>>>>><<<<>><<<<<<>>=-1<1: ",
" >ff313fff33fffff3333333333111111331111111111<<<<<111<<<<><><<<>>>>>>>>:>>::>:>>:::::::::>:>:>>:>>:>>>>>>>><<<><><<<<111>>><<1: ",
" >ffffffff3ff3f333f333333333131131111111<1111<<<<<<<<<<<<>><<<<>>>>>>>>>>:::::>>>::::>:>:::::>>>>::>>>>>><>><><<<<<<<<<<<<<<<1: ",
" >gffffffffff33333ff3333133133111111111111<<1<11<<<<<<<<<<<>>>>>>>>>>>>>>>:>>:::::::::>>:::::>>>>>>>>>><<<>>>>><<<<<<<<<<1111<: ",
" >fffff33ffff33f33f3333311113331111111111<<<<<111<<<<<><<<<>>>>><<<>>>>::>>>>::::::::::::>>>>:>:>>>>>>><<<><<><<>><<<<<<<111<1: ",
" :fffffff33ff3ff33333333333111113311111111<11<<<<<<<<>><><<<>><>>>>>>>>:>>:>::>::::::::::>>>>>:>>>>><<>>>>><<<<><<<<<<<1<<1<11: ",
" :fffffff3333ffff3333333333111113131111<<<111<<<<<<<<<<<>>>><<<>>>>>>>>>>>:::::>>::::::>::>:>>>>>>>>>>>>>>><<<<<<<<<<111<<<<<1: ",
" :ffffffff3ff33333333113333131111111111<<1<1<<<<<<<<<<<<><<>><>>>>>:::>>>>::>::>:::::>>>:::::>>>>>>>>>><<<><>><<<<<<<<11<1111<: ",
" :fffff3fffff3333333333311111331111111111<<<<<<<1<<<<<<<><<>>>>>>>>:>>::>>:>>:::::::::>>:>>:>>>:>>>>>>>><<><><<<<<11<<<<<1111<: ",
" :ffff3f3fff33f333333333131113111111<<1111<<<<<1<<<<<>><<<<<>>>>>>>>>>::::>>>>::::>>:::::>>>>::>>>>>><>><><<<<<<<<<<<<<<<11111: ",
" :fffffff333333ff333113313311111111<11<<1<<11<<<<<<<<><<>>>>>>>>>>>>>>::>>::::::::>>>::::>>>>>>>>>><<<<>>>><<<<<<<<<<11111<<11: ",
" :f33iifff3333f33333311333331111111111<<<<111<<<<<<<<<<>>>>>><<>>>>>:>>>>::::::::::::>>>>>::>>>>>>>><<><<<><<><<<<<<<<11<--111: ",
" :f1-ipif3fff3333333313311113311111111<11<<<<<<<<>>><<<<>><>>>>>>>>:>>>>>>::::::::::::>>>>:>>>>><<>>>>><<<<><<<<<<<1<<1<-ii-11: ",
" :f1=-ii33fff33333333331111113311111<1<11<<<<<<<<<<<>>><><<>>>>>>>>>>>:::::>>>:::::>::>>:>>>>>>>>>>>>>><<<<<<<<<<<111<<<=-i-11: ",
" :f11=-3f33333333113333311111111111<<1<111<<<<<<<<<<>><>><><>>>>::>>>>:::::>::::::>>>::::>>>>>>>>>><<<<<>><<<<<<<<1<<11<>=-<11: ",
" :f3111ff33333333333111113311111111111<<<<<<<<<<<<<<>><<>>>>>>>>:>>:>>:>>>::::::::>>:>>>:>>:>>>>>>>><<><<><<<<11<<<<<111<<<111: ",
" :f33f3f3f33333333331111131111111<1111<<<<<1<<<<<<>>><<<>>>>>>>>>>:::::>>>::::>>:::::>>>>>::>>>>><>><<><<<<<<<<<<<<<<111111111: ",
" :ffff33333ff333313313331111111<111<11<11<<<<<<<<><<<><>>>>>>>>>>>>:>>::>::::::>>::::>>>>>>>>>>><<<>>>><<<<<<<<<<11111<<111111: ",
" :ffff33333f3333311113331111111111<<<<<111<<<<<<<<<<>>>>>>><>>>>:>>:>>:::::::::::>>>>>::>>>>>>>><>><<<><<><<<<<<<<11<11<111133: ",
" :::::::::::::::::::::::::::::::::::::::::::::::::::::::::::::::::::::::::::::::::::::::::::::::::::::::::::::::::::::::::::::: ",
"                                                                                                                                "
};
