/* XPM */
static char *_0870_859789f71fc3fc0bb8d09b95d598be3292e2300bf4a9ecb79a8d4151fdff684a[] = {
/* columns rows colors chars-per-pixel */
"100 100 9 1 ",
"  c #464646",
". c #990030",
"X c #9C5A3C",
"o c #FF7E00",
"O c #931445",
"+ c #8E2556",
"@ c #22B14C",
"# c #6F3198",
"$ c #FFF9BD",
/* pixels */
"XXXXXXXXXXXXXXXXXXXXXXXXXXXXXXXXXXXXXXXXXXXXXXXXXXXXXXXXXXXXXXXXXXXXXXXXXXXXXXXXXXXXXXXXXXXXXXXXXXXX",
"XXXXXXXXXXXXXXXXXXXXXXXXXXXXXXXXXXXXXXXXXXXXXXXXXXXXXXXXXXXXXXXXXXXXXXXXXXXXXXXXXXXXXXXXXXXXXXXXXXXX",
"XXXXXXXXXXXXXXXXXXXXXXXXXXXXXXXXXXXXXXXXXXXXXXXXXXXXXXXXXXXXXXXXXXXXXXXXXXXXXXXXXXXXXXXXXXXXXXXXXXXX",
"XXXXXXXXXXXXXXXXXXXXXXXXXXXXXXXXXXXXXXXXXXXXXXXXXXXXXXXXXXXXXXXXXXXXXXXXXXXXXXXXXXXXXXXXXXXXXXXXXXXX",
"XX                                             XX                                                 XX",
"XX @@@@@@@@@@@@@@@@@@@@@@@@@@@@@@@@@@@@@@@@@@@ XX @@@@@@@@@@@@@@@@@@@@@@@@@@@@@@@@@@@@@@@@@@@@@@@ XX",
"XX @@@@@@@@@@@@@@@@@@@@@@@@@@@@@@@@@@@@@@@@@@@ XX @@@@@@@@@@@@@@@@@@@@@@@o@@@@@@@@@@@@@@@@@@@@@@@ XX",
"XX @@@@@@@@@@@@@@@@@@@@@o@@@@@@@@@@@@@@@@@@@@@ XX @@@@@@@@@@@@@@@@@@@@@@ooo@@@@@@@@@@@@@@@@@@@@@@ XX",
"XX @@@@@@@@@@@@@@@@@@@@ooo@@@@@@@@@@@@@@@@@@@@ XX @@@@@@@@@@@@@@@@@@@@@ooooo@@@@@@@@@@@@@@@@@@@@@ XX",
"XX @@@@@@@@@@@@@@@@@@@ooooo@@@@@@@@@@@@@@@@@@@ XX @@@@@@@@@@@@@@@@@@@@@o@o@o@@@@@@@@@@@@@@@@@@@@@ XX",
"XX @@@@@@@@@@@@@@@@@@@o@o@o@@@@@@@@@@@@@@@@@@@ XX @@@@@@@@@@@@@@@@@@@@@@@o@@@@@@@@@@@@@@@@@@@@@@@ XX",
"XX @@@@@@@@@@@@@@@@@@@@@o@@@@@@@@@@@@@@@@@@@@@ XX @@@@@@@@@@@@@@@@@@@@@@@o@@@@@@@@@@@@@@@@@@@@@@@ XX",
"XX @@@@@@@@@@@@@@@@@@@@@o@@@@@@@@@@@@@@@@@@@@@ XX @@@@@@@@@@@@@@@@@@@@@@@o@@@@@@@@@@@@@@@@@@@@@@@ XX",
"XX @@@@@@@@@@@@@@@@@@@@@o@@@@@@@@@@@@@@@@@@@@@ XX @@@@@@@@@@@@@@@@@@@@@@@@@@@@@@@@@@@@@@@@@@@@@@@ XX",
"XX @@@@@@@@@@@@@@@@@@@@@@@@@@@@@@@@@@@@@@@@@@@ XX @@@@@@@@@@@@@@@@@@....O......@@@@@@@@@@@@@@@@@@ XX",
"XX @@@@@@@@@@@@@@@@@.........@@@@@@@@@@@@@@@@@ XX @@@@@@@@@@@@@@@@@@.....o.....@@@@@@@@@@@@@@@@@@ XX",
"XX @@@@@@@@@@@@@@@@@.o.....o.@@@@@@@@@@@@@@@@@ XX @@@@@@@@@@@@@@@@@@....ooo....@@@@@@@@@@@@@@@@@@ XX",
"XX @@@@@@@@@@@@@@@@@.o.....o.@@@@@@@@@@@@@@@@@ XX @@@@@@@@@@@@@@@@@@...ooooo...@@@@@@@@@@@@@@@@@@ XX",
"XX @@@@@@@@@@@@@@@@@.o..o..o.@@@@@@@@@@@@@@@@@ XX @@@@@@@@@@@@@@@@@@..ooooooo..@@@@@@@@@@@@@@@@@@ XX",
"XX @@@@@@@@@@@@@@@@@.ooooooo.@@@@@@@@@@@@@@@@@ XX @@@@@@@@@@@@@@@@@@.ooooooooo.@@@@@@@@@@@@@@@@@@ XX",
"XX @@@@@@@@@@@@@@@@@..oo.oo..@@@@@@@@@@@@@@@@@ XX @@@@@@@@@@@@@@@@@@...........@@@@@@@@@@@@@@@@@@ XX",
"XX @@@@@@@@@@@@@@@@@.........@@@@@@@@@@@@@@@@@ XX @@@@@@@@@@@@@@@@@@@@@@@@@@@@@@@@@@@@@@@@@@@@@@@ XX",
"XX @@@@@@@@@@@@@@@@@.........@@@@@@@@@@@@@@@@@ XX @@@@@@@@@@@@@@@@@@@@@@@@@@@@@@@@@@@@@@@@@@@@@@@ XX",
"XX @@@@@@@@@@@@@@@@@@@@@@@@@@@@@@@@@@@@@@@@@@@ XX @@@@@@oo@@@@@@@@@@@@@@@@@@@@@@@@@@@@@@@oo@@@@@@ XX",
"XX @@@@@@@@@@@@@@@@@@@@@@@@@@@@@@@@@@@@@@@@@@@ XX @@@@@oo@@.......@@@@@@@@@@@@@@@.......@@oo@@@@@ XX",
"XX @@@@@@@@@.......@@@@@@@@@@@.......@@@@@@@@@ XX @@@@oo@@@.....o.@@@@@@@@@@@@@@@.o.....@@@oo@@@@ XX",
"XX @@@@@@@@@.......@@@@@@@@@@@.ooo...@@@@@@@@@ XX @@@oo@@@@....oo.@@@@@@@@@@@@@@@.oo....@@@@oo@@@ XX",
"XX @@@oo@@@@.ooooo.@@@@@@@@@@@.o..o..@@@@oo@@@ XX @@@o@@@@@...ooo.@@@@@@@@@@@@@@@.ooo...@@@@@o@@@ XX",
"XX @@oo@@@@@.o...o.@@@@@@@@@@@.o...o.@@@@@oo@@ XX @ooooo@@@..oooo.@@@@@@@@@@@@@@@.oooo..@@@ooooo@ XX",
"XX @ooooooo@.o...o.@@@@@@@@@@@.o...o.@ooooooo@ XX @@ooo@@@@.ooooo.@@@@@@@@@@@@@@@.ooooo.@@@@ooo@@ XX",
"XX @@oo@@@@@.ooooo.@@@@@@@@@@@.o...o.@@@@@oo@@ XX @@@o@@@@@..oooo.@@@@@@@@@@@@@@@.oooo..@@@@@o@@@ XX",
"XX @@@oo@@@@.o...o.@@@@@@@@@@@.o..o..@@@@oo@@@ XX @@@@@@@@@...ooo.@@@@@@@@@@@@@@@.ooo..+@@@@@@@@@ XX",
"XX @@@@@@@@@.o...o.@@@@@@@@@@@.ooo...@@@@@@@@@ XX @@@@@@@@@....oo.@@@@@@@@@@@@@@@.oo....@@@@@@@@@ XX",
"XX @@@@@@@@@.......@@@@@@@@@@@.......@@@@@@@@@ XX @@@@@@@@@.....o.@@@@@@@@@@@@@@@.o.....@@@@@@@@@ XX",
"XX @@@@@@@@@@@@@@@@@@@@@@@@@@@@@@@@@@@@@@@@@@@ XX @@@@@@@@@.......@@@@@@@@@@@@@@@.......@@@@@@@@@ XX",
"XX @@@@@@@@@@@@@@@@@@.......@@@@@@@@@@@@@@@@@@ XX @@@@@@@@@@@@@@@@@@@@@@@@@@@@@@@@@@@@@@@@@@@@@@@ XX",
"XX @@@@@@@@@@@@@@@@@@..ooo..@@@@@@@@@@@@@@@@@@ XX @@@@@@@@@@@@@@@@@@@@@@@@@@@@@@@@@@@@@@@@@@@@@@@ XX",
"XX @@@@@@@@@@@@@@@@@@..o....@@@@@@@@@@@@@@@@@@ XX @@@@@@@@@@@@@@@@@@...........@@@@@@@@@@@@@@@@@@ XX",
"XX @@@@@@@@@@@@@@@@@@..o....@@@@@@@@@@@@@@@@@@ XX @@@@@@@@@@@@@@@@@@.ooooooooo.@@@@@@@@@@@@@@@@@@ XX",
"XX @@@@@@@@@@@@@@@@@@..ooo..@@@@@@@@@@@@@@@@@@ XX @@@@@@@@@@@@@@@@@@..ooooooo..@@@@@@@@@@@@@@@@@@ XX",
"XX @@@@@@@@@@@@@@@@@@....o..@@@@@@@@@@@@@@@@@@ XX @@@@@@@@@@@@@@@@@@...ooooo...@@@@@@@@@@@@@@@@@@ XX",
"XX @@@@@@@@@@@@@@@@@@....o..@@@@@@@@@@@@@@@@@@ XX @@@@@@@@@@@@@@@@@@...Oooo....@@@@@@@@@@@@@@@@@@ XX",
"XX @@@@@@@@@@@@@@@@@@..ooo..@@@@@@@@@@@@@@@@@@ XX @@@@@@@@@@@@@@@@@@..O..o..O..@@@@@@@@@@@@@@@@@@ XX",
"XX @@@@@@@@@@@@@@@@@@.......@@@@@@@@@@@@@@@@@@ XX @@@@@@@@@@@@@@@@@@..O........@@@@@@@@@@@@@@@@@@ XX",
"XX @@@@@@@@@@@@@@@@@@@@@@@@@@@@@@@@@@@@@@@@@@@ XX @@@@@@@@@@@@@@@@@@@@@@@@@@@@@@@@@@@@@@@@@@@@@@@ XX",
"XX @@@@@@@@@@@@@@@@@@@@@o@@@@@@@@@@@@@@@@@@@@@ XX @@@@@@@@@@@@@@@@@@@@@@@o@@@@@@@@@@@@@@@@@@@@@@@ XX",
"XX @@@@@@@@@@@@@@@@@@@@@o@@@@@@@@@@@@@@@@@@@@@ XX @@@@@@@@@@@@@@@@@@@@@@@o@@@@@@@@@@@@@@@@@@@@@@@ XX",
"XX @@@@@@@@@@@@@@@@@@@@@o@@@@@@@@@@@@@@@@@@@@@ XX @@@@@@@@@@@@@@@@@@@@@@@o@@@@@@@@@@@@@@@@@@@@@@@ XX",
"XX @@@@@@@@@@@@@@@@@@@o@o@o@@@@@@@@@@@@@@@@@@@ XX @@@@@@@@@@@@@@@@@@@@@o@o@o@@@@@@@@@@@@@@@@@@@@@ XX",
"XX @@@@@@@@@@@@@@@@@@@ooooo@@@@@@@@@@@@@@@@@@@ XX @@@@@@@@@@@@@@@@@@@@@ooooo@@@@@@@@@@@@@@@@@@@@@ XX",
"XX @@@@@@@@@@@@@@@@@@@@ooo@@@@@@@@@@@@@@@@@@@@ XX @@@@@@@@@@@@@@@@@@@@@@ooo@@@@@@@@@@@@@@@@@@@@@@ XX",
"XX @@@@@@@@@@@@@@@@@@@@@o@@@@@@@@@@@@@@@@@@@@@ XX @@@@@@@@@@@@@@@@@@@@@@@o@@@@@@@@@@@@@@@@@@@@@@@ XX",
"XX @@@@@@@@@@@@@@@@@@@@@@@@@@@@@@@@@@@@@@@@@@@ XX @@@@@@@@@@@@@@@@@@@@@@@@@@@@@@@@@@@@@@@@@@@@@@@ XX",
"XX                                             XX                                                 XX",
"XXXXXXXXXXXXXXXXXXXXXXXXXXXXXXXXXXXXXXXXXXXXXXXXXXXXXXXXXXXXXXXXXXXXXXXXXXXXXXXXXXXXXXXXXXXXXXXXXXXX",
"XXXXXXXXXXXXXXXXXXXXXXXXXXXXXXXXXXXXXXXXXXXXXXXXXXXXXXXXXXXXXXXXXXXXXXXXXXXXXXXXXXXXXXXXXXXXXXXXXXXX",
"XXXXXXXXXXXXXXXXXXXXXXXXXXXXXXXXXXXXXXXXXXXXXXXXXXXXXXXXXXXXXXXXXXXXXXXXXXXXXXXXXXXXXXXXXXXXXXXXXXXX",
"XX                                                     XXXXXXXXXXXXXXXXXXXXXXXXXXXXXXXXXXXXXXXXXXXXX",
"XX ################################################### XXXXXXXXXXXXXXXXXXXXXXXXXXXXXXXXXXXXXXXXXXXXX",
"XX #................################################## XXXXXXXXXXXXXXXXXXXXXXXXXXXXXXXXXXXXXXXXXXXXX",
"XX #.........oo...o.####oooo##o##o##oooo##oooo##ooooo# XXXXXXXXXXXXXXXXXXXXXXXXXXXXXXXXXXXXXXXXXXXXX",
"XX #.........o.o..o.####o#####o##o##o##o##o##o####o### XXXXXXXXXXXXXXXXXXXXXXXXXXXXXXXXXXXXXXXXXXXXX",
"XX #.........o..o.o.####o#####o##o##o##o##o##o####o### XXXXXXXXXXXXXXXXXXXXXXXXXXXXXXXXXXXXXXXXXXXXX",
"XX #.ooooooooo...oo.####oooo##oooo##o##o##o##o####o### XXXXXXXXXXXXXXXXXXXXXXXXXXXXXXXXXXXXXXXXXXXXX",
"XX #.........o..o.o.#######o##o##o##o##o##o##o####o### XXXXXXXXXXXXXXXXXXXXXXXXXXXXXXXXXXXXXXXXXXXXX",
"XX #.........o.o..o.#######o##o##o##o##o##o##o####o### XXXXXXXXXXXXXXXXXXXXXXXXXXXXXXXXXXXXXXXXXXXXX",
"XX #.........oo...o.####oooo##o##o##oooo##oooo####o### XXXXXXXXXXXXXXXXXXXXXXXXXXXXXXXXXXXXXXXXXXXXX",
"XX #................################################## XXXXXXXXXXXXXXXXXXXXXXXXXXXXXXXXXXXXXXXXXXXXX",
"XX ################################################### XXXXXXXXXXXXXXXXXXXXXXXXXXXXXXXXXXXXXXXXXXXXX",
"XX                                                     XXXXXXXXXXXXXXXXXXXXXXXXXXXXXXXXXXXXXXXXXXXXX",
"XXXXXXXXXXXXXXXXXXXXXXXXXXXXXXXXXXXXXXXXXXXXXXXXXXXXXXXXXXXXXXXXXXXXXXXXXXXXXXXXXXXXXXXXXXXXXXXXXXXX",
"XX                                                                                               XXX",
"XX ############################################################################################# XXX",
"XX #................############################################################################ XXX",
"XX #....ooooooo.....###ooo##o##o##oooo##oo##o##oooo##ooo####o###o##oooo##oo###ooo##oooo##oo##o## XXX",
"XX #.........o......###o####o##o##o##o##oo##o##o##o##o######o###o##o##o##o#o##o####o##o##oo##o## XXX",
"XX #........o.......###o####o##o##o##o##o#o#o##o#####o######o###o##o##o##o#o##o####o##o##o#o#o## XXX",
"XX #.......o........###o####oooo##oooo##o#o#o##o#####ooo####o###o##oooo##o#o##ooo##oooo##o#o#o## XXX",
"XX #......o.........###o####o##o##o##o##o#o#o##o#oo##o######o#o#o##o##o##oo###o####o##o##o#o#o## XXX",
"XX #.....o..........###o####o##o##o##o##o##oo##o##o##o######o#o#o##o##o##o####o####o##o##o##oo## XXX",
"XX #....ooooooo.....###ooo##o##o##o##o##o##oo##oooo##ooo#####o#o###o##o##o####ooo##o##o##o##oo## XXX",
"XX #................############################################################################ XXX",
"XX ############################################################################################# XXX",
"XX                                                                                               XXX",
"XXXXXXXXXXXXXXXXXXXXXXXXXXXXXXXXXXXXXXXXXXXXXXXXXXXXXXXXXXXXXXXXXXXXXXXXXXXXXXXXXXXXXXXXXXXXXXXXXXXX",
"XXX                                                                                             XXXX",
"XXX ########################################################################################### XXXX",
"$XX ########################################################################################### XXXX",
"$$$$$$$#oo##oo##ooo#ooo#ooo#ooo###ooo#oo##oooo#ooo#ooo###ooooo#ooo####oo##o###oooo#o#o######### XXXX",
"$$$$$$$#o#o#o#o#o###o###o###o#####o###o#o#o##o#o###o#######o###o#o####o#o#o###o##o#o#o######### XXXX",
"$$$ ####o#o#o#o#o###o###o###o#####o###o#o#o##o#o###o#######o###o#o####o#o#o###o##o#o#o######### XXXX",
"$$$$####o#o#o#o#o###o###o###o#####o###o#o#o##o#o###o#######o###o#o####o#o#o###o##o#ooo######### XXXX",
"$$$ ####oo##oo##ooo#ooo#ooo#ooo###ooo#oo##oooo#o###ooo#####o###o#o####oo##o###oooo###o######### XXXX",
"$$$$####o###o#o#o#####o###o#o#######o#o###o##o#o###o#######o###o#o####o###o###o##o###o######### XXXX",
"$$$ ####o###o#o#o#####o###o#o#######o#o###o##o#o###o#######o###o#o####o###o###o##o###o######### XXXX",
"$$$$####o###o#o#ooo#ooo#ooo#ooo###ooo#o###o##o#ooo#ooo#####o###ooo####o###ooo#o##o#ooo######### XXXX",
"$$$ ########################################################################################### XXXX",
"XXX ########################################################################################### XXXX",
"XXX                                                                                             XXXX",
"XXXXXXXXXXXXXXXXXXXXXXXXXXXXXXXXXXXXXXXXXXXXXXXXXXXXXXXXXXXXXXXXXXXXXXXXXXXXXXXXXXXXXXXXXXXXXXXXXXXX"
};
