/* XPM */
static char *result[] = {
/* columns rows colors chars-per-pixel */
"128 128 52 1 ",
"  c #010000",
". c #000001",
"X c #040303",
"o c #060505",
"O c #0F0D0C",
"+ c #0E0E11",
"@ c #131110",
"# c gray12",
"$ c #1C1C23",
"% c #1E1E25",
"& c #232323",
"* c #24242B",
"= c #2F2F2F",
"- c #292932",
"; c #2B2B34",
": c #2F2F38",
"> c gray20",
", c #373737",
"< c #34343F",
"1 c gray23",
"2 c #393946",
"3 c #3F3F4C",
"4 c #434343",
"5 c #4B4B4B",
"6 c #464655",
"7 c #484857",
"8 c #4B4B5C",
"9 c #4D4D5E",
"0 c gray34",
"q c #5B5B5B",
"w c #515162",
"e c #565669",
"r c #5C5C6F",
"t c #676767",
"y c #616176",
"u c #65657A",
"i c #66667D",
"p c gray45",
"a c #7B7B7B",
"s c gray50",
"d c #6C6C83",
"f c #73738C",
"g c #73748C",
"h c gray56",
"j c #9B9B9B",
"k c gray67",
"l c #B7B7B7",
"z c #BBBBBB",
"x c #C3C3C3",
"c c LightGray",
"v c #DFDFDF",
"b c #EFEFEF",
/* pixels */
"$++--<<33333333366226666666666633336322262222622--::::--**+$%<<<<<6<<<<<<<<<<<<<<-<<<+$$$$$<<<<<<<<<<<<<<<<<<<<<$$$$<<<<<<<<<<$$",
"$++--<<3366633366322888666632222223362::3222222<--::::--**+$%<<<<<<<<<<<<<<<<<<<<2<<<+$$$$<<<<<3333333333333<<<<<$$$<www833<<<$$",
"+++33333388663338<32662638328632226<<<<:<322322<::--**--:*++;27eeeeeeeeee6ee73222222:+..++;666666688888866666633<$..8wyw88883:..",
"+++33333633363233<<26<336w328632<2<<3:::<<2232<<2:-:**--:*++;7uffuee2e266667332<22<::+..++;6666666666666688wee83<$..8yyy88883:..",
"++%8833886683333<::<23368882w8322<<:*:::::<2<<22:::*--::<*.+;7uffue36<636633ee7<2:::*$..++;6ww88ww866w6wwwrwrre8<$..8wyw86332:..",
"++%88338336383233:2:6363662388322<<<:2<::2:2322::::2--::<*.+;7euuw8663636<3e7::762::*%..++;6ww88ww666ewwwwrreew8<$..88w886632:..",
"++%66668336333223:3<w33338236626332<:<3-:3<222222<22--**:*.+;37wwwww6823<<3:::<3::::*%..++;688w88w66wre888rr8ww8<$..66668863:*..",
"++%666683333622332:<w66323366<6<2<<:-::-2:<<2::<<222--**:*.+;37weeww6<62332<:<:::::2*%..++;6888www6wrwee86ww6883<$..66668833:*..",
"++*66888836e3328<332w86<3263322222<23:2:3323<-2<:2222:2:**.+;276eww663<3<<2::<:2*<;-*%..++;6ww8w8wwe6r886666w862:$..223663<<:*..",
"++*668888663666823338333263<32623<<<2-:-33336222<2:2:2::**.+;2328w8662233<22:::<<2;-*%..++;6www88eww8wrr8ew36382:$..223:33<<<*..",
"++:33666333226322338623232<:<22<8-:-:2:*338322:22222222*:*.+*3636862636<:2::3<:2-:;**%..++;6ww88ew8weriie8866333<$..3322<<-<<*..",
"++:3363632226622236w362322<6<323<:-*-:*336w322323323622*:*.+;362223663<32<::6-<<:;-**%..++;6wwww8ew8riirww863636<$..33<223-<:*..",
"++:336333<226223<6883332<2<<<33<6:*%*::368882<3332<22:2<:*.+%366266626<32<<:<2:2:;;2*%..++;688ww8ewrwriee688w33<:$..3<<<22*<:*..",
"++:3<8632663636622663232<:<:3<<<<:-*--362662338863<22:<<:*.+;3662666<3<<2<2<-:26:;;-*%..++;68wweww88w8eew683833<:$..::<<2<****..",
"++:3388333362668633823222:2<:<-::<-:-:36338238ee682-::--:*.+;383222:<22<<<2:-**:***-*%..++;688wwwew6ewwew838w633<$..:--<<<--**..",
"++:332<33336633883<2<2<2<<<:::<<2:-::3683<23388e8632::--:*.+;6w3272::<<2<2:2:2-*:**-*%..++;68w66ew86r88888863863<$..%:--**--%%..",
"++*22222232<33<e88622-2:::<--<:*::*:*38886236888633<<<::<*.+*888272::222<:-:<-2****-*%..+$-3266688666878276638863$...%%%%%%%%...",
"++*22<2<3338862888822362::22:<<:<*:2<6888822368632<<<<::<*.+*66237<::<:*::-::<*-***-*%..+$-376668333688882863833<$..............",
"++%<<<382388e88628633<2:::6-2:-::**:223336872<3332::--:::*.+*3823:<<<2--2:-::**:2;-**%..+$-376776866887ww833266<<$..+*788882*+..",
"++%<<<<3238wee8w866333<:<22:::*-:-**:32333667<33<<--<<::**.+*:22::2-:-<:::*-:-**::-**%..+$-376326e76383w6883323<<$..*7uuuee8<*..",
"++%<<<<2388www888838632::<<---**-::<236633672:<3<:--<<:***.+*<<:2<:<2::---**-::<2;--*%..+$-3722<<67388386868666<<$..6ufee7882-..",
"++%<<<<23688w8883836222::22--****-*<-<3366222<<6:::<:::**$.+*<:::2-:::---****-*<--***%..+$-362<<<62383w88686ww82<$..6ufu77822-..",
"+++<<22632883w832662<:<::<:*-:**:**-*<33622:<<33::<<:****+.+*<22::-<:-%*-:**:**-*2*-*$..+$-232:<2w3383ww63636838-$..3ufe8232--..",
"+++<<22362636623336872<<<2-*-***:*-:*::::::::::::::::***$+.+*;::---***%*-***:*-:***-*$..+$-23222233<883633322232-$..3uue8232--..",
"+.+--<<<68366332333667<-:-<$-%$$$$$$$*****************$++..+$*$$**%$$$$$-%$$$$$$$$$$$+..+$-<22222222222222222222*$..3ur6822:*-..",
"+..--<<<<36<<336633672:$$$$++++++++++......................++$++$$++++++++++++++++++++..++$;;;;;;;;;;;;;;;;;;;;;$+..3u6633::*-..",
"+++**--<<66<<<<336622*$..................................................................++$$%%%%%%%%%%%%%%%%$$++...2e72<2--:-..",
"++++*--<<<<6<<<33622;+.....................................+...............................................X........2722222-:-..",
"++++$%%*::::::::::::;+..#&&&&&&&&&&&&&&&&&&&&&&&&&&&&&&=1551=&&&&&&&&&&&&&&&&&&&&&&&&=1551=&&&&&&&&&&&&&&...........%<<3ww3<*%..",
"++++++%************%%+..&1111111111111111111111111111111155111111111111111111111111111155111111111111111=...........+%::--**%+..",
"++......................&1444444444444444444444444444444455444444444444444444444444444555544444444444444=.......................",
"%%%%%%%%%%%%%%%%%%%.....&1555555555555555555555555555555555555555555555555555555555555555555555555555555=.......................",
"33333333333333666732-...&1555555555555555555555555555555555555555555555555555555555555555555555555555555=....%*::<<:-:::<<:-::22",
"3333338euuee766333322$..&1555511111111111111111111111111111111111111111111111111111111111111111111115555=...%-2777eewwwwwee77633",
"888666wyuiue763<<22<<%..&15555&....X===&#XXXXXXXXX==&&&XXXXXXXXX==&&&XXXXXXXXX==&&&XXXXXXX==&&&XX..&0555=...%277weuyeeeeerree666",
"666688wruure83<<<22<<%..&15555&.....,1=&&ooooooooo,1=&&ooooooooo,1=&&ooooooooo,1=&&ooooooo,1=&&o...>0555=...%27eeeddfiiiryuyee88",
"w6wwwrwrrrew7632<::-:%..&15555&     14,=&         14,=&         14,=&         14,=&       14,=&    >0555=...%6weeuffffiyryduue88",
"ewwwwrrewew77722<::-:%..&15555=     151=&         151=&         151=&         151=&       151=&    >0555=...:6werrdfuuuyryufuee8",
"re888rr888887332<::::%..&15555=     151=&         151=&         151=&         151=&       151=&    40555=...:6werruduuuuyuurueee",
"wee86ww626333222<::::%..&15555=     151=&         151=&         151=&         151=&       151=&    40555=...<6weeeruuuuuuuuufree",
"r886666w3w77672<;22::%..&15555=     151=&         151=&         151=&         151=&       151=&    40555=...<7weeweryyyuuuuuer88",
"wrr8ew36636372<::22:<%..&15555=     151=&         151=&         151=&         151=&       151=&    40555=...<8eweeeryyrgurrrww88",
"riie8866we6232<-:---<%..&15555=     151=&         151=&         151=&         151=&       151=&    50555=...<w7weeereuyyyrruwe66",
"iirww863663782<:<---<%..&15555=     151=&         151=&         151=&         151=&       151=&    50555=...<wwweeeeryyerr88e776",
"riee688w736722<--::-<%..&15555=     151=&         151=&         151=&         151=&       151=&    5t555= ..<87weeewwrrrwwewe876",
"8eew6838337226;::2:-:%..&15555=     151=&         151=&         151=&         151=&       151=&    5t555= ..<87wwew9weee8wfee866",
"wwew838w3766w2;-6::*:%..&15555=     151=&         151=&         151=&         151=&       151=&    5t555= o.<87wewwwweew88wreeww",
"eww888633w77<<---***<%..&15555=     151=&         151=&         151=&         151=&       151=&    5t555= #.<8ww7wewwwe7wwwre7ww",
"r8ww66636ww62<<:****<%..&15555=     151=&         151=&         151=&         151=&       151=&    5t555= 1.<6we7ereeeeewwwr7eee",
"eeww68636w82<<;:*--*<%..&15555=     151=&         151=&         151=&         151=&       151=&    5t555= =.<6wweweeerewwerrreee",
"e6w8633266626;<-****:%..&15555=     151=&         151=&         151=&         151=&       151=&    5t555= #.<6ee7wwww7e7weeerw88",
"6666623333<2<;--****<%..&15555=     151=&         151=&         151=&         151=&       151=&    5t555= #.<6ewyywe7rwwere7yw88",
"8336ww86333<-;**--*%<%..&15555=     151=&         151=&         151=&         151=&       151=&    5t555= X.<6weeee77w8ee7r7rw66",
"868weerw3262<;*-**%%<%..&15555=     151=&         151=&         151=&         151=&       151=&    5t555= X.<6weyereweeyrrrw7r66",
"w28e8ewe32<<2:-***--:*+.&15555=     151=&         151=&         151=&         151=&       151=&    5t555= #.<2eeyuyrereyryrwr888",
"68688e6w<<22:::*--::<*..&15555=     151=&         151=&         151=&         151=&       151=&    5t555= 1.<2eeeeurrr88yyrer888",
"63w38686322::::*--::<*..&15555=     151=&         151=&         151=&         151=&       151=&    5t555= =.<2eyeerrrreeyreeer66",
"6363328<22222<<:--**:*..&15555=     151=&         151=&         151=&         151=&       151=&    5t555= #.<28yyeerreeerewyee66",
"w32326322::<<2<<:-**:*..&15555=     151=&         151=&         151=&         151=&       151=&    5t555= #.<28yr7erewwe7eere888",
"<<2<23<<<-2<:222<:::**..&15555=     151=&         151=&         151=&         151=&       151=&    5t555= X.<28yer6eew6we7eyre88",
"6222<2:26222<2:<::::**..&15555=     151=&         151=&         151=&         151=&       151=&    5t555= X.<28yer9wew66weere866",
"22:2222222:22222<<<*:*..&15555=     151=&         151=&         151=&         151=&       151=&    5t555= X.<28rr9wwwe639w9e6666",
"22323323223233236:<*:*..&15555=     151=&         151=&         151=&         151=&       151=&    5t555= X.<27re9ww93e389978863",
"2<3332<22<3332<22:<<:*..&15555=     151=&         151=&         151=&         151=&       151=&    5t555= X.<28re9988733999e7633",
"7722<277338863<22:<<:*..&15555=     151=&         151=&         151=&         151=&       151=&    5t555= X.<28ee9968e23888e6622",
"327733<338ee682-::--:*..&15555000005555000005     151=&         151=&         151=&       151=&    5t555= X.<28ew7e6e36378786622",
":327::7:388e8632::--:*.+&15555555555555555551     151=&         151=&         151=&       151=&    5t555= X.<28ew76387787e776322",
"<<22<:<<6888633<<<::<*.+&15555505555555550551     151=&         151=&         151=&       151=&    5t555= X.:28w7733763687673322",
":<333<3:368632<<<<::<*.+&155550s055555550p051     151=&         151=&         151=&       151=&    5t555= X.::8w7763632223883333",
"<373<:::<223228:32--<*.+&15555151555555515151     151=&         151=&         151=&       151=&    5t555= X.-:8w87623233<8663333",
"3<:3333:3<:3333:22--<*.+&155551=155555551=151     151=&         151=&         151=&       151=&    5t555= X.-:8w76323333637<3322",
"32<2263<32<2263<**<<:*..&15555515555555551551     151=&         151=&         151=&       151=&    5t555= X.%:8w63<<6823<33333<2",
"2228323<2228323<**<<:*..&15555555555555555551     151=&         151=&         151=&       151=&    5t555= X.%:8866<276263222<<:2",
":<<882<*:<<882<*--:::*..&15555555555555555551     151=&         151=&         151=&       151=&    5t555= X.%:3866622736<2<::<22",
"2<3332::2<3332::--:::*..&15555555555555555551     151=&         151=&         151=&       151=&    5t555= X.%:38632<327382<:2322",
"7<33<<--7<33<<--<<::**..&1555551==15555555551     151=&         151=&         151=&       151=&    5t555= X.%<<8666<<372322::<<2",
"2:<3<:--2:<3<:--<<:***..&1555550=.t5555550551     151=&         151=&         151=&       151=&    5t555= X..:<68632223633222:<3",
"2<<6:::<2<<6:::<:::**$..&155555t=.p555550p051     151=&         151=&         151=&       151=&    5t555= X..--3788222<366222<<6",
"<<33::<<<<33::<<:****+..&155555t=.t5555515151     151=&         151=&         151=&       151=&    5t555= X..%-33222:<<32227<<33",
":::::::::::::::::***$+..&1555550=.t555551=151     151=&         151=&         151=&       151=&    5t555= X..%%:::::::::::::::::",
"%%%%%%%%%%%%%%%%%%$++...&1555550=&05555551551     151=&         151=&         151=&       151=&    5t555= X.....%%%%%%%%%%%%%%%%",
"........................&15555500005555555551     151=&         151=&         151=&       151=&    5t555= X..+..................",
"++++++++++++++..........&15555555555555555551     151=&         151=&         151=&       151=&    5t555= X..+$2eiiiye88833<$+++",
"+++++++-:3332322<<-.....&15555555555555555551     151=&         151=&         151=&       151=&    5t555= X..+$eiywwee667e73;$++",
"++++$36weerrrrww88<*$...&15555555555555555551     151=&         151=&         151=&       151=&    5t555= X..+:eww8878667783;*++",
"+++$3wryyyyyyyre87<:*%..&15555505555555550551     151=&         151=&         151=&       151=&    5t555= X..+:382222222222<;$++",
"+++$6ryiidiruurw66<-$$..&155550p055555550p051     151=&         151=&         151=&       151=&    5t555= X..+$*33<<<<<<<<;;:$++",
"+++$6riiddiyyure83<-$$..&15555151555555515151     151=&         151=&         151=&       151=&    5t555= X..++$***********$$+++",
"+++$6riidiyryrew7<<-$$..&155551=150tt0551=151     151=&         151=&         151=&       151=&    5t555= X.++++++++++++++++++++",
"+++$6rdiidyrryrw73<-$$..&15555111111111111111     151=&         151=&         151=&       151=&    5t555= X.*-388wwweewwe83<<+++",
"+++$wriiiyyrure966<-$$..&15555&     &&&&&         151=&         151=&         151=&       151=&    5t555= X.<9rrreeeww888883<*++",
"+++$wridirerru9832-:$$..&15555=     =1=&&         151=&        pjspa15        151=&       151=&    5t555= X.3rrreuyree8e88883*++",
"+++$wryiryyerrw932-*$$..&15555=     151=&         151=&        sbbbbkp,       151=&       151=&    5t555= X.3rreuurewe8www662*..",
"+++$wryryreeur973<--$$..&15555=     151=&         151=&        #j0&=54j       151=&       151=&    5t555= X.3reeww8e88e8ww632*..",
"+++$wryyrr8wrr7623<*-$..&15555=     151=&         151=&       &cxcvx=#0       151=&  #=>#&151=&    5t555= X.3yew766678ww83232*..",
"+++$wryewyerer9832-*-$..&15555=     151=&         151=&         p4=1pp#       151=&##&=5>4151=&    5t555= X.3yw7673368w833322*..",
"+++$wrywrerwew982<::$$..&15555=     151=&         151=&        jshxh4q        151=&##>4pp4151=&    5t555= X.8yw7633336332222<*..",
"+++$wre8wrwew88622:-$$..&15555=     151=&         151=&        sq1>,,#        151=&&400ska151=&    5t555= X.7yw8636663<7<2<2<*..",
"+++$wrww8w8r986722:-$$..&15555=     151=&         151=&       &qsxxa>         151=&#,khjjh151=&    5t555=  .7yw8669899<3<<2:-*..",
"+++$wr88wrrww8972<:-$$..&15555=     151=&         151=&        pt>=>q=#=5 &   151=&#>pxklk151=&    5t555= #.3ywwwww7393<3;<<:*..",
"+++$wr668wwww6663<:-$$..&15555=     151=&         151=&        #&==&##4js1qj  151=&  1kjlj151=&#   5t555= #.<yww6w933662<2<:**..",
"+++$wr86ewreer87<::%$$..&15555=     151=&         151=&         >4,=& =0q4sjl=151=&  &pkkx151=&&#  5t555= #.6yw888w3722;23:-**..",
"+++$wrw8wwweer662<:-$$..&15555=     151=&         151=&         151=&   #=51tq151=&   asxv151=&##  5t555= #.3yw88ee6733<;<--**..",
"+++$wrw8eeeerr962<:-$$..&15555=     151=&         151=&         151=&    ##5&#151=&   5psx151=&=&  5t555= X.<yw8897632<<-:-***..",
"+++$wrw88reerr932<:%$$..&15555=     151=&         151=&         151=&   #4t#&#151=&#&1q5qt151=&##  5t555= X.7yw8696663<--;*%**..",
"+++$wrw68eeeee622<:-$$..&15555=     151=&         151=&         151=&  >p41s =151=&##&1   151=&&#  5t555=  .2ywe7ww83<<--*$%**..",
"+++$wr88werere322::%$$..&15555=     151=&         151=&         151=& #tq51>qh151=&#  4   151=&#   5t555= #.2yw77ee633---%%*%*..",
"+++$wrw8wwweee3<<2:%$$..&15555=     151=&         151=&         151=& #q4&4=sh151=&>&&t1  151=&    5t555= #.2ywwee62<<<-:*%%%*..",
"+++$wr868rewew62:22%$$..&15555=     151=&         151=&         151=& #4&=a t=151=&,qskk1 151=&    5t555= #.2yww9e7622:---**%*..",
"+++$er688wwwww9<<::%$$..&15555=     151=&         151=&         151=& #= >1 >4151=&1tjzbhq151=&    5t555= #.2yw998e732:****%**..",
"+++$er88888ww933<2-%$$..&15555=     151=&         151=&         151=&##& #1 p5151=&>4jhvbj151=&    5t555= X.2yw9w967<<:*;*%:$*..",
"+++$erww88886763<<:%$$..&,5555=     151=&         151=&         151=& ####1# &151=& &0#4tj151=&    5t555=@X.2yw88w92<::*-%*;%*..",
"+++$erweww888w63::-%$$..&15555=     151=&         151=&         151=& ####0##=151=&    #=&151=&    5t555=Oo.:ywe9w92:::**%%$%*..",
"+++$eww6ww88383<::-%$$..&15555=     151=&         151=&         151=& ##&#4545151=&#   =45151=&    5t555=.o.<yw9e77<*;;**$%-%$..",
"+++$ewwew83626<:<:-$$$..&15555=     151=&         151=&  ###   #151=& ##==15q4151=&##># >1151=&    5t555=.o.<yw7ww3<;;;**%%%%*..",
"+++$eww86686233<<*%%$$..&15555=     151=&         151=& #&=###&=151=& ##=>5==&151=&   #==4151=&    5t555=.o.<y877977;;-;*%%***..",
"+++$e8663676323<:*%$$$..&15555=     151=&         151=&  #&##&&=151=& #&&>=&&#151=& #&&&4h151=&    5t555=.o.<y87933;;--:**;%*$..",
"+++$e866337322:-:*-$$$..&15555=     151=&         151=&  #   &&1151=&  #&####1151=&# #1&pq151=&    5t555=...-r8w3322-;::*;;%**..",
"+++$88663386622<-*-$$$..&15555=     151=&         151=&      #,>151=&  ###&###151=&  #,1q>151=&    5t555=...:r8w372-;::<;;;$**..",
"+++$8863336232<<-*%$$$..&15555=     151=&        &151=&    #=4qt151=&  ####&# 151=& ###ts#151=&    5t555=...;633323;<--;-$;%$*..",
"+++$666322622::--*$$$$..&15555=     151=&      #==151=&   &1=shs151=&  #&##&,#151=&   =j0#151=&    5t555=...<63<<3<***-;*$$$$*..",
"+++$666332322:-:--$$$$..&15555=     151=&    #==# 151=&  &# 1sjk151=&# #1=###=151=&  &tt# 151=&    5t555=...:3332<:*---;%;%*$;..",
"+++$663<3<22<;::%$$$$$..&15555=44455151===15555555151===15555555151===15555555151===155555151==11115t555=...:3<::3-****;$$%$$;++",
"+++$663333223<;;$$$$$$..&155550ttttt051=10tttttttt051=10tttttttt051=10tttttttt051=10tttttt051=1000000555=...-<3<::-***$$$$$$$;++",
"+++$<<272<<;;;<;$$$$$$..&1555555555555555555555555555555555555555555555555555555555555555555555555555555=...;<<:---***$$$$$$$;++",
"$$$$<<<2<;;<;<<;;$$$$$..&1555555555555555555555555555555555555555555555555555555555555555555555555555555=...;;;;-***$$*$$$$$$-++",
"----------------------..#================================================================================...;::::*::**:****::---",
"----------------------..#################################################################################...--------------------"
};
