/* XPM */
static char *result[] = {
/* columns rows colors chars-per-pixel */
"128 128 41 1 ",
"  c #010000",
". c #000001",
"X c #040303",
"o c #060505",
"O c #0F0D0C",
"+ c #0E0E11",
"@ c #131110",
"# c gray12",
"$ c #1C1C23",
"% c #1E1E25",
"& c #232323",
"* c #24242B",
"= c #2F2F2F",
"- c #292932",
"; c #2B2B34",
": c #2F2F38",
"> c gray20",
", c #373737",
"< c #34343F",
"1 c gray23",
"2 c #393946",
"3 c #3F3F4C",
"4 c #434343",
"5 c #4B4B4B",
"6 c #464655",
"7 c #484857",
"8 c #4B4B5C",
"9 c #4D4D5E",
"0 c gray34",
"q c #515162",
"w c #565669",
"e c #5C5C6F",
"r c #676767",
"t c #616176",
"y c #65657A",
"u c #66667D",
"i c gray45",
"p c gray50",
"a c #6C6C83",
"s c #73738C",
"d c #73748C",
/* pixels */
"$++--<<33333333366226666666666633336322262222622--::::--**+$%<<<<<6<<<<<<<<<<<<<<-<<<+$$$$$<<<<<<<<<<<<<<<<<<<<<$$$$<<<<<<<<<<$$",
"$++--<<3366633366322888666632222223362::3222222<--::::--**+$%<<<<<<<<<<<<<<<<<<<<2<<<+$$$$<<<<<3333333333333<<<<<$$$<qqq833<<<$$",
"+++33333388663338<32662638328632226<<<<:<322322<::--**--:*++;27wwwwwwwwww6ww73222222:+..++;666666688888866666633<$..8qtq88883:..",
"+++33333633363233<<26<336q328632<2<<3:::<<2232<<2:-:**--:*++;7yssyww2w266667332<22<::+..++;6666666666666688qww83<$..8ttt88883:..",
"++%8833886683333<::<23368882q8322<<:*:::::<2<<22:::*--::<*.+;7yssyw36<636633ww7<2:::*$..++;6qq88qq866q6qqqeqeew8<$..8qtq86332:..",
"++%88338336383233:2:6363662388322<<<:2<::2:2322::::2--::<*.+;7wyyq8663636<3w7::762::*%..++;6qq88qq666wqqqqeewwq8<$..88q886632:..",
"++%66668336333223:3<q33338236626332<:<3-:3<222222<22--**:*.+;37qqqqq6823<<3:::<3::::*%..++;688q88q66qew888ee8qq8<$..66668863:*..",
"++%666683333622332:<q66323366<6<2<<:-::-2:<<2::<<222--**:*.+;37qwwqq6<62332<:<:::::2*%..++;6888qqq6qeqww86qq6883<$..66668833:*..",
"++*66888836w3328<332q86<3263322222<23:2:3323<-2<:2222:2:**.+;276wqq663<3<<2::<:2*<;-*%..++;6qq8q8qqw6e886666q862:$..223663<<:*..",
"++*668888663666823338333263<32623<<<2-:-33336222<2:2:2::**.+;2328q8662233<22:::<<2;-*%..++;6qqq88wqq8qee8wq36382:$..223:33<<<*..",
"++:33666333226322338623232<:<22<8-:-:2:*338322:22222222*:*.+*3636862636<:2::3<:2-:;**%..++;6qq88wq8qweuuw8866333<$..3322<<-<<*..",
"++:3363632226622236q362322<6<323<:-*-:*336q322323323622*:*.+;362223663<32<::6-<<:;-**%..++;6qqqq8wq8euueqq863636<$..33<223-<:*..",
"++:336333<226223<6883332<2<<<33<6:*%*::368882<3332<22:2<:*.+%366266626<32<<:<2:2:;;2*%..++;688qq8wqeqeuww688q33<:$..3<<<22*<:*..",
"++:3<8632663636622663232<:<:3<<<<:-*--362662338863<22:<<:*.+;3662666<3<<2<2<-:26:;;-*%..++;68qqwqq88q8wwq683833<:$..::<<2<****..",
"++:3388333362668633823222:2<:<-::<-:-:36338238ww682-::--:*.+;383222:<22<<<2:-**:***-*%..++;688qqqwq6wqqwq838q633<$..:--<<<--**..",
"++:332<33336633883<2<2<2<<<:::<<2:-::3683<23388w8632::--:*.+;6q3272::<<2<2:2:2-*:**-*%..++;68q66wq86e88888863863<$..%:--**--%%..",
"++*22222232<33<w88622-2:::<--<:*::*:*38886236888633<<<::<*.+*888272::222<:-:<-2****-*%..+$-3266688666878276638863$...%%%%%%%%...",
"++*22<2<3338862888822362::22:<<:<*:2<6888822368632<<<<::<*.+*66237<::<:*::-::<*-***-*%..+$-376668333688882863833<$..............",
"++%<<<382388w88628633<2:::6-2:-::**:223336872<3332::--:::*.+*3823:<<<2--2:-::**:2;-**%..+$-376776866887qq833266<<$..+*788882*+..",
"++%<<<<3238qww8q866333<:<22:::*-:-**:32333667<33<<--<<::**.+*:22::2-:-<:::*-:-**::-**%..+$-376326w76383q6883323<<$..*7yyyww8<*..",
"++%<<<<2388qqq888838632::<<---**-::<236633672:<3<:--<<:***.+*<<:2<:<2::---**-::<2;--*%..+$-3722<<67388386868666<<$..6ysww7882-..",
"++%<<<<23688q8883836222::22--****-*<-<3366222<<6:::<:::**$.+*<:::2-:::---****-*<--***%..+$-362<<<62383q88686qq82<$..6ysy77822-..",
"+++<<22632883q832662<:<::<:*-:**:**-*<33622:<<33::<<:****+.+*<22::-<:-%*-:**:**-*2*-*$..+$-232:<2q3383qq63636838-$..3ysw8232--..",
"+++<<22362636623336872<<<2-*-***:*-:*::::::::::::::::***$+.+*;::---***%*-***:*-:***-*$..+$-23222233<883633322232-$..3yyw8232--..",
"+.+--<<<68366332333667<-:-<$-%$$$$$$$*****************$++..+$*$$**%$$$$$-%$$$$$$$$$$$+..+$-<22222222222222222222*$..3ye6822:*-..",
"+..--<<<<36<<336633672:$$$$++++++++++......................++$++$$++++++++++++++++++++..++$;;;;;;;;;;;;;;;;;;;;;$+..3y6633::*-..",
"+++**--<<66<<<<336622*$..................................................................++$$%%%%%%%%%%%%%%%%$$++...2w72<2--:-..",
"++++*--<<<<6<<<33622;+.....................................+...............................................X........2722222-:-..",
"++++$%%*::::::::::::;+..#&&&&&&&&&&&&&&&&&&&&&&&&&&&&&&=1551=&&&&&&&&&&&&&&&&&&&&&&&&=1551=&&&&&&&&&&&&&&...........%<<3qq3<*%..",
"++++++%************%%+..&1111111111111111111111111111111155111111111111111111111111111155111111111111111=...........+%::--**%+..",
"++......................&1444444444444444444444444444444455444444444444444444444444444555544444444444444=.......................",
"%%%%%%%%%%%%%%%%%%%.....&1555555555555555555555555555555555555555555555555555555555555555555555555555555=.......................",
"33333333333333666732-...&1555555555555555555555555555555555555555555555555555555555555555555555555555555=....%*::<<:-:::<<:-::22",
"3333338wyyww766333322$..&1555511111111111111111111111111111111111111111111111111111111111111111111115555=...%-2777wwqqqqqww77633",
"888666qtyuyw763<<22<<%..&15555&....X===&#XXXXXXXXX==&&&XXXXXXXXX==&&&XXXXXXXXX==&&&XXXXXXX==&&&XX..&0555=...%277qwytwwwwweeww666",
"666688qeyyew83<<<22<<%..&15555&.....,1=&&ooooooooo,1=&&ooooooooo,1=&&ooooooooo,1=&&ooooooo,1=&&o...>0555=...%27wwwaasuuuetytww88",
"q6qqqeqeeewq7632<::-:%..&15555&.....14,=&.........14,=&.........14,=&.........14,=&.......14,=&....>0555=...%6qwwyssssutetayyw88",
"wqqqqeewqwq77722<::-:%..&15555=.....151=&.........151=&.........151=&.........151=&.......151=&....>0555=...:6qweeasyyytetysyww8",
"ew888ee888887332<::::%..&15555=.....151=&.........151=&.........151=&.........151=&.......151=&....40555=...:6qweeyayyyytyyeywww",
"qww86qq626333222<::::%..&15555=.....151=&.........151=&.........151=&.........151=&.......151=&....40555=...<6qwwweyyyyyyyyyseww",
"e886666q3q77672<;22::%..&15555=.....151=&.........151=&.........151=&.........151=&.......151=&....40555=...<7qwwqwetttyyyyywe88",
"qee8wq36636372<::22:<%..&15555=.....151=&.........151=&.........151=&.........151=&.......151=&....40555=...<8wqwwwettedyeeeqq88",
"euuw8866qw6232<-:---<%..&15555=.....151=&.........151=&.........151=&.........151=&.......151=&....50555=...<q7qwwwewyttteeyqw66",
"uueqq863663782<:<---<%..&15555=.....151=&.........151=&.........151=&.........151=&.......151=&....50555=...<qqqwwwwettwee88w776",
"euww688q736722<--::-<%..&15555=.....151=&.........151=&.........151=&.........151=&.......151=&....5r555= ..<87qwwwqqeeeqqwqw876",
"8wwq6838337226;::2:-:%..&15555=.....151=&.........151=&.........151=&.........151=&.......151=&....5r555= ..<87qqwq9qwww8qsww866",
"qqwq838q3766q2;-6::*:%..&15555=.....151=&.........151=&.........151=&.........151=&.......151=&....5r555= o.<87qwqqqqwwq88qewwqq",
"wqq888633q77<<---***<%..&15555=.....151=&.........151=&.........151=&.........151=&.......151=&....5r555= #.<8qq7qwqqqw7qqqew7qq",
"e8qq66636qq62<<:****<%..&15555=.....151=&.........151=&.........151=&.........151=&.......151=&....5r555= 1.<6qw7wewwwwwqqqe7www",
"wwqq68636q82<<;:*--*<%..&15555=.....151=&.........151=&.........151=&.........151=&.......151=&....5r555= =.<6qqwqwwwewqqweeewww",
"w6q8633266626;<-****:%..&15555=.....151=&.........151=&.........151=&.........151=&.......151=&....5r555= #.<6ww7qqqq7w7qwwweq88",
"6666623333<2<;--****<%..&15555=.....151=&.........151=&.........151=&.........151=&.......151=&....5r555= #.<6wqttqw7eqqwew7tq88",
"8336qq86333<-;**--*%<%..&15555=.....151=&.........151=&.........151=&.........151=&.......151=&....5r555= X.<6qwwww77q8ww7e7eq66",
"868qwweq3262<;*-**%%<%..&15555=.....151=&.........151=&.........151=&.........151=&.......151=&....5r555= X.<6qwtwewqwwteeeq7e66",
"q28w8wqw32<<2:-***--:*+.&15555=.....151=&.........151=&.........151=&.........151=&.......151=&....5r555= #.<2wwtytewewteteqe888",
"68688w6q<<22:::*--::<*..&15555=.....151=&.........151=&.........151=&.........151=&.......151=&....5r555= 1.<2wwwwyeee88ttewe888",
"63q38686322::::*--::<*..&15555=.....151=&.........151=&.........151=&.........151=&.......151=&....5r555= =.<2wtwweeeewwtewwwe66",
"6363328<22222<<:--**:*..&15555=.....151=&.........151=&.........151=&.........151=&.......151=&....5r555= #.<28ttwweewwwewqtww66",
"q32326322::<<2<<:-**:*..&15555=.....151=&.........151=&.........151=&.........151=&.......151=&....5r555= #.<28te7wewqqw7wwew888",
"<<2<23<<<-2<:222<:::**..&15555=.....151=&.........151=&.........151=&.........151=&.......151=&....5r555= X.<28twe6wwq6qw7wtew88",
"6222<2:26222<2:<::::**..&15555=.....151=&.........151=&.........151=&.........151=&.......151=&....5r555= X.<28twe9qwq66qwwew866",
"22:2222222:22222<<<*:*..&15555=.....151=&.........151=&.........151=&.........151=&.......151=&....5r555= X.<28ee9qqqw639q9w6666",
"22323323223233236:<*:*..&15555=.....151=&.........151=&.........151=&.........151=&.......151=&....5r555= X.<27ew9qq93w389978863",
"2<3332<22<3332<22:<<:*..&15555=.....151=&.........151=&.........151=&.........151=&.......151=&....5r555= X.<28ew9988733999w7633",
"7722<277338863<22:<<:*..&15555=.....151=&.........151=&.........151=&.........151=&.......151=&....5r555= X.<28ww9968w23888w6622",
"327733<338ww682-::--:*..&15555000005555000005.....151=&.........151=&.........151=&.......151=&....5r555= X.<28wq7w6w36378786622",
":327::7:388w8632::--:*.+&15555555555555555551.....151=&.........151=&.........151=&.......151=&....5r555= X.<28wq76387787w776322",
"<<22<:<<6888633<<<::<*.+&15555505555555550551.....151=&.........151=&.........151=&.......151=&....5r555= X.:28q7733763687673322",
":<333<3:368632<<<<::<*.+&155550p055555550i051.....151=&.........151=&.........151=&.......151=&....5r555= X.::8q7763632223883333",
"<373<:::<223228:32--<*.+&15555151555555515151.....151=&.........151=&.........151=&.......151=&....5r555= X.-:8q87623233<8663333",
"3<:3333:3<:3333:22--<*.+&155551=155555551=151.....151=&.........151=&.........151=&.......151=&....5r555= X.-:8q76323333637<3322",
"32<2263<32<2263<**<<:*..&15555515555555551551.....151=&.........151=&.........151=&.......151=&....5r555= X.%:8q63<<6823<33333<2",
"2228323<2228323<**<<:*..&15555555555555555551.....151=&.........151=&.........151=&.......151=&....5r555= X.%:8866<276263222<<:2",
":<<882<*:<<882<*--:::*..&15555555555555555551.....151=&.........151=&.........151=&.......151=&....5r555= X.%:3866622736<2<::<22",
"2<3332::2<3332::--:::*..&15555555555555555551.....151=&.........151=&.........151=&.......151=&....5r555= X.%:38632<327382<:2322",
"7<33<<--7<33<<--<<::**..&1555551==15555555551.....151=&.........151=&.........151=&.......151=&....5r555= X.%<<8666<<372322::<<2",
"2:<3<:--2:<3<:--<<:***..&1555550=.r5555550551.....151=&.........151=&.........151=&.......151=&....5r555= X..:<68632223633222:<3",
"2<<6:::<2<<6:::<:::**$..&155555r=.i555550i051.....151=&.........151=&.........151=&.......151=&....5r555= X..--3788222<366222<<6",
"<<33::<<<<33::<<:****+..&155555r=.r5555515151.....151=&.........151=&.........151=&.......151=&....5r555= X..%-33222:<<32227<<33",
":::::::::::::::::***$+..&1555550=.r555551=151.....151=&.........151=&.........151=&.......151=&....5r555= X..%%:::::::::::::::::",
"%%%%%%%%%%%%%%%%%%$++...&1555550=&05555551551.....151=&.........151=&.........151=&.......151=&....5r555= X.....%%%%%%%%%%%%%%%%",
"........................&15555500005555555551.....151=&.........151=&.........151=&.......151=&....5r555= X..+..................",
"++++++++++++++..........&15555555555555555551.....151=&.........151=&.........151=&.......151=&....5r555= X..+$2wuuutw88833<$+++",
"+++++++-:3332322<<-.....&15555555555555555551.....151=&.........151=&.........151=&.......151=&....5r555= X..+$wutqqww667w73;$++",
"++++$36qwweeeeqq88<*$...&15555555555555555551.....151=&.........151=&.........151=&.......151=&....5r555= X..+:wqq8878667783;*++",
"+++$3qetttttttew87<:*%..&15555505555555550551.....151=&.........151=&.........151=&.......151=&....5r555= X..+:382222222222<;$++",
"+++$6etuuaueyyeq66<-$$..&155550i055555550i051.....151=&.........151=&.........151=&.......151=&....5r555= X..+$*33<<<<<<<<;;:$++",
"+++$6euuaauttyew83<-$$..&15555151555555515151.....151=&.........151=&.........151=&.......151=&....5r555= X..++$***********$$+++",
"+++$6euuautetewq7<<-$$..&155551=150rr0551=151.....151=&.........151=&.........151=&.......151=&....5r555= X.++++++++++++++++++++",
"+++$6eauuateeteq73<-$$..&15555111111111111111.....151=&.........151=&.........151=&.......151=&....5r555= X.*-388qqqwwqqw83<<+++",
"+++$qeuuutteyew966<-$$..&15555&.....&&&&&.........151=&.........151=&.........151=&.......151=&....5r555= X.<9eeewwwqq888883<*++",
"+++$qeuaueweey9832-:$$..&15555=.....=1=&&.........151=&.........151=&.........151=&.......151=&....5r555= X.3eeewyteww8w88883*++",
"+++$qetuettweeq932-*$$..&15555=.....151=&.........151=&.........151=&.........151=&.......151=&....5r555= X.3eewyyewqw8qqq662*..",
"+++$qetetewwye973<--$$..&15555=.....151=&.........151=&.........151=&.........151=&.......151=&....5r555= X.3ewwqq8w88w8qq632*..",
"+++$qettee8qee7623<*-$..&15555=.....151=&.........151=&.........151=&.........151=&.......151=&....5r555= X.3twq766678qq83232*..",
"+++$qetwqtwewe9832-*-$..&15555=.....151=&.........151=&.........151=&.........151=&.......151=&....5r555= X.3tq7673368q833322*..",
"+++$qetqeweqwq982<::$$..&15555=.....151=&.........151=&.........151=&.........151=&.......151=&....5r555= X.8tq7633336332222<*..",
"+++$qew8qeqwq88622:-$$..&15555=.....151=&.........151=&.........151=&.........151=&.......151=&....5r555= X.7tq8636663<7<2<2<*..",
"+++$qeqq8q8e986722:-$$..&15555=.....151=&.........151=&.........151=&.........151=&.......151=&....5r555=  .7tq8669899<3<<2:-*..",
"+++$qe88qeeqq8972<:-$$..&15555=.....151=&.........151=&.........151=&.........151=&.......151=&....5r555= #.3tqqqqq7393<3;<<:*..",
"+++$qe668qqqq6663<:-$$..&15555=.....151=&.........151=&.........151=&.........151=&.......151=&....5r555= #.<tqq6q933662<2<:**..",
"+++$qe86wqewwe87<::%$$..&15555=.....151=&.........151=&.........151=&.........151=&.......151=&....5r555= #.6tq888q3722;23:-**..",
"+++$qeq8qqqwwe662<:-$$..&15555=.....151=&.........151=&.........151=&.........151=&.......151=&....5r555= #.3tq88ww6733<;<--**..",
"+++$qeq8wwwwee962<:-$$..&15555=.....151=&.........151=&.........151=&.........151=&.......151=&....5r555= X.<tq8897632<<-:-***..",
"+++$qeq88ewwee932<:%$$..&15555=.....151=&.........151=&.........151=&.........151=&.......151=&....5r555= X.7tq8696663<--;*%**..",
"+++$qeq68wwwww622<:-$$..&15555=.....151=&.........151=&.........151=&.........151=&.......151=&....5r555=  .2tqw7qq83<<--*$%**..",
"+++$qe88qwewew322::%$$..&15555=.....151=&.........151=&.........151=&.........151=&.......151=&....5r555= #.2tq77ww633---%%*%*..",
"+++$qeq8qqqwww3<<2:%$$..&15555=.....151=&.........151=&.........151=&.........151=&.......151=&....5r555= #.2tqqww62<<<-:*%%%*..",
"+++$qe868ewqwq62:22%$$..&15555=.....151=&.........151=&.........151=&.........151=&.......151=&....5r555= #.2tqq9w7622:---**%*..",
"+++$we688qqqqq9<<::%$$..&15555=.....151=&.........151=&.........151=&.........151=&.......151=&....5r555= #.2tq998w732:****%**..",
"+++$we88888qq933<2-%$$..&15555=.....151=&.........151=&.........151=&.........151=&.......151=&....5r555= X.2tq9q967<<:*;*%:$*..",
"+++$weqq88886763<<:%$$..&,5555=.....151=&.........151=&.........151=&.........151=&.......151=&....5r555=@X.2tq88q92<::*-%*;%*..",
"+++$weqwqq888q63::-%$$..&15555=.....151=&.........151=&.........151=&.........151=&.......151=&....5r555=Oo.:tqw9q92:::**%%$%*..",
"+++$wqq6qq88383<::-%$$..&15555=.....151=&.........151=&.........151=&.........151=&.......151=&....5r555=.o.<tq9w77<*;;**$%-%$..",
"+++$wqqwq83626<:<:-$$$..&15555=.....151=&.........151=&.........151=&.........151=&.......151=&....5r555=.o.<tq7qq3<;;;**%%%%*..",
"+++$wqq86686233<<*%%$$..&15555=.....151=&.........151=&.........151=&.........151=&.......151=&....5r555=.o.<t877977;;-;*%%***..",
"+++$w8663676323<:*%$$$..&15555=.....151=&.........151=&.........151=&.........151=&.......151=&....5r555=.o.<t87933;;--:**;%*$..",
"+++$w866337322:-:*-$$$..&15555=.....151=&.........151=&.........151=&.........151=&.......151=&....5r555=...-e8q3322-;::*;;%**..",
"+++$88663386622<-*-$$$..&15555=.....151=&.........151=&.........151=&.........151=&.......151=&....5r555=...:e8q372-;::<;;;$**..",
"+++$8863336232<<-*%$$$..&15555=.....151=&.........151=&.........151=&.........151=&.......151=&....5r555=...;633323;<--;-$;%$*..",
"+++$666322622::--*$$$$..&15555=.....151=&.........151=&.........151=&.........151=&.......151=&....5r555=...<63<<3<***-;*$$$$*..",
"+++$666332322:-:--$$$$..&15555=.....151=&.........151=&.........151=&.........151=&.......151=&....5r555=...:3332<:*---;%;%*$;..",
"+++$663<3<22<;::%$$$$$..&15555=44455151===15555555151===15555555151===15555555151===155555151==11115r555=...:3<::3-****;$$%$$;++",
"+++$663333223<;;$$$$$$..&155550rrrrr051=10rrrrrrrr051=10rrrrrrrr051=10rrrrrrrr051=10rrrrrr051=1000000555=...-<3<::-***$$$$$$$;++",
"+++$<<272<<;;;<;$$$$$$..&1555555555555555555555555555555555555555555555555555555555555555555555555555555=...;<<:---***$$$$$$$;++",
"$$$$<<<2<;;<;<<;;$$$$$..&1555555555555555555555555555555555555555555555555555555555555555555555555555555=...;;;;-***$$*$$$$$$-++",
"----------------------..#================================================================================...;::::*::**:****::---",
"----------------------..#################################################################################...--------------------"
};
