/* XPM */
static char *_54d2f843a5d4150adcc180c8bc85593RuYUPVeKj702qPZK[] = {
/* columns rows colors chars-per-pixel */
"64 64 61 1 ",
"  c #2D2D2D",
". c #2E2C2D",
"X c #2C2E2D",
"o c #2E2E2C",
"O c #2F2E2C",
"+ c #2F2D2E",
"@ c #2D2F2E",
"# c gray18",
"$ c #2F2F2F",
"% c #2D2E30",
"& c #2E2E30",
"* c #2E2F31",
"= c #382F4A",
"- c #36304A",
"; c #393149",
": c #39304B",
"> c #3A304B",
", c #39304D",
"< c #3A314C",
"1 c #3B314C",
"2 c #3B2E59",
"3 c #3D2E59",
"4 c #3F2E58",
"5 c #3E2F58",
"6 c #3C2F5A",
"7 c #3C2F5B",
"8 c #3F2E5A",
"9 c #3E2F5A",
"0 c #3E2E5B",
"q c #3F2E5B",
"w c #3C3058",
"e c #3D305B",
"r c #3F305B",
"t c #402F5B",
"y c #553F63",
"u c #573F63",
"i c #554061",
"p c #544063",
"a c #564162",
"s c #554164",
"d c #564064",
"f c #574165",
"g c #554166",
"h c #564066",
"j c #584064",
"k c #594165",
"l c #83568D",
"z c #85568D",
"x c #86578D",
"c c #84578E",
"v c #87568E",
"b c #86578E",
"n c #87588F",
"m c #875590",
"M c #865690",
"N c #875791",
"B c #BE9BB1",
"V c #BE9BB3",
"C c #BF9CB2",
"Z c #BF9CB4",
"A c #C09AB1",
/* pixels */
"########&#######&################################&##############",
"#############################################################&##",
"##bbBBBBBBBABBBBBBBABBBBbb##bbBABBBBBBBBBZBBBABBBBBBBBBBBBbb##bn",
"##bbBBBBBBBBBBBBBBBBBBBBMM##bbBBBBBBBBBBBBBBBBBBBBBBBBBBCBbb##bb",
"##BBbbbbbbbbbbbbbbbbbbbbBB##BBbbbMbbbbbbddbbbbbbdybnbbbbbbBB##BB",
"##BBbbbbMbbbbnbbMbbbbnbbBB##BBbbbbMbbbbbddbbbbnbadbbbbbbbMBB##BB",
"##bbbbddddddydbbddddydbbMb##bbbbadddbbddddddbbddddddddddddbb##bb",
"##bbbbddddddddMbddddddMbbb##nbbMddddbMddddddbbddddddddddddbb##bb",
"##bndddddddddydddddd9999bn##Mb9999dddddddddddddddddydd99dddd##dd",
"##bbdddddddydddddaad9999bn##bb9999dddddddddddddddddddd99addd##jd",
"##ddbbdddj9999999999999999##999999999999dddd9999999999999999##99",
"##ddbbdddj9999999999999999#&999999999999dddd9999999999999299##99",
"##99dddd9999999999999999######999999r999999999r99999999999######",
"##99dddd9999999999999999######9999999999999999999999999999######",
"##########&#####################################################",
"#################################&####################&#########",
"##djbbMbbbbbbbbbbbbbbbbbbbbbbbbbbbbbbbbbbb######bbbbbbbbbbbbbbbb",
"##ddbbbbbbbbbbbbbbbbbbbbbbbbbbbbbbbbbbbbbb######bbbbbbbbbbbbbbbb",
"##bbbbMbbbbbbbbbbbbbbbbbbbbbbbddadbbbbbbbbbb##Mbbbbbbbbbbbddddbb",
"##bbbbnbbbbbbbbbbbbbnbbbbbbbbbddddbbbbbbbbbb##bbbbbbbbbbbbddddbb",
"##bbbbydddddbnddddbbjdddddbbddddddddbbddMMbb##bbbbydbndddddddddd",
"##bbbbdddddynbddddbbddddddbbddddddddbbjdbbbb##bbbbddbbdddddddddd",
"##bbddbMddddddjddydddd99dddddd999999dddd99bb##bb99dddddddd9999dd",
"##bbddbbydyddddjddddyd99dddddd999999dddd99bb##bb99dddddddd9999dd",
"##bndddddddddd99dddd999999dddddddddddd999999##999999dddd9999dddd",
"##bbdddddddddd99daad999999dddddddddddd999999##999999daad9999daad",
"##ddbbddaddd99999999999999999999addd99999r99#&999999999999999999",
"##ddbbdddddd99999999999999999999dddd99999999##r99999999999999999",
"##99dddd99999999999999999999r9999999999999######9999999999999999",
"##99dddd9999999999999999999999999999999999######9999999999999999",
"########&#######################&###############################",
"##############&##########&############&#########################",
"##ddbbbbbbbbbbbbbbbb######dddddddddddddddadddddydd#&####dddddddd",
"##ddbbbbbbbbbbbbbbbb####&#jdddddjddddddddddddddddd######dddddddd",
"##bbbbbbbbbbbbddbbnbbb##dddddydddddd99dddddddddddddd##dddddd99dd",
"##bMbbbbbMbbMbddbbbbbb##jddddddddddd99dddddddddddddd##ddjddd99dd",
"##bbbbbbddbbddddddMbbb##dddd9999dd99999999dd9999dddd##dddd999999",
"##blnbbbddMbddddddbbbM##dddd9999da99999999dd9999dddd&#dddd999999",
"##bbbbdddy99ddddddddbb##dd9999929999::999999999999yd##dd99999999",
"##bbbbdayd99ddddddddbb##dd9999999999::r99999999999dd##dd99999999",
"##bbddbMdadd99dddddd99##=:99999999:<::999999999999::##::99999999",
"##bbddbbdddd99jdaddd99##<:99999999::::999999999999::##::99999999",
"##bbdddddddd9999dd9999##::::99::-:-<9999::999999<<::##::::999999",
"##bbaddddddd9999dd9999##::::99::::::9t99:-999999::::##:::-999999",
"##ddbbdddd9999999999r9##::::::::::::::::::::99::::::##::::::99::",
"##ddbbdddd999999999999##::::::::::::::::::::99::=:::##:<::::99::",
"##99dd99999999999999######:::::::::::::::::::::::<######::::::::",
"##99dd99999999999999######=:::<::<::::::::::::::::######::::::::",
"#&#&####################&#######&############&########&#########",
"&###############################################################",
"##ddbbbbbbbbbbbbbbbbbbbbMbbbbbbbMbbbbbbb######dddddddddddydddddd",
"&#ddbbbbbbbbbbbbbbbbbbbbbbbbbbbbbbbbbbbb######dddddddddddddddddd",
"##bbbbbbddbbbbbbbbbbbbbbbbddbbbbbbddbbbbbb##dddddddddddddddd99dd",
"##bbbbbbddbbbbnbbbbbbbbbbbddbbbbbbddbbbbbb##ddddyddddddddddd99dd",
"##bbbbbbbbddbbbbbbddddbbddddddbbddddddbbbb##dddd9999dd9r99999999",
"##bbbbbbbbddbbbbbbddddbbddddddbbddddddbbbb##dddd9999dd9999999999",
"##bbMbddddbM99nb99dddddddddddd99djdddd99bb##da<:999999999999::99",
"##bbbbddddbb99bb99ddddddddddda99jddddd99Mb##dd::999999999929::92",
"##bbdddddjdd9r999999dd9999dddddddddd999999##::::::999999t9:::<99",
"##bndddddddd99999999dd9999dddddddddd999999##:::::-99999999::::99",
"##ddMbdddd9999999999999999999999dd99999999##::::::::99::::::::::",
"##ddbbdddd9999999999999999999999dd9999999t##::::::::99::::::::::",
"##99dd9999r99999999999999999999999999999##&###=:::::::::::::::::",
"##99dd9999r99999999999999999999999999999######::::::::::::::::::"
};
