/* XPM */
static char *d3dff47dfde84a93ef1a8d56e92d7741q09BNWItpje0uDiG[] = {
/* columns rows colors chars-per-pixel */
"64 64 52 1 ",
"  c gray22",
". c #2C2C2C",
"X c gray33",
"o c #202020",
"O c #484848",
"+ c gainsboro",
"@ c gray66",
"# c gray44",
"$ c #C0C0C0",
"% c #D0D0D0",
"& c #7C7C7C",
"* c gray55",
"= c #646464",
"- c #B4B4B4",
"; c #989898",
": c #DC8854",
"> c #C87C4C",
", c #FC9C60",
"< c #FCB080",
"1 c #BC7848",
"2 c #FCB890",
"3 c #FCBC9C",
"4 c #D08050",
"5 c #FCC4A4",
"6 c #F0945C",
"7 c #A86840",
"8 c #FCA470",
"9 c #B47044",
"0 c #9C6038",
"q c #885830",
"w c #80502C",
"e c #382C14",
"r c #ECECEC",
"t c #905C34",
"y c #5C4020",
"u c #FCD4BC",
"i c #E88C58",
"p c #744C28",
"a c #543C1C",
"s c #A0643C",
"d c #483818",
"f c #D40000",
"g c #7C0000",
"h c #A80000",
"j c #980000",
"k c #A40000",
"l c #FC0000",
"z c #880000",
"x c #700000",
"c c #640000",
"v c #4C0000",
"b c #6C4824",
/* pixels */
"                                                                ",
"................................................................",
"XXXXXXXXXXXXXXXXXXXoooooXXXXOOOOOOOOXXXXXXXXXXXXXXXXXXXXXXXXXXXX",
"X++++++++++++++++++++@#oXO@$+++++++%@&O XX#@+++$@**#=XOOOOOOOOOX",
"X+++$$$$$$$&&&&&&&&&&&&&&#############################+++++%$$-;",
"X++$*;@@@@@&OOOOOOOO                  oooooooooooooooo++++++++++",
"X+$@@@&*@@;&O;;;;;;;;;;;;;;;;;;;;;;;;;;;;;;;;;;;;;;;Xo#@@**@@**@",
"X-$*@*@&@*;&O;;;;;;;;;;;;;;;;;;;;;;;;;;;;;;;;;;;;;;;Xo#&*@*&*@**",
"X-$;@@*@***&O;;;;;;;;;;;;;;;;;;;;;;;;;;;;;;;;;;;;;;;Xo#;@*@;@*@;",
"X*$*;*@*@;@&O;;;;;;;;;;;;;&=OOOOOOO&*;;;;;;;;;;;;;;;Xo#;;@@;;@&;",
"X*$**;*****&O;;;;;;;;;;;;XOOoooooooooOO&;;;;;;;;;;;;=o#@*@*@*@*;",
"o#$@*;@@;*;&O;;;;;;;;;;;XOoo  X     oooO;;;;;;;;;;;;=o#*;;;*;;;*",
"oX$*;*@**;@&O;;;;;;;;;;:>#   XX*&X OX  oo;;;;;;;;;;;=o#*##==XXXX",
"oX$&@@*;*;@&O;;;;;;;;;;,<<<#>1#&*=.=#= .oO;;;;;;;;;;=oXXXXXXXOO ",
" X&XXXXX=#&& ;;;;;;;;;:<223<#41XX .OXOO.oo=;;;;;;;;;=oOO  .ooooo",
" oooo OOXXX& ;;;;;;;;;,<225<#4    .    .ooO;;;;;;;;;=ooooooooooo",
"X oooooo...& ;;;;;;;;,<<25<<<6    .    .oo.;;;;;;;;;=oo..     OX",
"*&#XO  oooo& ;;;;;;;;>7185<<<<900qw   .ooo.;;;;;;;;;=oXXXXXX#&@@",
"+++$$@*&XXX& ;;;;;;;;;eeq15<<2867777w ooo..;;;;;;;;;#o# XX&;$rrr",
"+++++++++++& ;;;;;;;;2>O186<5866:667tyooo.O;;;;;;;;;#oX X*$++-$;",
"@@$$%++++++& ;;;;;;;2u<:8<<<866i,y76yyoo.O#;;;;;;;;;#oX X@+%$$;-",
"*@@@;*$$@$@& ;;;;;;5u58,:2<866i:84w8yyoo.#;;;;;;;;;;#oX X$+-@;;@",
"@****@;*;*@& ;;;;;;i111>,:,,,i::4761yyo.O;;;;;;;;;;;#oX X$+$*;**",
"**;*;@@@@;*& ;;;;;;;;oy8:8,,6i:>,84pyyo.#;;;;;;;;;;;#oXoX$+@***;",
"*@@*@;@*;@@& ;;;;;;;;y0<8686i>174qpppyyO;;;;;;;;;;;;#oXoO++*;@@;",
"@**@*;****@& ;;;;;;;;2,,<866>7701:ttpyy#;;;;;;;;;;;;#oXoO++@*;**",
"*@**;*@;*@;& ;;;;;;;;486<8,i>70098:1qyy;;;;;;;;;;;;;#oXoO++*@;;;",
"XXXX##*****& ;;;;;;;;828:,:10t09888617pp;;;;;;;;;;;;#oXoO+@&XXXX",
"XXXXXXXXXXX& ;;;;;;;;68:170tt09:8811twpp&*;;;;;;;;;;#o oO@&XXXXX",
"ooooo      & ;;;;;;;;;;;0qqq09:811tttwwapp#*;;;;;;;;#ooooooooooo",
"ooooooooooo& ;;;;;;;;;;;;;909981tt0tqpawwppp#*;;;;;;#o  oooooooo",
"XXO  ...ooo# ;;;;;;;;;;;*49948tt000pawsssttwqp#*;;;;#oXXXXXXX XX",
"XXXXOOOOOOO#o;;;;;;;;;**414490099paws999999900qp#;;;#o&*+++$@. X",
"XX#@-++++++#o;;;;;;;;*#4414>s99qaws999999999990qp&;;#o*-++$@#..X",
"XO@++++++++#o;;;;;;;*#p4s44>>9pa0999970w00999990wp&;#o#@*@*#Xo.X",
"XO-+-@@@*@*#o;;;;;;;#wp4s44>9pps99997sww0000qqqqqwp;#o#;***X ooX",
"XO++*@*@@@*#o;;;;;;*wwp4ws49pp999999stpw00q000qqqqp;#o#*@**X ooX",
"XO++@;;*;*@#o;;;;;;#ttp0pspas9999997twyy9999900qwwy;#o#@;@;X ooX",
"XO++*;*@*;*#o;;;;;;0ttpwpsst9999999swyy994999090ppd;#o#;;*;X ooX",
"XO+@**@****#o;;;;;*0ttypqss999999977wy9949940t90pyd;#o#*;;@X ooX",
"XO@###**;*@#o;;;;;#0ttppss11>>99990wyy9499490t9qpyd;#o#@;*@X ooX",
"XOXXXO#@@**#o;;;;;s0ttpqs11>>111p0qyy0099940ts9qpyd;#o#*@@*X ooX",
"XO  ooOXXXX#o;;;;*sstppss11>111p0qqy;++0449st99wydX;#o#@*;*X ooX",
"XXXX oo    #o;;;;#stttpsstpdd11pqyy;..X+f4p0t99pyd#;#o#*;*@X ooX",
"XXXXX ooooo#o;;;*00ttpqs911ddppqy;.+.%+++fpt099pyd&;#o#;**#X ooX",
"XXXXXX  ...#o;;;#777tpss11>w7qqyg;X....X$hjjt99pdy;;#oXXXXXX ooX",
"XXOOXXXXXXX#o;;;0077pps911>t7qqgkl+++.+.;hjzztqpdy;;#o       ooX",
"X;$$$$-;#=X#o;;;97ttpws91117qy0jjf;..X+;&jzzgxpdyy;;#ooooooooo X",
"X$+++++++++#o;;;9t7tsts9111qyi1>waf;$$;&jzzgxcpdyy;;#oooooooo  X",
"X$++%%%%%%%#o;;:>9tp900qqq1i>si>>waffhjjzzgxccvyyp;;#o......  XX",
"X$+%;****@@#o;;:4>99900000iiissi199aajjzzgxccvyypp;;#oXOOOOOOOOo",
"X$%;**;@@@;#o;;;:44::000>>ii>i1ii900aazzgxccvyyypq;;#o**@@@@@@&o",
"X$%*;@***;*#o;;;;::;::991ii11>iii>00pazgxccvyyyqq0;;#o*-+++++$Xo",
"X$%@*@@*@;*#o;;;;;;;;;>>9i17700>>>0qbaaxcvyyyypq09;;#o#@@**@**Xo",
"X$%@@;*;***#o;;;;;;;;;6>>19977wwwwqpppbcvyyppqt09>;;#o#@*@**@*Xo",
"X$%*;*@*@*@#o;;;;;;;;;;6>>>>>1997qqqqqqvyppqt09>>,;;#o#**@*;*@Xo",
"X$%@*;***;*#o;;;;;;;;;;;;6:::::::>>7000pqqt09>>,,;;;#o#*;*@*@*Xo",
"X$%*@*;****#o;;;;;;;;;;;;;;;66666666644444>>,,;;;;;;#o#@*;*;;=Xo",
"X$%**;*****#o;;;;;;;;;;;;;;;;,,,;;;;;iiiiiii;;;;;;;;#o=======XXo",
"X$%@*****@*#o;;;;;;;;;;;;;;;;;;;;;;;;;;;;;;;;;;;;;;;#oXXXXXXXX o",
"X$%***@*;*@#oXXXXX=======############################ooooooooooo",
"X;-========#oooooooooooooooooooooooooooooooooooooooooooooooooooo",
"XX#OOOO        .o..oooooooooooooooooooooooo....      o         X",
"XooooooooooooooooXXO ..................... XXXXXXXXXXXXXXXXXXXXX"
};
