/* XPM */
static char *_d3e14b49d5b4e6eaf61f77f37fcf91bj4KGZmT1WfFqt8BF[] = {
/* columns rows colors chars-per-pixel */
"64 64 60 1 ",
"  c #403018",
". c #6C4824",
"X c #905C34",
"o c #543C1C",
"O c #382C14",
"+ c #28200C",
"@ c #483818",
"# c #744C28",
"$ c #5C4020",
"% c #B4AC00",
"& c #9C9C00",
"* c #B45400",
"= c #FC8820",
"- c #FC7800",
"; c #E46C00",
": c gray33",
"> c #646464",
", c gray44",
"< c #989898",
"1 c #7C7C7C",
"2 c #484848",
"3 c gray55",
"4 c #202020",
"5 c gray22",
"6 c #DC8854",
"7 c #C87C4C",
"8 c #FC9C60",
"9 c #FCB080",
"0 c #BC7848",
"q c #2C2C2C",
"w c #FCB890",
"e c #FCBC9C",
"r c #D08050",
"t c #FCC4A4",
"y c #F0945C",
"u c #A86840",
"i c #FCA470",
"p c #B47044",
"a c #9C6038",
"s c #885830",
"d c #80502C",
"f c #FCD4BC",
"g c #E88C58",
"h c #CCC400",
"j c #E4D800",
"k c #A0643C",
"l c gainsboro",
"z c #D40000",
"x c #D0D0D0",
"c c #7C0000",
"v c #C0C0C0",
"b c #A80000",
"n c #980000",
"m c #A40000",
"M c #FC0000",
"N c #880000",
"B c #700000",
"V c #640000",
"C c #4C0000",
"Z c #9C4C00",
/* pixels */
"                                                                ",
"................................................................",
"XXXXXXXXXXXXXXXXXXXXXXXXXXXXXXXXXXXXXXXXXXXXXXXXXXXXXXXXXXXXXXXX",
"oooooooOo+OooooooooooooooOo+OooooOo+OooooooOo+OoooooooooooOo+Ooo",
"@@.####oX+oX$@@@@##@.@.@@oX+oX#@#oX+oX$@@@$oX+oX@#@@#@#@##oX+oX.",
"@@.###$oX+oX.@@@o##@.@.@@oX+oX#@#oX+oX#$@$#oX+oX@#@@#@#@##oX+oX.",
"@@$##%%%%%%%%%%%%%%%%%%%%%%%%%%%%%%%%%%%%%%%%%%%%%%%%%%%%%&*+oX.",
"o@o.#%=====================-------------------;;;;;;;;;;;**o+oX.",
".@@$#%=@@@@@@@@@@@@@@@@@@@@@@@@@@@@@@@@@@@@@$$$$$$$$$$$$$&*o+oXo",
".@o@$%=@::::::::::::::::::::::>>>>>>>>>>>>>>>>>>>,,,,,,,,%*o+oXo",
"#o@@o%=@:<<<<<<<<<<<<<<<<<<<<<<<<<<<<<<<<<<<<<<<<<<<<<<<<%*o+oXo",
"#o@@@%=@:<<<<<<<<<<<<<<<<<<1>222222213<<<<<<<<<<<<<<<<<<<%*o+oX@",
".#@@@%=@:<<<<<<<<<<<<<<<<<:22444444444221<<<<<<<<<<<<<<<<%*o+oX@",
".#o@@%=@:<<<<<<<<<<<<<<<<:24455:555554442<<<<<<<<<<<<<<<<%*o+oX@",
"$##@o%=@:<<<<<<<<<<<<<<<67,555::31:52:5544<<<<<<<<<<<<<<<%*o+oX@",
"o###o%=@:<<<<<<<<<<<<<<<8999,70,13>q>,>5q42<<<<<<<<<<<<<<%*o+oXo",
"@.##$%=@:<<<<<<<<<<<<<<69wwe9,r0::5q2:22q44><<<<<<<<<<<<<%*o+oXo",
"@.###%=@:<<<<<<<<<<<<<<89wwt9,r5555q5555q442<<<<<<<<<<<<<%*o+oXo",
"@$.##%=@:<<<<<<<<<<<<<899wt999y5555q5555q44q<<<<<<<<<<<<<%*o+oX.",
"@o.##%=@:<<<<<<<<<<<<<7u0it9999paasd555q444q<<<<<<<<<<<<<%*o+oX.",
"@@$##%=@><<<<<<<<<<<<<<OOs0t99wiyuuuud5444qq<<<<<<<<<<<<<%*o+oX.",
"@@o##%=@><<<<<<<<<<<<<w720iy9tiyy6yyuX$444q2<<<<<<<<<<<<<%*o+oX.",
"o@o$o%=@><<<<<<<<<<<<wf96i999iyyg8$uy$$44q2,<<<<<<<<<<<<<h* +oX.",
"o@@o@%=@><<<<<<<<<<<tfti86w9iyyg6irdi$$44q,<<<<<<<<<<<<<<h* +oX.",
"o@@@@%-@><<<<<<<<<<<g000786888g66ruy0$$4q2<<<<<<<<<<<<<<<h* +oX$",
".@@@@%-@><<<<<<<<<<<<<4$i6i88yg678ir#$$4q,<<<<<<<<<<<<<<<h* +oXo",
".@@@@%-@><<<<<<<<<<<<<$a9iyiyg70urs###$$2<<<<<<<<<<<<<<<<h* +oXo",
".o@@@%-@><<<<<<<<<<<<<w889iyy7uua06XX#$$,<<<<<<<<<<<<<<<<h* +oX@",
"$o@@@%-@><<<<<<<<<<<<<riy9i8g7uaapi60s$$<<<<<<<<<<<<<<<<<h* +oX@",
"o.@@@%-@><<<<<<<<<<<<<iwi6860aXapiiiy0u##<<<<<<<<<<<<<<<<j* +oX@",
"o.o@@%-@><<<<<<<<<<<<<yi60uaXXap6ii00Xd##13<<<<<<<<<<<<<<j* +oX@",
"@$o@.%-@><<<<<<<<<<<<<<<<asssap6i00XXXddo##,3<<<<<<<<<<<<j* +oX@",
"@o.o.%-@><<<<<<<<<<<<<<<<<<pappi0XXaXs#odd###,3<<<<<<<<<<j* +oX@",
"@o.o.%-@><<<<<<<<<<<<<<<<3rppriXXaaa#odkkkXXds#,3<<<<<<<<j* +oX@",
"@@$.$%-@><<<<<<<<<<<<<<33r0rrpaapp#odkpppppppaas#,<<<<<<<j* +oXo",
"@@o$o%-@><<<<<<<<<<<<<3,rr0r7kppsodkpppppppppppas#1<<<<<<j* +oXo",
"@@@o@%-@><<<<<<<<<<<<3,#rkrr77p#oappppuadaapppppad#1<<<<<j* +oX$",
"@@@@@%-@><<<<<<<<<<<<,d#rkrr7p##kppppukddaaaasssssd#<<<<<j* +oX.",
"@@@@@%-@><<<<<<<<<<<3dd#rdkrp##ppppppkX#daasaaassss#<<<<<j* +oX.",
"o@@@@%-@><<<<<<<<<<<,XX#a#k#okppppppuXd$$pppppaasdd$<<<<<j* +oX.",
"o@@@@%-@><<<<<<<<<<<aXX#d#kkXpppppppkd$$pprpppapa##@<<<<<j* +oXo",
".o@@@%-@><<<<<<<<<<3aXX$#skkpppppppuud$pprppraXpa#$@<<<<<j* +oXo",
".o@@@%-@><<<<<<<<<<,aXX##kk0077ppppad$$prpprpaXps#$@<<<<<j* +oX@",
".$o@o%-@><<<<<<<<<<kaXX#sk0077000#as$$aapppraXkps#$@<<<<<j* +oX@",
"..ooo%-$><<<<<<<<<3kkX##kk007000#ass$<llarrpkXppd$@:<<<<<j* +oX@",
"$.$o$%-$><<<<<<<<<,kXXX#kkX#@@00#s$$<qq:lzr#aXpp#$@,<<<<<j* +oX@",
"o..$.%-$><<<<<<<<3aaXX#skp00@@##s$<qlqxlllz#Xapp#$@1<<<<<j* +oX@",
"o..$.%;$,<<<<<<<<,uuuX#kk007duss$c<:qqqq:vbnnXpp#@$<<<<<<j* +oX@",
"@.###%;$,<<<<<<<<aauu##kp007XusscmMlllqlq<bnNNXs#@$<<<<<<j* +oX@",
"@$###%;$,<<<<<<<<puXX#dkp000us$annz<qq:l<1nNNcB#@$$<<<<<<j* +oX@",
"@o.##%;$,<<<<<<<<pXuXkXkp000s$g07doz<vv<1nNNcBV#@$$<<<<<<j* +oX@",
"@o.##%;$,<<<<<<<67pX#paasss0g7kg77dozzbnnNNcBVVC$$#<<<<<<j* +oXo",
"@@$#.%;$,<<<<<<<6r7pppaaaaagggkkg0ppoonnNNcBVVC$$##<<<<<<j* +oXo",
"@@o..%;$,<<<<<<<<6rr66aaa77gg7g0ggpaaooNNcBVVC$$$#u<<<<<<j* +oX$",
"@@o.$%;$,<<<<<<<<<66<66pp0gg007ggg7aa#oNcBVVC$$ssu0<<<<<<j* +oX$",
"@@@$$%;$,<<<<<<<<<<<<<<7rrrr0uaa777as.ooBVC$$$suu0<<<<<<<j* +oX.",
"@@@oo%;$,<<<<<<<<<<<<<<<ggrrrrrrrrrr0ss4c4#suu0<<<<<<<<<<j* +oX.",
"o@@@@%;$,<<<<<<<<<<<<<<<<<<<<<<<<<<<<<<<<<<<<<<<<<<<<<<<<j* +oX#",
"o@@@@%;;%%%%%%%%%%%%%hhhhhhhhhhhjjjjjjjjjjjjjjjjjjjjjjjjjj* +oX#",
"$@@@@%***************************************************** +oX#",
"$o@@@Zoooooo                           OOOO                 +oX#",
".o@@@o.oo++oOOO @ OOOO$$@oo++o$$$OO++oOOOOO@@++@@@@@OOOOO@@++oX#",
".$@@@o.oX+oX@@@@$@@@@.##$oX+oX.$@oX+oX@@@@@oX+oX$@#$@@@@@@oX+oX#",
"$$$$$$$oX+oX$@@@@@@@$$$$$oX+oX$@@oX+oX$@@@$oX+oX$@$$@@@@@@oX+oX$"
};
