/* XPM */
static char *result[] = {
/* columns rows colors chars-per-pixel */
"128 128 71 1 ",
"  c #010000",
". c #000001",
"X c #070000",
"o c #0B0000",
"O c #0F0000",
"+ c #130000",
"@ c #1B0700",
"# c gray12",
"$ c #230B00",
"% c #370000",
"& c #2B1700",
"* c #372300",
"= c #373700",
"- c #3F3300",
"; c #232323",
": c #2F2F2F",
"> c gray20",
", c #373737",
"< c gray23",
"1 c #430000",
"2 c #4B0000",
"3 c #570000",
"4 c #630000",
"5 c #6F0000",
"6 c #770000",
"7 c #43331B",
"8 c #434300",
"9 c #4B4300",
"0 c #4F4F00",
"q c #535300",
"w c #5F5F00",
"e c #6B6B00",
"r c #777700",
"t c #434343",
"y c #4B4B4B",
"u c gray34",
"i c #5B5B5B",
"p c #676767",
"a c gray45",
"s c gray50",
"d c #830000",
"f c #8F0000",
"g c #9B0000",
"h c #A70000",
"j c #B30000",
"k c #BF0000",
"l c #CB0000",
"z c #D70000",
"x c #E30000",
"c c #EF0000",
"v c red",
"b c #878700",
"n c #939300",
"m c #9F9F00",
"M c #AFAF00",
"N c #BBBB00",
"B c #C7C700",
"V c #D7D700",
"C c #E3E300",
"Z c #EFEF00",
"A c yellow",
"S c #FFFF57",
"D c gray56",
"F c #9B9B9B",
"G c gray67",
"H c #B7B7B7",
"J c #C3C3C3",
"K c LightGray",
"L c #DFDFDF",
"P c #EFEFEF",
"I c white",
/* pixels */
"::::::::::::::::::::::::::::::::::::::::::::::::::::::::::::::::::::::::::::::::::::::::::::::::::::::::::::::::::::::::::::::::",
"::::::::::::::::::::::::::::::::::::::::::::::::::::::::::::::::::::::::::::::::::::::::::::::::::::::::::::::::::::::::::::::::",
"<<aHKPPPKPPKPKLLPKLLLLLLJFu:<<<<yyyuaFFFayy:::pKKKLLLLLLLLLLLLLLLLLLLLLLLLLLLLLKKu<::<uaFFp<<<<<<<<<<<<pFLLLLLLLLLLLLLKPKPKHa<..",
"<uFKHFHGGGHHDGGGDGGGDGDGDsy:<<<<yaGPPKKJGFa::pFKKJLJJJJGJGJJGHHGHGJJGHHGHGJHJJHHKF<::aFGJKPKGuy<<<<<<<<HLHDGDGGGGDGGGGGGHHKGsu..",
"<uFPHDGDHDGDGHDDGHDDGDDp<<<<<<<pGKPKHGGGGJDu:pGKJHHGGKGGFGGGGGGGGGGGGGGGGFFFHHFKFFp:<DJGGGHKPKGy<<<<<<<HLHssDDGDDDDGDDHGGDDGau::",
"<uFPHFDDFDGHDGDGDGDGHsp<<;;<<<pGKHGHGGGHHJFa::FKJHGGGGGGKDGDDFFDGDGDDFFDGFFFsDDJJFp:yFJHGGGHGHKGp<<<<<;yGLGFFDGDDFDGDDFDDFDDau::",
"<uFKFFDHDFDFDDDDDDDsp<;;;;:<<<aKJFFGGGHHHGJFp:pGJHGJFGDKGJDsFDDsFJDsFDDsFGsDGDGFFp<:FJGHHGGGFFJKaa<<<<;;ysFHFDDFFGDDFFDHDDFFau::",
"<uFKFFFGDGHDFDDHDsp<;;;:<<<<<<aKJJGJGJGGHHJFD:uFKFGGHDFFJGGDDDDDsGGDDDDDssDFDGDDFu:yFJHGGJGJGJJKaa<<<<<<;yysHHFFDHHFDGDGFDDDau::",
"<uFJDDDFGDGDGDFDpy<;:yyaDDa:<:uHGGJFFGJDJGGJFp:aGJGGGGFJFDFDGFsDDDFDGFsDDDDDDsDFD<:FJGJDJGFFJGGHup::aDDay<<usFHHFDGDGGGFDFDFau::",
"<uFJGsFFGDGHDFDpu;:<yaHKKKHp::uaHGGGDGDFFGGGFa:pDKGFGDFGFGFGsGDDGGFGsGDDGFDDGDsFp:yFGGFFDGDGGGHau::pHKKKHay<uDFJHFDGFFDGFDFDau::",
"<uFJDDFDFGDGFDpu;;yaGKHGGHJFp::yaHFGHFDHHHJJFsy:aGJGDGGFFDsFGDDsDDsFGDDsDDGGFDDG<:sFJHHHDFHGFFay::pFJHGFHKGayyuDJHFFDDsFFDDGau::",
"<uFJGFFFGDFFDpu;:<aKHHFFGDHJFp::yaGGGGHFFJFFGDp:pDKFGGFDGHDGDsDGDssFsGFFGFDGFFDp:yDGFJFFHGGGFay::pFJHFGFFGHKa<<uFJGFDFDDDDDDau::",
"<uFJDDFDsDDGpy;;yaPGFDFGFFDFKDp<:yaDFGFsHGGJJDsy:aHJDGGFFFFDGDsDFsDDsDsDFDFGFDa<:sDJGGHsFGFDay:<pDKHFFFFFDFGKa<yaFHGFDFsDFsGau::",
"<uFJFFGFFDDpy;;<aPGFDFDFFGFDGKDp::yaDDGGDFDFDDDa:uFKGDFDGGDDFsDDsGDGDGDDsDDDDDu:yDDFDFDGGDDay::pDKGDFGFFDFDFGKa<yuFJFDDFDDDDau::",
"<uFJDDFDDFpp;;<aHHGFFGFDHFGGFGKDp<:yaDDGsDGDssDsy:aGGFGFFGsDsDsDDsGGDDssssassa<:sDsDGDsGDDay:<pDKGFGGFHDFGFFGHHa<ypFGDGDGDGGau::",
"<uFJFDFDsay<;<aGKGFFDDFHFDFFFDGJDp::yaFFFGDFDssDp:uaFsFGFFFFsDGDGDFDGDDsasssDu:yDsDFDGFFFay::pDJGDFFFDFHFDDFFGKGp<yaGGFFFDFGay::",
"<uFJFDFGauy;:yFGHFFDFGDFDFFDFDGGHDp<:yaDDsDsHDFFpy:yaassDsDsDsssDsDDaFassaaaa<:pFDHsDsDDay:<pDHGGDFDFFDFDGFDFFHGsy<uFJGFGDFGau::",
"<uGGDFGDu<:;<yDFFDDDDGGFFFGsDGsGDHDp<:uaDFsFDssspu:<yuuppappaaappaaappaapuuy<:<pssDFsFDau:<pDHDGsGDsGFFFGGDDDDFFsy<<aFHGJDDDau::",
":yFGDFFp<:;:<usDFDFGFDDDGDGDGDGsDGGDp<:<assasapuu<:;::<<yyyyyyyyyyyyyyyy<<::::uupasassa<:<pDGGDsGDGDGDGDDDFGFDFDsu<<yaFGFFFGau::",
":yDGGFay:;;:<uassFHFGFHDDGDGDGDGGDDGDp::<apapuu<:::::;;;;;;;;;;;;;;;;;;;;;;:;;:<uupapa<::pDGDDGGDGDGDGDDHFGFHFssau<<<uaFHFGGay::",
"<<aaasu;;;::<yuassFFGDFHDFDFGsDFDGDDFsy<:<yy<:::;;;;; ###################### ;,:::<yy<:<ysFDDGDFDsGFDFDHFDGFFssay<<<<<uaDJGFay<<",
"<<yuuy:;uaa<:<<yuasFDGFFDsDDsDsFGDGDDFuy:::::######                            ;;;;<<<:ypFDDGDGFsDsDDsDFFGDFsauy::<<<<:uassaay<<",
"<<<;;;;aKKHFu:::<ypssDGDGFsGDGDDDDssspuy;;######                                  ;;;;;uspsssDDDDGDGsFGDGDssp<<::uFHHau<uuuuu:<<",
"<<<<<:aPKJJHHFu<:<yypssssDFDDDFDDFsauyy<;;                                            ;pspuasFDDFDDDFDsssspy<:<uFHHGFsuu::::::<<",
"<<<<<aPKJGGFFHHFu::<yupaDsFsFDDsDsauyy<;                                              ;:ppuuasDsDDFsFsDapuy<:uFHHFFGHHsau<;;;;<<",
"<<<<<FPJHFHGGFFHKFu:<<yuassFsDsDsuyy<<;                                                ;<uuyyusDsDsFssauy<:uFKHFFGGHFHFap<:;;;<<",
"<<<<aPKFGFGFFGDFFHKGu::yuaaasFsauyy<;;      ...OOXXXOOOOOOOOOOOOOOOOOOOOO       OOOOX   ;:<<yyuasFsaaauy:uGKHFFDGGGFGGGsp<<;;;<<",
"<<<<FPJGFFHFFDFGDFDHKFu:<yupaapyy<:#       X.... XX ;###################@ oo;;o          ;;::<yypaapuy<uFKHDFDGFDFFHGFGFpu<;;;<<",
"<<<<KKHFGGFHFGGDFFDFDHKFu:<yyuy<<:#          O##;# ;::;::;:::;:;;:;;:;:###X;<<;   oo       ;;:<<yuyy<:FKHDFDFFDGGGHFGGFHau<:;;<<",
"<<<aKJHHDFFDGDGGFGHDFGHKKa::<:::;#.       XXO#<,:;X;<,,,,:,::t,,t,,t,t,:;;oo;;ooo   ooooooooo;::::<:aKKHGFDHGFGGDGDGFDHHsa<:;;<<",
"<<<FKHGDHFDGDGFGHDFGGFFGJGa:;;;;.oOo...OooXX#,y<:#X;y<,t<<t,t,tt,tt<t<<:;#o  ;######oooo####oo;;;;;aKJGFFGGFDHGFGDGDFHDGFau<;;<<",
"<<<KKFFDDGFDGFGDJHGFDGGDJFs:;@....o;;;:;;oXXyy<<:#X;tt,<,,<<ttt,tt<t,,t:;#o #,tuuyt<;ooo#;:##oOooo:HKJDGGDFGHJDGFGDFGDDFFau<;;<<",
"<<<KJDDGFFDDGDDGFGDGFDDGGDp<;oooo;;;::<:;oXXyy<<:#X;,<t<,<,tt,t,,t,<t,,:;#o#tyyt<<t<<#o#;::;;#OOo;ssHJGDDFGDGFGDDGDDHFGDDsp<;;<<",
"<<<KHFGHGDFGDGGDDFGDGDGGDsu<;o.X;;;:<t<:;oXXy8ee8#XX;:::::::::,,:,,,,,,;#oo#ut0ebnnwt#o#:<<<:;#oo;asDJJGDGDGFDDGGDGFDGHGFsp<;:<<",
"<<<KGDFGFFGFFFFDGGDGDFGFsp<:@oo;;;:<t<<:#oXeMCANe8XXo#########;;#;;;;;;#ooo#u0mNNVZZBwo#:ytt,:;#o:ussGJGFDGDGGDFFFFGGFGFDsp<;;<:",
"<<<FGGFFDFFDFGDsFDGGDFHsau:;@oo;;:<t<,,:#eVSSAAVMewXXXooooooo;;oooooooooooo#umMMMMNVZZn#:y<,,,:#Oo:uaaJHFDGGDFsDGFFGFGFFGsu<;;::",
"<<<upassDDFDDFDDDFDDGHFsp<#ooo;;;<ttt,,8MSSACNNbnBrXXXXXXXXX;<<;ooooooooooo#uNnw80enMVZn:y<,,,,;;Oo:ypDJHGDDFDGsFGGFFFsDsuu<;;::",
"<<<<uuuupaaassFFGFFGGGDau<#o.o;;:<<<,:8NSAABMrw=wnr;;;;;;oooo;;oooo;;;;;;;;ouNn80e=0bMVZnyt<,,,:;#o:<uaGJGGGGGFFssaaauuuuu<<;;::",
"<<:::::::<<yyuupaasFFFsu<;#Xo;;;::,,,<bSAZMbw&&&wrw;;<t,:;;oormMNBBw=uyyyt;ouMn0   =8eMZCn<<t,,::;Oo:ypsJGFsaauuuyy<<:::::::::;;",
"<<<<<<::::::<<<<yyuuppu<:;XXo;;:::::<eVSVMw=&O&&wr0,uyytyuu0nBZIIIIACrtt<<;otnNw    *8rMCCet,t,,,;;o::ypuuuuyy<:::::::::::::::;;",
"y:<aHLJGDsy::::::::<<yy<;;..o;;:::,t8nZZNr=&OO&-rb8yyyyttttbBZIAACN0mNBBrt;otbNr     *enVCN8,,<:,:;@o:<<::::::::::::yDDFHKHa<:;;",
"y:FJJJGJHJKKHFsay:::::::@X..;;;:::,,8NCCn0w$OO&9bb8uytt<<<,nBAAAZZZZNMICBbXo<eMbO   $&9nCCN8ttt,,:;ooo::::::::yasFHKKKHHHFGsu:;;",
"y:FLGDDFFGGGHJKKPPLHFu,:#OXX;;;:::,=eCANrmw&OO&wmM8ytt<<<,,nBAZZCCCCCCCVBBXo<wMm@   &&=rNACe=<t,<:;ootypaFFHLPPKKJHKHKGGDDGau:;;",
"y:FPDDFDFFDFFDFGHHHHKatt:#XX;;;:::<8nCCMmbw*$$&wMNw<<<t<<,:nBAZZVMr99,:,9bXo:wNM$  $$=0rMACn8,,tt:;o>ppFHPKHHKKGFDGFDHDDFDDau:;;",
"y:FKFFDDHFFGFFGFHDFFGayt:#XX;;;;#;=8NACmNbw=&&$qMBr8,<t<<,:nBSZCBr e XX:<:Xo:eBM&  &&90rmAAN8=<,t;oo<ypsJLGFFDFFGFFGFFHDDFFau:;;",
"y:FKDDFFGDFDGGDGDGFFFst,;#XXX;;;;;=eBACmNrw--&$-MVNr8;:::;<bBSSZBb0 m    :Xo*nZM*  &=9rbMAABe=,:;;oo>yupJKFFFGDGDGGDFDGFFDDau:;;",
"y:FJFFFDFDDFDDGFFDFFGst:##XXXXX.XX=eVACmNnw--&$*mCVNee   eMNVSSZVBbw0m0    0nAAm- $&0rnrCAAVe=;;;ooo<>ypJKGFFDFFGDDFDDFDFFFau:;;",
"y:FJDFDFGDGDFGDGFsFDDst:##XXXXX.XX=bVACmmnw-*&*$bCVNMNVMNVCAASSAZVBMbnNVAAAVVAZn9 &&0enrVAAVb=oooooo>>tsJLDDFsFGDGFDGDGFDFDau:;;",
"y:FJGFssDFDFFDDFDFFDGst;;#XX;;X.XX=bCACmmrw-*$@$bCCBBCZZZAAIIISAAAAVNNVCMmNBVVVb9&*==erbBCACb=oooooot<<FJLGDFFDFDDFFDFDssFGau:;;",
"y:FJDDsFDsFDDDDsDGDFDat:;#X;<<;.##=bCAVmbew--$&$-MNNBCZAIIIIIIISAZZZZZZVMnerbre9=*=00eemBCACb=OO;;oo><ysJLDFDGssDDDDFsDFsDDau:;;",
"y:FJGsFDFDFDFDGDDGFDDst:;#X;::;.;,=bCAVmbem-9*&@*-qqbCAIASSIISSAZZCCCCCBMn0&&&&&==00ememNCACb=OO;;;ot<ypJJDDFGssGDFDFDFDFsGau:;;",
"y:FHDDDDsDsDFsDDDGDFDst;##X;::;.#:=bCAVbmeV808*&@$*--CAAASSSSSSZCCVVVVVBmb0&&&&-w800eVemNCACb=OO;:;o>><aJLDFDGDsDsFDsDsDDDDau:;;",
"y:DFGsGFDsFsHDFsDDFDDst###X;::;.#:=bCAVbmeN8r0*8&&&@-VAAASSSAAZCBBBBBBMMbr8&*-0ew80reNemnCACb=OO;<;o>:>pJJDDFGDsFDHsFsDFGsGau:;;",
"y:aDFDFDFGsDsGsDFsDssp,:;#X;::;.#:=bCAVbbmmeme*r8*&&&VAAASAAZZCNnNNNNMMme0&&-88wr8=memmmbCACb=OO;t;o;ttpJHDFDsFDsGsDsGFDFDFau:;;",
"y;paaaaasDsaDaaaaapppu:,;#X;::;.#;=bCACmbBmere0Mr--*&NAAAAAZVBMmeMMMmmnbw8&*0-8rM08rebBmbCACb=OO;<;o;>utDsaapaaaaaDasDsaaaapu;;;",
"y;ypuuppppuuuppappuuuy:;#XX;::;.#;=eVACNmBmeeewr888-8bVAAAACBMmr0nmmmnre0&&-8=08rw8bebBmnCAVr=OO;,;;o;<yuauupppappuuuppppuuuy;;;",
"y;;;;;;;;;;;;;;;;;;;;;#XXXX;::;.#;=eVACNmCmemeMwe80w8wMZAAAVNmnnrnbbrrww=&&=008ewM=merCmNCAVe=OO;:;;;ooo;;;;;;;;;;;;;;;;;;;;;;;;",
"yy<<<<::::::::::::::::#XoXXX;;X.#;=eNACBmAmemeMwmew08=rCAAAVNmnbrbbrew08&&&=0w9mwMemerAbBAANe=OO;:;;;+;:<yuuuuuuuuuuuuuuuuuy;;;;",
"yyaJKKLPPPLKKKKKPKPKHa:;#oXXXXX.##=eMACBmZmeBmwee8rw0&0NAAZVMmnrerrre09=&&oowr0eewmBeeZbBAAM0=OO;;;;+;<yaDHJLPPPLKKKKKPKPKHa<;;;",
"yyJPKHHKKKJJHKHKHHHKGstt,#XXXXX.XX=8nACVmBmmBbmr8==rw&=MAZVMmmneweew09-&&ooor0=8rmbBbeBmVAAn8=Oooooo;uppDJKHHKKKJJHKHKHHHKGsu;;;",
"yyJLGFFDFGFDGFDHGGDDGa,,t:XXXXX.XX=8bAAVmmbVBbMne  =0=&rABNMnnrw0w088-*&ooo;8=*enbbBbemmVAAb8=ooooooypuuGHGFFDFGFDGFDHGGDDGau;;;",
"yyJKFFFGDFGFFGFFDDFDDa::,:XXXXX.XX==eAACmBbVBbeMb  =8=&rABrrrew0088--**&oo#:***bbebBMbBMCAAe==#oooooyutyJHFFFGDFGFFGFFDDFDDau;;;",
"yyJKGFFDFGDGGDFDHDDFFa:#::XX:<<<:Xo=eVAVCAmVVb=0=ooo=8&0ACb0--------**&*oo:y,::wbwmMMbAMVAVe=;;,;ooo<typJHGFFDFGDGGDFDHDDFFau;;;",
"yyJKFFFGDFGDDFDDGFFDDa:;;;X#<::::Xo=eNAVVAmVVb==ooooo=o&AAMw********@&8woo;<::;,w=mMBmAMVANe=;:y:;o;<yyaJHFFFGDFGDDFDDGFFDDau;;;",
"yyJKGFFDFDFGDGDGFDFFFa;:;#X::;:::oo=wmAVVAVAVbooooooooo&ZCMe=*&*=*@@@0rnoo;<<t<tt:mMVMANVAmw=;<y:;o;yyuDJGGFFDFDFGDGDGFDFFFau;;;",
"yyJLDDFsFGDGFDGDGFDFDa##:#X:;::::#o=0rCABCmAVmoXX:yupy<&CBmw8*&===*@0rnVoo;,<<t,,;mMAmCNACr0=;y<:;ooutuDJGDDFsFGDGFDGDGFDFDau;;;",
"yyJLGDFFDFDDFFDFDssFGa,;:;X:;;::::oo8wMAVBmAMboo:yttttt<MBm08=*=**=8rnNVoo;<<,<yy;mMAmBVAMw8;;<:;;oouyyaJHGDFFDFDDFFDFDssFGau;;;",
"yyJLDFDGssDDDDFsDFsDDat,;;X;;;;;::oo88bCABmCMboo:tt<ttt<nCm88===**=8bMBnoo:;:;;:;#mMCmBACb88;;;;;oooyuuaJHDFDGssDDDDFsDFsDDau;;;",
"yyJJDDFGssGDFDFDFDFsGa,#;#X;;;;;;;;oo8wNAZMMMboo:,,<<,<<eVme8==****=mMBeoX       XmMNMZANw8ooooooooo<<ypGHDDFGssGDFDFDFDFsGau;;;",
"yyJLDFDGDsDsFDsDsDDDDa:###X#;;;;;;;;o78bCAVmMmoo#:::::::8Mmb8=******nMB8oX ;;<;  XmMNVACb87        o<:ysFGDFDGDsDsFDsDsDDDDau;;;",
"yyJJDDFGDsFDHsFsDFGsGa:#;;XX########oo=wNAZBMmooX#######8Mmb=*******-NNooX;;::;;oomMNZANw*ooo;oooooo<<ypFFDDFGDsFDHsFsDFGsGau;;;",
"yyJHDFDsFDsGsDsGFDFDFa;;:;XXXXX.XXoooo*=eCAZBmooXooooooobCm00********nVooXo;;;;ooomBZACe**oo;<;ooooo<yppDFDFDsFDsGsDsGFDFDFau;;;",
"yyDsaapaaaaaDasDsaaaap::;#XXXX.XXXooooo$*bCAZmoXXoooooowmV00=********0VwoXooXoooooMZACb*$oooo;@ooooo;<ypssaapaaaaaDasDsaaaapu;;;",
"yy<auupppappuuuppppuuu;##o..;<uuyyyuuuy=8eMCAmoXXooooo8nZSV0 **   *rVVVM;#oX:yuuy:NACMe$$;;oooo<<:;o;;#<uauupppappuuuppppuuuy;;;",
"yy::::::::::::::::::::#oooX;<yuttt,,<<,<==eNCmo##::::;VVZmrbr     rVnwAAN0o:uuyy<:BCNe$=;#;ooouauy:;+++;:::::::::::::::::::::;;;",
"yy::::::::::::::::::::ooooX;<ttttt,<,,<,:==eNmo;,uuuyZn*Zkgg00    0werVmVMo:ut<,y:VCe==;;;#oo,uuy<y<;+++:::::::::::::::::::::;;;",
"yyaJKKLPPPLKKKKKPKPKHa:;#oX;<,ty<<<<<,,,:;==emo;:yyyuZNgZfkxvvvvvvvxkfA00Vo:uty<<:Ce=0;;;;;oo,yy<<<<:;<usJKKLPPPLKKKKKPKPKHa<;;;",
"yyJPKHHKKKJJHKHKHHHKGst,:#X;<,,<,,,,<<t,:;o==eo#:tt<tfZkvcvzlllllllzvvvkVeo:ut,t<:e80;;;;:;oo:<,<<::;:upsPKHHKKKJJHKHKHHHKGsu;;;",
"yyJLGFFGFDGFDHGGDFFDGa;:#;X#:<<,<<<,,<,<:;oo==o#;<<,fvcczllkkjjjjjjjjlxvvlf:yt,t<:8r;;##::;oo;:,,<:::tt<sLGFFGFDGFDHGGDFFDGau;;;",
"yyJKFFDFGFFGFFDDFHFDDa;;;;X#;t,:::<<,,<,;;ooo=;#:t<xvcllljjjjhhhhhhhhhhhkxv3y,<t<:r;##;:,<;oo;;:<,:;:<<ysKFFDFGFFGFFDDFHFDDau;;;",
"yyJKGFFGDGGDFDHDDDsFFa##::XX#;;;;;;;;;;;;oooo:,#:fvclljjgd43444444666gghjjlvvf<<<:###;:,,<;ooo;;::;;:t>ypKGFFGDGGDFDHDDDsFFau;;;",
"yyJLDDDFGDDFDDGFFGDFDa####XXXXXo;;ooooooooooo;:tfvxlkjg3334446dd6644433dggjjlvf,t:##::<<,,;oo;oo;;;;>>yusLDDDFGDDFDDGFFGDFDau;;;",
"yyJLGDFDFGDGDGFDFDFFGa;:::XXXXX;<<;oooooooooootfcxlkg413411.........11443djjjlvf<<;:<:,,,t;O;<:OooootttysLGDFDFGDGDGFDFDFFGau;;;",
"yyJLDFFGDGFDGDGFDsFDDa;#:#XXXXXo;;oooooooooooofxcxlf1331..............;;33djgjlcf,:,,:<t<,;O;<;@Oooo>t>usJDFFGDGFDGDGFDsFDDau;;;",
"yyJJDDDFDDFFDFDssFGsGa:;##X..,u:...,uuuuy<;oofccd;;;;;;;...;;;;;;;;;;;;::...45jlxf;tt<<t<,;O;;;@,u;o>>uapJDDDFDDFFDFDssFGsGau;;;",
"yyJLDFssDDDDFsDFssFDDa;##;XX;,yy;.;,yyuy<:;o5cccd;JJJJJJ...;JJJJJJJJJJJJJJJJ.5jjlz5;,<,<,<;Oo;O:uu;o<>:uuHDFssDDDDFsDFssFDDau;;;",
"yyJJDDssGDFDFDFDFFGsGa:##;XX;:tt;.;:ttt<::;ozcccd;HFFFFH...;HFFFFFFFFFFFFFFH.1dgjzd#;tt,,<;Oooo<uy:o<>>yuHDDssGDFDFDFDFFGsGau;;;",
"yyJHDFDsDsFDsDsDDDFDFa:;:;XX;:,t;.;:,ty<<:#dzccz5;HFFFFH...;HFFFFFFFFFFFFFFH;2dghjld#:,,:<;Oooo<ut:o<y<yaDDFDsDsFDsDsDDDFDFau;;;",
"yyDsaapaaaaaDasDsaaaap::;#XX;:,,;.;:,,<<,:#lzzzg6;HFFFFH...;HFFFFFFFFFFFFFFH;;dghhjg;#:,,,;Oooo,ut:o;<yyasaapaaaaaDasDsaaaapu;;;",
"yy<auupppappuuuppppuuu:##oXX#:<:;.#:<<,:::5llll66;HFFFFH...;HFFFFFFFFFFFFFFH;;5gghhj5#::,,#Oooo:yt;o;;:yuaFFsppappuuuppppuuuy;;;",
"yy::::::::::::::::::::ooooXX#::;;.#;;,::::dkkkg64;HFFFFH...;HFFFFDaaaaaaaaaD..2ggghhd##::;#Oooo#;:;+++++:::::::::::::::::::::;;;",
"yy::::::::::::::::::::ooooXXX#;;..X#;;;;;oghhjf42;HFFFFH...;HFFFFH.............5hgghg#####;Ooooooo++++++:::::::::::::::::::::;;;",
"yyaJKKLPPPLKKKKKPKPKHa,:; XXXXX.XXooooooo5jhhh64.;HFFFFH...;HFFFFH.............2kgghj5####Ooo;;ooo++#<yuDJKKLPPPLKKKKKPKPKHa<;;;",
"yyJPKHHKKKJJHKHKHHHKGst::;XXXXX.XXooooooodjhhg62.;HFFFFH...;HFFFFH..............kgghhdoooooo;<<;oooo<uyaJPKHHKKKJJHKHKHHHKGsu;;;",
"yyJLGFFDFDGFsDDFDFFDGat,#:XXX;;;;;;;;;;;oghhhf4..;HFFFFH;;;;HFFFFH;;;;;;;;;;;...hfghhgooooooo;;oooootyuaJLGFFDFDGFsDDFDFFDGau;;;",
"yyJKFFFGDGDFDGFDFHFDDa,::;X;;:yyuppuyyt<;jhhg62..;HFFFFHJJJJHFFFFHJJJJJJJJJJ;...4hgghjooo;,yyuuyy:oo<taDJKFFFGDGDFDGFDFHFDDau;;;",
"yyJKGFFDHHFDsFsDDDsFFat,::X;:<t<yyyyt<<:;hhgg62..;HFFFFFFFFFFFFFFFFFFFFFFFFH;...2kgghjoo;yuyttyupt;ottuaJKGFFDHHFDsFsDDDsFFau;;;",
"yyJLDFDGFGDGFFDFFsFDDaut,:X;:<<y<<yy<y<:#hggg6...;HFFFFFFFFFFFFFFFFFFFFFFFFH;....kggghoo:uyt<ttyut;otypDJGDFDGFGDGFFDFFsFDDau;;;",
"yyJJDDFGDsFDHsFsDFGsGat,;:X;,,,<,,,,,<t:#gfgg6...;HFFFFFFFFFFFFFFFFFFFFFFFFH;....kggghoo:ytt,tyyy,;otyuaJGDDFGDsFDHsFsDFGsGau;;;",
"yyJHDFDsFDsGsDsGFDFDFat::#X;,<,,,<,<,,,:#ffgg6...;HFFFFFFFFFFFFFFFFFFFFFFFFH;....kggghoo<y<,,,t<y,#o>typGFDFDsFDsGsDsGFDFDFau;;;",
"yyDsaapaaaaaDasDsaaaap,###X;,tt,,t,tt,,:#ffgh6...;DaaaaaaaaaDFFFFDaaaaDFFFFH;....kggggoo,y<,,,,,t<#o;>yuDsaapaaaaaDasDsaaaapu;;;",
"yy<auupppappuuuppppuuu####X;,t,:,t,t,:t:#ffhh62..;;;;;;;;;;;HFFFFH...;HFFFFH;....kggggoo,yt<,,,,,t,;o;>ypauupppappuuuppppuuuy;;;",
"yy<:::::::::::::::::::ooooX#,,,<,,,,,<,:#dfhjg4............;HFFFFH...;HFFFFH;...2jggfdoo<y<<t,,:,:,;o++;<::::::::::::::::::::;;;",
"yy<:::::::::::::::::::ooooX;::<,::::<,,:#3ghjj6............;HFFFFH...;HFFFFH;...4jgff5oo:ytt,t,,,,:;;++;<::::::::::::::::::::;;;",
"yyaJKKLPPPLKKKKKPKPKHa,:;XX;,t::,t,t::::#oghjjg2.;;;;;;;;;;;HFFFFH...;HFFFFH;...gjgff;oo;tt<,,<:,t,;:<yuaJKKLPPPLKKKKKPKPKHa<;;;",
"yyJPKHHKKKJJHKHKHHHKGs:,:#X#,,,t,,,,,t,:#odjjjg5.;JJJJJJJJJJHFFFFH...;HFFFFH;;;4kjffd;oo;<y<ttt,,:<;>yutJPKHHKKKJJHKHKHHHKGsu;;;",
"yyJLGFFDFDGFsDDFDFFDGa<t:#X;,:,,,:,:,,<:;o3gjkj6:;HFFFFFFFFFFFFFFH...;HFFFFH;;2dkgff5;oo;,y<t<t,<:<o>ypaJLGFFDFDGFsDDFDFFDGau;;;",
"yyJKFFFGDGDFDGFDFHFDDa<,:#X;:t<,<t<t<,:;#oogjjkg1;HFFFFFFFFFFFFFFH...;HFFFFH;.5khffd;;oo;;<t<,,tt<:o>taFJKFFFGDGDFDGFDFHFDDau;;;",
"yyJKGFFDHHFDsFsDDDsFFa,::;X;;:::<,<,:;##;oo3gjkk1+HFFFFFFFFFFFFFFH...;HFFFFH;15hgff5;;ooo;,tt,<,t,;o<tyaJKGFFDHHFDsFsDDDsFFau;;;",
"yyJLDDFsFFDFFGDGFGDFDat#;#XX;;;;;;;;;;;;oooodgjk1+HFFFFFFFFFFFFFFH...;HFFFFH;55dgfg;;;ooo;:tt<,::#;o>u>pJLDDFsFFDFFGDGFGDFDau;;;",
"yyJLGDFFDFDDsFGDFDFFGay:;#XXX;;;;;;;;;oooooo3dgh5+DaaaaaaaaaaaaaaD...;DaaaaD;65dff5#<;oooo;:<:;###oo>uysJLGDFFDFDDsFGDFDFFGau;;;",
"yyJLDFDGFGDGFFDFFsFDDay::;XXXXX.XXooooooooooo3ggf33;;;;;;;...........;;;;;;;245df3;;t;oo;ooo;## oooo<yysJLDFDGFGDGFFDFFsFDDau;;;",
"yyJJDDFGDsFDHsFsDFGsGa<:##XXXXX.XXoooooooooooo3fff55333;;..............22222245d3;;,t;o;u;oooooooooo>:yiJJDDFGDsFDHsFsDFGsGau;;;",
"yyJHDFDsFDsGsDsGFDFDFa;:##XX ;;;;;;;;;;;;;;;;;;3fggfff3334..........6fffd4333453;;,tt;oy<:oo;;;;;;oo>>y<JHDFDsFDsGsDsGFDFDFau;;;",
"yyDsaapaaaaaDasDsaaaap:###XX;<uuuuuuuuuuuuuuuu,,3fghjjkzvvvxxxxxxxxxxxlgd555553;;,tt,;o<<:o:<uuuu<;o#::yDsaapaaaaaDasDsaaaapu;;;",
"yy<auupppappuuuppppuuu###XX;<yyyyyyyyyyyyyyyttt::3dghjjjjllllllllllllljhd66663;;,<t,<;o:<:;<uyyyyy:;o###<auupppappuuuppppuuuy;;;",
"yy;;;;;;;;;;;;;;;;;;;;XXXXX;tttyttt<tyttt<tttttt;;3dfghhjjjjjjjjjjjjjjjhd6663;:<<<t,t;o;;;;yutttty<;;oo;;;;;;;;;;;;;;;;;;;;;;;;;",
"yy;;;;;;;;;;;;;;;;;;;;XXXXX;ttttt<ttttt<ttty<t,tt:#;%5fggghhhhhhhhhhhhhgd53XXy<,,:,,,;oo;o;tyt<tttt;;oo;;;;;;;;;;;;;;;;;;;;;;;;;",
"y<aJKKLPPPLKKKKKPKPKHa,,;#X;t<<t,,t,<t,,t,,,t<,<,<,;#;;355fgggggggggf553#;;oott,<<<,,;oooo;tyy<yt<t;o<uuaJKKLPPPLKKKKKPKPKHa<;;;",
"y<JPKHHKKKJJHKHKHHHKGs::,:X;<yt,,<t,t,,<t,,t<,,t<,<<,;##;114444444441;;;o<<;o<t::,,,:;oooo;<yyy<t,:;ouytJPKHHKKKJJHKHKHHHKGsu;;;",
"y<JLGFFDFDGFsDDFDFFDGa;##,X;,,,<,,<<,<,,<<,,,<<<,,,:,,;;::<<<<<<<<<<<#oo<u<;;;;;;;;;;;oo;o;;<t<t<,;o<>><JLGFFDFDGFsDDFDFFDGau;;;",
"y<JKFFFGDGDFDGFDFHFDDa;::,X;,t<,<,,:<,<,,:<,<,,<,,:,,<::,aaaaaaaaaaaap<o;<;;ooooooooooo;y;o;:<t<<:;outt<JKFFFGDGDFDGFDFHFDDau;;;",
"y<JKGFFDHHFDsFsDDDsFFa#;::XX:::,tt<,:,tt<,:,,,,,::,,,,::pFFFGFFFFDFDFFp<o;;ooooooooooooo;ooo;;:::;;ott<:JKGFFDHHFDsFsDDDsFFau;;;",
"y<JLDFDGFGDGFFDFFsFDDa;;:#XXo;;;::,:;;::,:::::::::::::ppDDFDFDDFFDDDFDDppooooooooooooooooooooooooooo>t<<JLDFDGFGDGFFDFFsFDDau;;;",
"y<JJDDFGDsFDHsFsDFGsGa;:,tpsHLLLLLLLLLLLLLLLLLLLLLLLLLLHHDDFDFDFDDDDFGHKKKKKKKKJJJLLLLLLKKKKKLLLLKGDauy<JJDDFGDsFDHsFsDFGsGau;;;",
"y<JHDFDsFDsGsDsGFDFDFa<yusGHLJJJJGGHHGHGJHJJLJJJJGJGJJGHHGHGJHJJHGGGGFFFFFFFFGFFFFGGGGGGGGGGGHJHJHHGsuy<JHDFDsFDsGsDsGFDFDFau;;;",
"y<DsaapaaaaaDasDsaaaap<yusDDHGGKGGGGGGGFFFHHHGGKGGFGGGGGGGGFFFHHFFDDDFDDDDDFDFDDFFGDDFFFGHGJFFGFDFDDsuy<DsaapaaaaaDasDsaaaapu;;;",
"y<<auupppappuuuppppuuu<yussDGGGGGGDFFDGFFFsDGGGGGGKDGDDFFDGFFFsDDDDDDFFDDFDDFDFDFDDsFDDsFFFFGFGDFsDssuy<<auupppappuuuppppuuuy;;;"
};
