/* XPM */
static char *_89da1e85da0478ad56161ee27703f56KXx0sD2wKzHQZxp1[] = {
/* columns rows colors chars-per-pixel */
"64 64 87 1 ",
"  c #7C7C7C",
". c gray55",
"X c #646464",
"o c gray44",
"O c #989898",
"+ c #D0D0D0",
"@ c #ECECEC",
"# c gray66",
"$ c gainsboro",
"% c #B4B4B4",
"& c #E4D800",
"* c gray33",
"= c black",
"- c #FCF400",
"; c #FCF420",
": c #FCF440",
"> c #FCF85C",
", c #FCFC7C",
"< c #FCFC9C",
"1 c #484848",
"2 c #FCFCB8",
"3 c #FCFCD8",
"4 c gray22",
"5 c #FCB080",
"6 c #FCE0D0",
"7 c #FCE8DC",
"8 c #FCCCB0",
"9 c #FCD4BC",
"0 c #FCD8C4",
"q c #FCC4A4",
"w c #FCBC9C",
"e c #B4AC00",
"r c #FCB890",
"t c #CCC400",
"y c #2C2C2C",
"u c #FC9C60",
"i c #202020",
"p c #FCA470",
"a c #BC7848",
"s c #F0945C",
"d c #B47044",
"f c #A86840",
"g c #DC8854",
"h c #C0C0C0",
"j c #D08050",
"k c #9C6038",
"l c #885830",
"z c #744C28",
"x c #80502C",
"c c #9C9C00",
"v c #848400",
"b c #5C4020",
"n c #706C00",
"m c #40FC40",
"M c #60FC5C",
"N c #80FC7C",
"B c #9CFC9C",
"V c #B8FCFC",
"C c #543C1C",
"Z c #04C800",
"A c #20FC20",
"S c #483818",
"D c #EC0000",
"F c #00FC00",
"G c #403018",
"H c #D40000",
"J c #FC5C5C",
"K c #04BC00",
"L c #382C14",
"P c #FC4040",
"I c #04B000",
"U c #28200C",
"Y c #B00000",
"T c #04A400",
"R c #BC0000",
"E c #049800",
"W c #A80000",
"Q c #048800",
"! c #980000",
"~ c #047C00",
"^ c #880000",
"/ c #047000",
"( c #7C0000",
") c #046400",
"_ c #045800",
"` c #044C00",
"' c #044000",
/* pixels */
"     ........ . .         .   .....         .   .. .         . X",
" ... ...... . .    .... .   .....     ... .   .. . ... ..... . o",
"......ooooooooooooooooooooooooooooooooooooooooooooooooo........o",
"O..O..oXO+@@@@@.@@@@.@@@@.@@@@.@@@@.@@@@.@@@@.@@@@@+Oo ....O..Oo",
"#O.O..oXO+@++++ ++++ ++++ ++++ ++++ $$$$ $$$$ $$$+@+OX O.O.O..# ",
"%%OOOOoXO+&&&&&*&&&&*&&&&*&&&&*&&&&*&&&&*&&&&*&&&&&+OX %O%OOOOO#",
"%#%O#OoXO+&=======================================&+OX #%#%O#O##",
"%#%O##oX* .=&-=;:>,<<<1<2<<<<<<<=,222333333,==333=. *X #%#%O##%#",
"%%%O#%oXO+&=&-=;:>,<<<1<22222222=22222322===22333=&+OX %%%%O#%%#",
"%#%%#%oXO+&=&-=<<<<,22==============22===2222232==&+OX #%#%%#%%#",
"%#%%%#oXO+&====,<<<<<<====4444441111==,<2222322=3=&+OX #%#%%%#%#",
"%%%%%#oXO+&=&>========================,,<<2222=33=&+OX %%%%%%#%O",
"%%%%#%oX* .=&>=>>>>>>=555567=41**=*Xoo1,,<<<<=333=. *X %%%%%#%%O",
"%%%%%%oXO+&=&;=::::::=890000=41**=*XXoo1,,<,=3333=&+OX %%%%%%%%#",
"%%%%%#oXO+&=&;=;;;;;=qq89900=44**=***XX=1,,=32323=&+OX %%%%%%#%O",
"%%%%%%oXO+&=&-=-----=wwq8999=4411=1111=X1e=22222==&+OX %%%%%%%%O",
"%%%%%#oXO+&=&&=&&&&=5rwwq888=4444=444=**1=<<2222==&+OX %%%%%%#%#",
"%%%%%%oX* .=tt=================44=yy=41*1>><<<2=&=. *X %%%%%%%%O",
"%%%%%%oXO+&=ee=tt>>>===4uurww=5=1=i=iy411>><<<<=>=&+OX %%%%%%%%O",
"%#%%#%oXO+&====;;;>=r=4uu5rww=pp=====iyy1>>><<=&;=&+OX #%#%%#%%O",
"%%%%%%oXO+&=t&=-;;=5p=uup5rr=uuuuu=a=iiy1=>>>>=:-=&+OX %%%%%%%%O",
"%%%%%%oXO+&=t&=--=ppp=uup555=ssss=dd=ii1>&=>>=&--=&+OX %%%%%%%%O",
"%%%%%%oX* .=t&=--=uuu=sup55=ssss=fff=i1>,,&=>=---=. *X %%%%%%%%O",
"%OO%%%oXO$&=t&========suppp=ggg=======-:>>,&======&$OX OOOO%%%%O",
"%hhOO%oXO$&=et=&---=y=suuu=jjj=kk=ajd=--:>>>=;;;;=&$OX hhhhOO%% ",
"%%hhhOoXO$&=et=&&-&===ssss=dd=ll=jssa=&&---=>>,,,=&$OX %h%hhhO%#",
"%%%%%hoXO$&=et=&&&&=sssss=zz=ll=jsgj==tt&&&=&>>>>=&$OX %%%%%%hOO",
"%#%%%hoX* .=et=t&&&=========ll=dad==l=eett=&&-:>-=. *X #%#%%%hhO",
"%#%%%%oXO$&=et=ttt&=zzzzzz=xx=fk==fl=f==ee=&&&&;;=&$OX #%#%%%%%#",
"%%%%%%oXO$&=ce=tttv=======zz=f==lll=kfkk===ettt&&=&$OX %%%%%%%%O",
"%%%%%%oXO$&=ce=etv=eeeeebzz===llll=lkkkkll==ceett=&$OX %%%%%%%%O",
"%%%%%%oXO$&=ce=ev=eettt=bb=4lkffl=llllllllll==cee=&$OX %%%%%%%%O",
"%##%%%oX* .=vc=v=cccee=bb=llkffl=xllllllllllll==c=. *X ####%%%%O",
"%%%%%%oXO$&=vc==n=ccc=l==ffffff=xxxxxxxxxxxxxxxx4=6$OX %%%%%%%%O",
"%%%%%%oXO$&=vc=nvn=c=xxx=kkkkk====================6$OX %%%%%%%%O",
"%%%%%%oXO$&=n=nnnvn=zxlll=lll=kajjjax=ll=kllkffdd=6$OX %%%%%%%%#",
"%%%%%%oXO$&========zzxllll=b=kddddfl=llll=klkffff=6$OX %%%%%%%%#",
"%%%%%%oX* .=mMNBBB=zzxllllx=lfffffl=xxxx=d=kkffff=. *X %%%%%%%%O",
"%#%%#%oXO+V=mMNBB=zzzxlllx=lfffffl=zzzz=dsa=kkkk==6+OX #%#%%#%%O",
"%%%%%%oXO+V=mMNNN=bzzxllx=lkkkkkl=zzzz=fggga=kl=f=6+OX %%%%%%%%O",
"%%#%%%oXO+V=mMMMM=bzzxxx=xlllllx=bbbb=fjjjjjd==ff=6+OX %#%#%%%%O",
"%%%#%%oXO+V==mmm=bbzzzz=xlllllx=CCCC==jajjjaa=kkk=6+OX %%%%#%%%O",
"%%%%%%oX* .=Z=AA=bbzzz=zxxxxxz=SSSS=DD=adaaf=llll=. *X %%%%%%%%O",
"%%%%%%oXO+V=ZZ=F=bbbb=========GGGG=HDJJ=ddf=lllll=6+OX %%%%%%%#O",
"#%%%%%oXO+V=KKK=SCCC=kkkkkkkk=LLL=HPPJJJ=f=xxxxxx=6+OX %%%%%%%%O",
"%%%%%%oXO+V=IKK=SSS=lllllllll=UU=HHHPJJJJ=zzzzzz==6+OX %%%%%%%%O",
"O%%%%%oXO+V=II=GGG=C=llllllll===YHHHPPPPPH=zzzz=x=6+OX %%%%%%%% ",
"OO%%%%oX* .=TT=LL=SCb=xxxxxxx===YRYHHHHHHHH=bb=zz=. *X O%O%%%%% ",
"%h%%%%oXO+V=EE=U=GSCbz=zzzzzb=aj=YYYYYWRHHYY==zzz=6+OX h%h%%%%%O",
"%h%%%%oXO+V=Q===LGSCbbb=zzzb=daaa=WYWYWWYWYW=bbbb=6+OX h%h%%%%%#",
"hh%%%%oXO+V==Q=C=GSCCCCC=bb=fddd=l=W!!!!!W!=CCCCC=6+OX h%h%%%%%#",
"%%%%%%oXO+V=~~=SS=SSSSSSS==ffff=lll=W^!!!!=SSSSSS=6+OX %%%%%%%%O",
"%%%%%%oX* .=//=GGG=GGGGGG=kfff=xllll=^^^(=GGGGGGG=. *X %%%%%%%%O",
"#%%%%%oXO+V=))=LLLL=LLLG=lkkk=zxxxxxx=((=LLLLLLLL=6+OX %%%%%%%%O",
"%%%%%%oXO+V=__=LLLLL=UG=llll=zzzzzzzzz==UUUUUUUUU=6+OX %%%%%%%%O",
"%#%%%%oXO+V=``=UUUUUU==xlll=bzzzzzzzzz=UUUUUUUUUU=6+OX #%#%%%%%O",
"%O%%%%oXO+V=''=UUUUUUUxxxx=bbbbbbbbbb=UUUUUUUUUUU=6+OX O%O%%%%%O",
"%O%%#%oX* .=======================================. *X O%O%%#%%O",
"%OOO%%oXO+66666.6666.6666.6666.6666.6666 6666.66666+OX OOOOO%%%O",
"%+hOO%oXO+@++++ ++++ ++++ ++++ ++++ $$$$ $$$$ $$$+@+OX +h+hOO%% ",
"O%%+OOoXOOOOOOO*OOOO*OOOO*OOOO*OOOO*OOOO*OOOO*OOOOOOOX %%%%+OO%#",
"h%%%hOoX111111111111111111111111111111111111111111111X %%%%%hOOO",
"#####OoX*********************************************X ######OO#",
"OOOOO.ooXXXXXXXXXXXXXXXXXXXXXXXXXXXXXXXXXXXXXXXXXXXXX  OOOOOO.. "
};
